<svg width="174" height="42" viewBox="0 0 174 42" fill="none" xmlns="http://www.w3.org/2000/svg">
    <g clip-path="url(#clip0_9071_6291)">
        <path
            d="M0.0398703 14.9817C0.0684881 14.5836 0.126221 14.1883 0.212595 13.799C0.653907 11.8799 2.18313 8.38235 4.51087 6.18073C9.95945 1.02644 20.0083 0.993301 25.4009 6.20926L26.3748 7.15452C25.2507 7.81906 24.2949 8.50845 23.2413 8.96313C22.8751 9.12052 22.1733 8.87108 21.8071 8.57931C18.1581 5.65057 14.161 5.2097 10.0797 7.25945C6.07083 9.27238 4.1835 12.9393 4.245 17.3287C4.3074 21.8645 6.39549 25.4458 10.6341 27.3879C11.75 27.8987 13.0315 28.1003 14.2604 28.288C16.1478 28.577 17.3071 27.7772 18.4321 26.0735C19.7217 24.1177 21.5972 22.4839 23.4593 21.0113C24.7787 19.9721 25.7924 19.0987 25.5691 17.2376C25.5094 16.736 25.9896 15.9905 26.4381 15.6425C27.2873 14.9863 28.5136 14.4064 29.7181 13.7207C29.748 14.6273 29.6883 15.2228 29.6901 15.811C29.7027 21.8857 29.7507 27.9668 29.6828 34.0434C29.6186 39.6799 25.0183 42.7615 19.8383 40.6998C17.006 39.5723 15.7924 37.2942 15.616 34.3416C15.5817 33.7737 15.6106 33.2012 15.6106 32.4704C14.1465 32.1501 12.6516 31.8344 11.1613 31.4957C5.26749 30.1586 1.65801 26.5092 0.332872 20.5474L0.294892 20.3826C0.148269 19.739 0.0670564 19.0818 0.0525322 18.4213C0.0172634 17.048 -0.0388063 16.2472 0.0398703 14.9817ZM25.4868 23.7854C24.1493 25.3501 22.5531 26.7233 21.3594 28.392C20.0165 30.2706 19.4603 32.4731 19.9233 34.8018C20.2227 36.2938 21.1089 37.3145 22.7376 37.3329C24.1068 37.3485 25.4135 36.0894 25.4578 34.4934C25.5573 30.9269 25.4732 27.3547 25.4868 23.7854Z"
            fill="#674E67" />
        <path
            d="M141.278 1.40086C141.265 1.85002 141.278 1.68988 141.259 1.96048C141.259 1.96968 141.259 1.9798 141.259 1.989C141.259 2.72993 141.282 3.64574 141.29 4.34893C141.292 4.46688 141.25 4.58125 141.172 4.66844C141.094 4.75562 140.986 4.80895 140.87 4.81742C139.271 4.95456 137.65 5.28407 136.764 6.18331C136.04 6.91964 136.15 8.48434 135.987 9.99105C135.98 10.0559 135.986 10.1216 136.005 10.1838C136.025 10.246 136.057 10.3034 136.1 10.3522C136.142 10.4009 136.194 10.44 136.253 10.4669C136.311 10.4938 136.375 10.5079 136.439 10.5083H140.746C140.806 10.5082 140.866 10.5202 140.921 10.5435C140.977 10.5669 141.028 10.6012 141.07 10.6445C141.113 10.6877 141.146 10.7391 141.169 10.7957C141.192 10.8522 141.204 10.9128 141.204 10.974V13.993C141.204 14.1165 141.156 14.235 141.07 14.3223C140.984 14.4096 140.868 14.4587 140.746 14.4587H136.613C136.553 14.4586 136.494 14.4706 136.438 14.4939C136.383 14.5173 136.332 14.5516 136.29 14.5948C136.247 14.6381 136.213 14.6895 136.19 14.7461C136.167 14.8026 136.156 14.8632 136.156 14.9244V31.2645C136.156 31.388 136.108 31.5064 136.022 31.5938C135.936 31.6811 135.82 31.7302 135.698 31.7302H132.483C132.368 31.7292 132.257 31.6837 132.173 31.6027C132.089 31.5217 132.038 31.4114 132.031 31.2939C132.004 30.8586 131.974 30.4048 131.974 29.952C131.966 25.4917 131.896 21.0304 132.008 16.5738C132.049 14.8793 131.501 14.3805 129.884 14.4062C129.498 14.4127 129.179 14.4182 128.633 14.4062C128.518 14.3991 128.411 14.3473 128.333 14.2616C128.255 14.1758 128.213 14.0628 128.215 13.946V11.0431C128.215 10.9818 128.227 10.9212 128.249 10.8646C128.272 10.8079 128.306 10.7565 128.349 10.7132C128.391 10.6698 128.442 10.6354 128.497 10.612C128.553 10.5885 128.612 10.5764 128.673 10.5764H131.357C131.419 10.5763 131.48 10.5636 131.537 10.539C131.593 10.5144 131.644 10.4784 131.687 10.4332C131.73 10.388 131.763 10.3345 131.785 10.276C131.807 10.2174 131.817 10.1549 131.814 10.0923C131.675 6.35635 132.144 3.01343 136.161 1.5242C136.178 1.51772 136.195 1.51218 136.213 1.50763C137.961 1.06952 138.976 0.937898 140.819 0.92041C140.881 0.920509 140.941 0.933111 140.998 0.957465C141.054 0.981819 141.106 1.01743 141.148 1.06221C141.191 1.10699 141.224 1.16003 141.247 1.21819C141.269 1.27636 141.28 1.33846 141.278 1.40086Z"
            fill="#674E67" />
        <path
            d="M173.543 1.51514H170.676C170.424 1.51514 170.219 1.72365 170.219 1.98086V31.4395C170.219 31.6967 170.424 31.9052 170.676 31.9052H173.543C173.796 31.9052 174.001 31.6967 174.001 31.4395V1.98086C174.001 1.72365 173.796 1.51514 173.543 1.51514Z"
            fill="#674E67" />
        <path
            d="M120.944 29.685C120.946 29.5973 120.923 29.5109 120.878 29.4359C120.834 29.3609 120.769 29.3006 120.691 29.2619C120.614 29.2232 120.527 29.2078 120.442 29.2175C120.356 29.2273 120.275 29.2617 120.208 29.3168C120.19 29.3316 120.174 29.3476 120.159 29.3647C115.47 34.8982 105.044 32.7619 103.3 24.0401C102.277 18.9217 104.36 13.5769 108.573 11.3468C113.051 8.97673 119.113 9.95421 122.395 13.8457C123.497 15.1518 124.587 16.9438 124.671 18.5665C124.965 24.273 124.942 30.0044 124.783 35.7192C124.716 38.1574 123.069 39.8675 120.661 40.151C117.799 40.4879 114.783 40.1823 111.811 40.2771C111.733 40.2795 111.654 40.2659 111.581 40.2371C111.508 40.2082 111.441 40.1647 111.385 40.1091C111.328 40.0535 111.283 39.9869 111.253 39.9133C111.222 39.8397 111.206 39.7606 111.206 39.6807V37.4358C111.206 37.3745 111.218 37.3139 111.241 37.2573C111.264 37.2008 111.298 37.1494 111.34 37.1061C111.383 37.0629 111.434 37.0286 111.489 37.0052C111.545 36.9819 111.604 36.9699 111.665 36.9701C113.39 36.9701 115.106 36.9701 116.819 36.9701C119.9 36.9636 120.68 36.2853 120.918 33.2028C121.006 32.0882 120.961 30.9589 120.944 29.685ZM120.815 21.4105C120.827 17.1371 118.32 14.0813 114.479 13.6957C111.072 13.3533 108.035 15.9046 107.395 19.832C106.912 22.8004 107.546 25.533 110.028 27.4447C112.167 29.0923 114.615 29.2036 116.991 28.0421C119.685 26.7305 120.818 24.3733 120.815 21.4115V21.4105Z"
            fill="#674E67" />
        <path
            d="M160.715 10.9723H163.49C163.61 10.9723 163.726 11.0206 163.812 11.1068C163.897 11.1929 163.946 11.31 163.947 11.4325C163.966 16.3944 164.259 21.3214 163.83 26.1839C163.542 29.4348 160.81 31.1955 157.786 32.1353C152.632 33.735 147.211 31.6604 145.381 27.2654C144.838 25.9695 144.561 24.4858 144.509 23.0757C144.386 19.7236 144.468 16.3632 144.47 13.0064C144.47 10.7358 144.489 10.7155 146.753 10.6511C147.151 10.6391 147.549 10.6447 148.073 10.6511C148.193 10.6528 148.308 10.7027 148.393 10.79C148.478 10.8774 148.525 10.9951 148.525 11.1177V13.67C148.525 16.793 148.493 19.9169 148.536 23.0398C148.582 26.4315 151.004 28.9479 154.192 29.0004C157.628 29.0565 160.17 26.6138 160.239 23.0647C160.305 19.6509 160.254 16.2352 160.254 12.8205V11.4399C160.254 11.3783 160.266 11.3172 160.289 11.2602C160.312 11.2033 160.346 11.1516 160.389 11.1081C160.432 11.0646 160.483 11.0302 160.539 11.0069C160.595 10.9836 160.655 10.9718 160.715 10.9723Z"
            fill="#674E67" />
        <path
            d="M82.088 31.779H79.1779C79.0815 31.7788 78.9877 31.7478 78.9096 31.6903C78.8316 31.6328 78.7733 31.5518 78.7429 31.4587C78.6577 31.2402 78.6067 31.0095 78.5919 30.7749C78.6036 26.6735 78.3966 22.5519 78.7303 18.4764C79.1001 13.9663 81.6359 11.4196 85.9649 10.3988C90.8546 9.24465 95.7316 11.3901 97.5457 15.5623C97.9309 16.4459 98.2773 17.4335 98.2936 18.3797C98.3686 22.6808 98.3307 26.9837 98.3279 31.5324C98.328 31.5943 98.3159 31.6556 98.2924 31.7127C98.2689 31.7698 98.2345 31.8215 98.1911 31.865C98.1478 31.9084 98.0964 31.9426 98.0399 31.9656C97.9834 31.9886 97.923 32 97.8622 31.999C97.1487 31.9861 96.4614 31.9567 95.7823 32.0174C94.6401 32.1205 94.3091 31.6437 94.3209 30.5236C94.357 26.9966 94.3462 23.4677 94.263 19.9389C94.1726 16.1974 91.8141 13.6727 88.5332 13.6737C85.1338 13.6737 82.6008 16.3852 82.5583 20.1616C82.5167 23.8212 82.5456 27.4816 82.5483 31.3096C82.5487 31.3713 82.537 31.4324 82.514 31.4895C82.491 31.5465 82.4572 31.5984 82.4144 31.642C82.3716 31.6857 82.3207 31.7203 82.2647 31.7438C82.2086 31.7673 82.1486 31.7793 82.088 31.779Z"
            fill="#674E67" />
        <path
            d="M42.8076 11.2898C42.7809 11.2188 42.7717 11.1422 42.7807 11.0667C42.7898 10.9912 42.8168 10.9191 42.8596 10.8568C42.9023 10.7944 42.9594 10.7436 43.0258 10.7089C43.0923 10.6741 43.1661 10.6565 43.2408 10.6574C43.8892 10.6657 44.4038 10.6786 44.9165 10.6446C46.4611 10.5415 47.3302 11.2539 47.8438 12.7247C49.4011 17.1841 51.0316 21.6177 52.6612 26.0513C52.8656 26.6035 53.1459 27.1346 53.5031 27.8396C53.5405 27.9134 53.5966 27.9757 53.6655 28.0201C53.7345 28.0644 53.8139 28.0892 53.8954 28.0918C53.9769 28.0944 54.0577 28.0748 54.1293 28.035C54.2008 27.9952 54.2607 27.9366 54.3026 27.8654C54.6372 27.292 54.9085 26.852 55.0893 26.3771C56.5534 22.3761 58.0085 18.3695 59.4021 14.3446C60.65 10.7394 60.7586 10.5083 64.4889 10.8148C64.5562 10.8205 64.6214 10.8411 64.6799 10.8754C64.7385 10.9096 64.7888 10.9566 64.8275 11.013C64.8661 11.0693 64.892 11.1337 64.9033 11.2014C64.9147 11.2692 64.9112 11.3386 64.8931 11.4048C64.8226 11.6598 64.7521 11.9092 64.6616 12.1503C62.5003 17.9225 60.3365 23.692 58.1704 29.4586C57.3411 31.6584 56.1184 32.5218 53.9345 32.5383C51.6601 32.5577 50.5161 31.7946 49.6643 29.5452C47.4025 23.5653 45.1634 17.5716 42.8076 11.2898Z"
            fill="#674E67" />
        <path
            d="M38.6528 11.001H36.0357C35.783 11.001 35.5781 11.2095 35.5781 11.4667V31.4313C35.5781 31.6885 35.783 31.897 36.0357 31.897H38.6528C38.9056 31.897 39.1104 31.6885 39.1104 31.4313V11.4667C39.1104 11.2095 38.9056 11.001 38.6528 11.001Z"
            fill="#674E67" />
        <path
            d="M72.3287 10.897H69.6998C69.4471 10.897 69.2422 11.1055 69.2422 11.3627V31.226C69.2422 31.4833 69.4471 31.6918 69.6998 31.6918H72.3287C72.5814 31.6918 72.7863 31.4833 72.7863 31.226V11.3627C72.7863 11.1055 72.5814 10.897 72.3287 10.897Z"
            fill="#674E67" />
        <path
            d="M40.155 4.79166C40.146 6.31769 38.9459 7.44795 37.3697 7.41757C35.8911 7.38812 34.7951 6.26523 34.7969 4.78153C34.7969 3.24077 35.996 2.0921 37.5587 2.13443C39.0337 2.17493 40.1677 3.33097 40.155 4.79166Z"
            fill="#674E67" />
        <path
            d="M71.0496 2.13087C72.6168 2.1051 73.6432 3.07982 73.6956 4.64359C73.7517 6.27916 72.7117 7.40482 71.1337 7.41678C69.5213 7.43059 68.4496 6.35555 68.465 4.74023C68.4768 3.22984 69.5439 2.15572 71.0496 2.13087Z"
            fill="#674E67" />
    </g>
    <defs>
        <clipPath id="clip0_9071_6291">
            <rect width="174" height="40.4188" fill="white" transform="translate(0 0.921387)" />
        </clipPath>
    </defs>
</svg>