<svg id="Layer_1" data-name="Layer 1" xmlns="http://www.w3.org/2000/svg" viewBox="0 0 24 24"><defs><style>.cls-1{fill:#231f20;}</style></defs><path class="cls-1" d="M12,2A10,10,0,1,0,22,12,10,10,0,0,0,12,2Zm5.42,14.39a2.49,2.49,0,0,1-3.6,2.39,2.38,2.38,0,0,1-1.55-2.28c0-.21,0-.41,0-.67l-1.62-.35a4.87,4.87,0,0,1-4-3.94v-.06a4.19,4.19,0,0,1-.09-.7c0-.5,0-.78,0-1.24a2.49,2.49,0,0,1,.06-.42A6.1,6.1,0,0,1,8.21,6.38a5.92,5.92,0,0,1,7.64,0l.36.34a11.38,11.38,0,0,1-1.15.65.65.65,0,0,1-.52-.14,3.79,3.79,0,0,0-4.29-.47,3.72,3.72,0,0,0-2.13,3.61A3.79,3.79,0,0,0,10.45,14a5,5,0,0,0,1.33.32,1.42,1.42,0,0,0,1.52-.79,8.36,8.36,0,0,1,1.84-1.82c.49-.37.86-.69.78-1.36a.75.75,0,0,1,.31-.57,9.83,9.83,0,0,1,1.2-.69c0,.32,0,.54,0,.75C17.43,12,17.45,14.21,17.42,16.39Z"/><path class="cls-1" d="M14.38,14.36a2.87,2.87,0,0,0-.53,2.3,1,1,0,0,0,1,.91,1,1,0,0,0,1-1c0-1.28,0-2.56,0-3.84C15.4,13.27,14.81,13.76,14.38,14.36Z"/></svg>