<svg id="Layer_1" data-name="Layer 1" xmlns="http://www.w3.org/2000/svg" viewBox="0 0 256 570"><defs><style>.cls-1{fill:#fff;}.cls-2{fill:#527b84;}.cls-3{fill:#7db1a8;}.cls-4{fill:#799e96;}.cls-5{fill:#8dbfb6;}.cls-6{fill:#5c878f;}.cls-7{fill:#639196;}.cls-8{fill:#f3725f;}.cls-9{fill:#f16254;}.cls-10{fill:#f47f74;}.cls-11{fill:#e6c191;}.cls-12{fill:#dcb98b;}.cls-13{fill:#f3cc98;}.cls-14{fill:#f89d53;}.cls-15{fill:#ef9552;}.cls-16{fill:#f9a566;}.cls-17{fill:#ffc959;}.cls-18{fill:#ffd384;}.cls-19{fill:#febf4f;}.cls-20{fill:#8bbcb2;}.cls-21,.cls-31,.cls-33{fill:#231f20;}.cls-22{fill:#6f593b;}.cls-23{fill:none;stroke:#231f20;stroke-miterlimit:10;}.cls-24{fill:#544255;}.cls-25{fill:#675368;}.cls-26{fill:#808184;}.cls-27{fill:#929497;}.cls-28{fill:#ffe5ca;}.cls-29{fill:#ae8145;}.cls-30{fill:#727375;}.cls-31{opacity:0.06;}.cls-32{fill:#ef5952;}.cls-33{opacity:0.08;}</style></defs><path class="cls-1" d="M172.36,5.92l-137,78.44C2.16,103.52-6.21,158,8.42,191L117.51,480.25c18,35.2,44.82,53.5,77.83,45.09h0c13.39-3.41,60.4-4.14,60.32-59.91L221.83,36.65C219.6,3,192.28-3.82,172.36,5.92Z"/><path class="cls-2" d="M248.54,542.6c.49-19.14-53.76-25.55-120.06-25.55S8.45,520.36,8.42,542.6c0,19.12,53.75,25.55,120.06,25.55S248,565,248.54,542.6Z"/><rect class="cls-3" x="125.59" y="80.07" width="93.88" height="460.91"/><polygon class="cls-4" points="232.73 527.99 219.47 540.98 219.47 80.07 232.4 67.08 232.73 527.99"/><polygon class="cls-5" points="232.4 67.12 139.12 67.12 125.73 80.11 219.47 80.11 232.4 67.12"/><rect class="cls-6" x="84.49" y="230.73" width="85.63" height="321.67"/><polygon class="cls-2" points="182.21 543.34 170.12 552.41 170.12 230.73 181.91 221.67 182.21 543.34"/><polygon class="cls-7" points="181.91 221.67 96.41 221.67 84.19 230.73 169.7 230.73 181.91 221.67"/><rect class="cls-8" x="23.84" y="314.04" width="84.76" height="237.45"/><polygon class="cls-9" points="119.31 544.65 107.34 551.35 107.34 313.89 119.02 307.2 119.31 544.65"/><polygon class="cls-10" points="119.02 307.45 34.37 307.45 22.58 313.89 107.22 313.89 119.02 307.45"/><rect class="cls-11" x="62.73" y="409.24" width="128.73" height="147.73" transform="translate(254.19 966.2) rotate(-180)"/><polygon class="cls-12" points="44.55 552.8 62.73 556.96 62.73 409.24 45 405.07 44.55 552.8"/><polygon class="cls-13" points="45 405.07 173.55 405.07 191.46 409.09 62.91 409.09 45 405.07"/><rect class="cls-14" x="135.63" y="490.28" width="71.09" height="69.9" transform="translate(342.36 1050.45) rotate(-180)"/><polygon class="cls-15" points="125.59 558.2 135.63 560.17 135.63 490.28 125.84 488.31 125.59 558.2"/><polygon class="cls-16" points="125.84 488.31 196.83 488.31 206.72 490.21 135.74 490.21 125.84 488.31"/><polygon class="cls-17" points="98.56 307.72 70.13 307.72 70.13 276.31 98.52 276.31 98.56 307.72"/><polygon class="cls-18" points="102.47 275.45 74.09 275.45 70.13 276.31 98.52 276.31 102.47 275.45"/><polygon class="cls-17" points="94.69 308.37 66.27 308.88 66.27 287.56 94.69 287.56 94.69 308.37"/><polygon class="cls-18" points="98.61 286.95 70.22 286.95 66.27 287.53 94.65 287.53 98.61 286.95"/><rect class="cls-17" x="62.45" y="298.3" width="28.43" height="11.11"/><polygon class="cls-19" points="94.69 297.99 94.69 287.56 98.56 286.96 98.56 276.35 102.47 275.45 102.57 307.34 97.53 306.59 100.01 306.14 102.56 303.85 102.57 307.34 90.88 309.4 90.88 298.3 94.69 297.99"/><polygon class="cls-18" points="94.8 297.98 66.41 297.98 62.45 298.29 90.84 298.29 94.8 297.98"/><polygon class="cls-17" points="182.03 560.83 210.45 560.83 210.45 529.43 182.07 529.43 182.03 560.83"/><polygon class="cls-18" points="178.11 528.56 206.5 528.56 210.45 529.43 182.07 529.43 178.11 528.56"/><polygon class="cls-17" points="185.89 561.48 214.31 561.99 214.31 540.67 185.89 540.67 185.89 561.48"/><polygon class="cls-18" points="181.97 540.07 210.36 540.07 214.31 540.65 185.93 540.65 181.97 540.07"/><rect class="cls-17" x="189.7" y="551.41" width="28.43" height="11.11" transform="translate(407.83 1113.93) rotate(-180)"/><polygon class="cls-19" points="185.89 551.11 185.89 540.67 182.03 540.08 182.03 529.46 178.11 528.56 178.01 560.45 183.05 559.71 180.57 559.26 178.02 556.96 178.01 560.45 189.7 562.52 189.7 551.41 185.89 551.11"/><polygon class="cls-18" points="185.79 551.1 214.17 551.1 218.13 551.4 189.74 551.4 185.79 551.1"/><polygon class="cls-20" points="53.53 503.03 83.12 503.03 97.92 528.43 83.12 553.83 53.53 553.83 46.8 506.26 53.53 503.03"/><polygon class="cls-9" points="120.74 467.11 98.46 476.86 77.79 464.02 71.06 467.25 80.17 488.23 61.58 503.91 85.34 509.13 94.51 531.66 106.82 510.68 124.35 512.14 131.08 508.92 114.92 490.73 120.74 467.11"/><polygon class="cls-19" points="134.43 560.07 127.7 563.29 93.34 534.11 100.09 513.91 106.68 510.67 134.43 560.07"/><polygon class="cls-10" points="98.8 476.86 78.14 464.02 71.41 467.25 80.52 488.23 99.77 490.73 98.8 476.86"/><polygon class="cls-3" points="46.8 506.26 76.39 506.26 91.19 531.66 76.39 557.06 46.8 557.06 32 531.66 46.8 506.26"/><polygon class="cls-8" points="114.02 470.34 91.73 480.08 71.06 467.25 73.44 491.46 54.85 507.14 78.61 512.36 87.78 534.89 100.09 513.91 124.35 512.14 108.19 493.96 114.02 470.34"/><polygon class="cls-17" points="127.7 563.29 71.83 563.29 99.95 513.9 127.7 563.29"/><rect class="cls-2" x="152.81" y="378.82" width="13.31" height="12.62" rx="6.31" transform="translate(29.2 -10.83) rotate(4.28)"/><rect class="cls-6" x="151.69" y="378.65" width="13.31" height="12.62" rx="6.31" transform="translate(29.18 -10.75) rotate(4.28)"/><path class="cls-21" d="M195.59,476.32c.07-.56,3.12-1.33,4.21-.48a6.19,6.19,0,0,1,1.51,6.11c-.92,2.19-.18,2.38.3,2.74a6.27,6.27,0,0,1-4.16.68c-2.78-.3-2.14-2.38-2.14-2.38Z"/><path class="cls-22" d="M200.7,485.67c-1.19-.31-2.39-.19-2.81-.38-.27-.13-.85-.12-.25-1.27s1.55-1.82,1.45-2.66-2-4.51-3.93-4.39c0,0-2.5.41-2.31,3.64.11,1.88.32,3.26.87,3.77.27.26.91.21,1.13.25s.16.39,0,.5c-.38.24-2.44,0-2.64.3s-.54,2.42.38,2.76a14.49,14.49,0,0,0,4.29.45C197.89,488.55,200.7,485.67,200.7,485.67Z"/><path class="cls-21" d="M196.91,478.74s-2.3,2-4.23,1.51c-1.06-.26,0-2.49.83-3.38s3.09-.61,3.47-.48a3.71,3.71,0,0,1,2.35,2.18c1,2.62-.85,5.39-1.33,4.7-.21-.3,1.11-.9.69-2.11-.16-.46-.94.2-.94.2C197.07,481,196.91,478.74,196.91,478.74Z"/><circle class="cls-23" cx="193.59" cy="481.16" r="0.91"/><circle class="cls-23" cx="195.78" cy="481.52" r="0.97"/><path class="cls-23" d="M194.49,481.36c.23-.21.12-.15.33,0"/><polygon class="cls-22" points="195.05 524.73 194.97 527.95 194.21 529.1 192.96 528.03 193.56 524.73 195.05 524.73"/><path class="cls-21" d="M194.84,529.72h-.42c-.41,0-.08-.6-.87-.74-.14,0-1,.74-1.24.74a8.89,8.89,0,0,1-1.92-.15c0-.12-.39-.89.34-.9s2.34-1.84,2.51-1.8-.12.66.67.79,1-.5,1.07-.43A15.46,15.46,0,0,1,194.84,529.72Z"/><path class="cls-22" d="M192.65,527.34a.62.62,0,0,1,.11.95,1.74,1.74,0,0,1-.76.53c-.11,0-.66.12-.84-.29A10.3,10.3,0,0,0,192.65,527.34Z"/><path class="cls-24" d="M192.15,500.37s-.22,13.9-.07,14.91.95,9.05.87,9.77,2,1.23,2.39.29,1.06-10.17.35-11.33,3.61-14,3.61-14Z"/><polygon class="cls-22" points="206.51 508 208.03 507.08 209.35 507.02 209.03 508.51 206.41 509.41 206.51 508"/><path class="cls-21" d="M210.21,505.83l.22.36c.23.35-.45.39-.15,1.13.05.13,1.16.45,1.29.65a9.19,9.19,0,0,1,.9,1.7c-.1.06-.54.8-.94.19s-2.81-1-2.87-1.15.62-.26.3-1-.93-.53-.93-.68A17.64,17.64,0,0,1,210.21,505.83Z"/><path class="cls-22" d="M209.37,509a.63.63,0,0,1,.75-.61,1.88,1.88,0,0,1,.85.36c.09.07.46.5.21.87A9.05,9.05,0,0,0,209.37,509Z"/><path class="cls-25" d="M192.15,500.37c.23,1.81,1.25,14.29,3.19,14.87s13.27-5.41,12.83-6-1.08-1.7-1.8-1.43-6.18,2.7-7.48,2.77.28-5.38.41-6.53.94-2.89,0-4S192.15,500.37,192.15,500.37Z"/><path class="cls-22" d="M186.06,490.25s-2.73-1.28-3.09-2.14-.63-.95-.76-1.05c-.48-.36-.81-.74-.72-.48a6.62,6.62,0,0,1,0,1,.14.14,0,0,1-.07.14l-.39.21c-.09.05-.59.33-.89.47s.73.57,1.12.62c.61.08,1.85,1.32,4.06,4.17C185.48,493.39,186.06,490.25,186.06,490.25Z"/><path class="cls-22" d="M181.52,486.51c-.3-.23-.74-.77-.8-.65a.48.48,0,0,0,0,.49,1.44,1.44,0,0,0,.41.47,5.71,5.71,0,0,1,.38.85"/><path class="cls-9" d="M192.18,485.43c-1.15.24-4.28,5.39-4.88,5.67s-.65-.73-1.24-.85-1.13,2.42-.73,2.95c.68.91,1.65,1.61,2.48,1.31s3.71-4.16,3.72-4a1.94,1.94,0,0,0,1,2.26c1,.45.26,4.72-.22,7.25,0,.15-.12.25-.13.36-.08,1.61,7.47.48,7.39,0-1-5.61-.65-9.93.63-11s3.94-.87,5.32-1.28c.92-.27,2-2,2.47-2.54.73-.94-1.36-1.92-1.94-1.82s-1.16,1.69-2.06,1.66-4.17.06-4.83,0-2.78,2.58-4,2.58S193.33,485.19,192.18,485.43Z"/><path class="cls-22" d="M209.05,478.9a.57.57,0,0,1,0-.46,6.19,6.19,0,0,1,.75-1.2c.37-.38.53-.66.7-.63s-.08.44-.21.64a1.41,1.41,0,0,0-.19.51c0,.15,2.31-1.27,2.56-1s-1.51.91-1.55,1,1.89-1,2.09-.66-1.75.87-1.77,1.07,2-.94,2.11-.65-1.92.89-2,1,1.43-.62,1.47-.37-1.61,1-1.93,1.14a7.61,7.61,0,0,1-1.48.57C209.51,479.92,209.2,479.26,209.05,478.9Z"/><path class="cls-22" d="M206,483.77c-.11.57,1.62,1.56,2.09,1.48s1.42-5.35,1.85-5.4-.53-1.83-.9-1.41S206,483.77,206,483.77Z"/><rect class="cls-26" x="185.61" y="522.11" width="5.68" height="4" transform="translate(494.93 989.18) rotate(166.39)"/><rect class="cls-27" x="184.99" y="522.16" width="6.13" height="0.6" rx="0.3" transform="translate(493.75 986.01) rotate(166.39)"/><rect class="cls-27" x="185.79" y="525.47" width="6.13" height="0.6" rx="0.3" transform="translate(496.1 992.34) rotate(166.39)"/><rect class="cls-27" x="185.39" y="523.81" width="6.13" height="0.6" rx="0.3" transform="translate(494.93 989.18) rotate(166.39)"/><rect class="cls-8" x="186.51" y="526.01" width="5.68" height="3.6" transform="translate(497.56 996.25) rotate(166.39)"/><polygon class="cls-28" points="173.77 463.45 173.66 475.06 178.09 481.29 179.18 473.73 173.77 463.45"/><path class="cls-4" d="M174.27,474.22c.55-.13,1.19.55,1.42,1.51l2-.48c-.24-1,0-1.85.57-2a1,1,0,0,1,.93.47l.26,1.1.27,1.1,11,45.57-5.52,1.34-11-45.58-.27-1.1-.26-1.1A1,1,0,0,1,174.27,474.22Z"/><path class="cls-3" d="M176.26,473.74c.55-.13,1.18.55,1.42,1.52L189,521.93l-2,.48-11.3-46.67C175.46,474.77,175.71,473.88,176.26,473.74Z"/><path class="cls-21" d="M173.77,463.45s1.09,2.11,1.61,3.07-1.65,1.16-1.65.59Z"/><polygon class="cls-29" points="149.24 558.77 149.3 560.87 150.48 562.24 152.44 560.98 151.28 557.76 149.24 558.77"/><path class="cls-21" d="M149.3,562.73a4,4,0,0,0,1.29.39c.5,0,1.75-.19,1.91-.19s1.88.19,2.17.19,1.44,0,1.44-.19.27-1.62-.6-1.64a33.54,33.54,0,0,1-3.41-1c-.21,0-.47.88-1.41,1s-1.24-.51-1.39-.42A8.25,8.25,0,0,0,149.3,562.73Z"/><polygon class="cls-29" points="140.14 557.46 138.95 559.19 139.09 560.99 141.42 561.13 142.38 557.86 140.14 557.46"/><path class="cls-3" d="M146.09,546.89,142,559.14l-3.36-.75s2.21-12.93,2.37-13.47a63.89,63.89,0,0,1,4.17-13.87c.08-.21,4.81.83,4.81.83l-.09,4.48-2.12,5.07Z"/><path class="cls-29" d="M142.47,515.42c.61-.21.08-.59.59-.67a11,11,0,0,0,1.58-.18c.28-.16.91-.77.19-1.91s-1.35-1.77-1.32-2.65,1.65-4.87,3.72-4.91c0,0,2.65.21,2.72,3.59.05,2,0,3.43-.58,4-.27.29-.93.29-1.16.36s-.21.76,0,.87a5.51,5.51,0,0,0,1.53.29c1,0,1.3.15,1.42.32s.37,3-.56,3.47a14.75,14.75,0,0,1-4.43.84C145.08,518.85,142.47,515.42,142.47,515.42Z"/><path class="cls-21" d="M145.58,508.54a7.42,7.42,0,0,0,4-.77c1.39-1,.27-1.86-.83-2.48a8.3,8.3,0,0,0-4.24-.46c-1.18.35-1.22,1-1.59,1.37s-.84.76-1,1.25.3.8.28,1.14c0,.55-.85.65-.81,1.15.06.9.87.9.9,1.26s-.67,1.49-.08,1.86a2.23,2.23,0,0,0,2.9-.23c.3-.4.05-.83-.2-1.18s-1.43-.91-.66-2.14c.36-.58,1.11.71,1.11.71A1.15,1.15,0,0,0,145.58,508.54Z"/><path class="cls-3" d="M148,547.34l.88,12.23,3.45.07s.95-13.07.92-13.64a64.42,64.42,0,0,0-.72-14.47,38.62,38.62,0,0,0-4.88-.34l-1,4.37.84,5.43Z"/><path class="cls-29" d="M165.37,506.29a8.4,8.4,0,0,1,.11-1.9c.17-.58.18-.95.36-1s.16.49.14.76a1.55,1.55,0,0,0,.08.62c.05.16,1.65-2.52,2.05-2.41.2.06-1.05,1.73-1,1.88s1.38-2,1.76-1.79-1.3,1.82-1.21,2,1.52-2,1.78-1.79-1.46,1.92-1.41,2.1,1.11-1.4,1.28-1.17-1.09,1.88-1.34,2.19a8.53,8.53,0,0,1-1.19,1.37C166.54,507.29,165.37,506.29,165.37,506.29Z"/><path class="cls-25" d="M150.91,514.29c-.39.76-1.37,2.35-.11,3.8s11.36-2.72,12.23-3.92,4.54-6.94,4.42-7.4-1.83-.51-2.21-.45-3.49,5.12-4.21,5.48S150.91,514.29,150.91,514.29Z"/><path class="cls-25" d="M142.29,514.88c-1.86,1.15-.44,4.84-.07,5.84s1.65,12.5,2.07,12.84,8.8,0,9-.71-1.14-7.2-.52-12.42c.07-.64,1.43-6.71-.16-6.49-1,.14-2.21.1-3,.32s-2.18,2.28-2.55,2.28a28.65,28.65,0,0,0-3-1.79,4.36,4.36,0,0,0-1.71.13"/><path class="cls-25" d="M144.66,515c-.34-.51-1.34-.53-1.53-.54-.93,0-1.95.68-2.71,2.22-1.31,2.65-3.27,9.58-2.3,10.69,1.21,1.4,7.59,4.38,8,4.08s.94-1.28.73-1.61-5.68-3.35-5.34-4.37C141.7,524.83,145.87,516.84,144.66,515Z"/><path class="cls-21" d="M138.22,560.35a2.88,2.88,0,0,0,.68,1.23,13.63,13.63,0,0,1,1.15,1.37c.13.09.92,1.22,1.15,1.38s.74.88,1.12.94c1.16.19,2.56-.37,2.06-1.43-.17-.36-.61-.72-1.09-1.6s-1.13-2.55-1.24-2.6-.88.47-1.8.71-1.13-1.15-1.3-1.16S138.22,560.35,138.22,560.35Z"/><rect class="cls-30" x="147.65" y="529.96" width="2.92" height="0.91" transform="translate(369.53 1035.39) rotate(172.12)"/><rect class="cls-30" x="149.83" y="520.92" width="13.55" height="9.27" transform="translate(355.93 1036.44) rotate(175.28)"/><path class="cls-29" d="M146.63,529.93a8.07,8.07,0,0,1,1.88-.33c.6,0,1,0,1.07.13s-.45.26-.71.3a1.58,1.58,0,0,0-.59.22c-.14.09,2.21.24,2.19.64,0,.22-1.3.18-1.44.25s1.24-.27,1.1.16-1,.29-1.22.43,1-.33.82,0-.88.36-1,.45.83-.35.65-.13a2.64,2.64,0,0,1-1.67.3,9,9,0,0,1-1.6-.84C145.92,531.3,146.63,529.93,146.63,529.93Z"/><path class="cls-27" d="M155.8,526.27a.52.52,0,0,0,.47-.26.63.63,0,0,0-.57-1h0a1.25,1.25,0,0,1,1.27-.72,1.23,1.23,0,1,1-1.14,1.94Z"/><path class="cls-31" d="M192.59,439.33c-10.1-8.64-30.6-17.09-36.52-18.58a.47.47,0,0,1-.24-.76c.54-.63.83-.94,1.92-2.17a.27.27,0,0,0-.19-.45c-7.81-.34-20.54-.7-29.31-.73a.27.27,0,0,0-.18.47c6.24,5.54,10,8.72,19.89,16.58a.43.43,0,0,0,.63-.11c.5-.85.65-1.12,1.59-2.83a.72.72,0,0,1,.67-.37c5.85.3,33.43,11,41.74,26.11Z"/><path class="cls-31" d="M191.46,453.12c-10.1-8.64-30.6-17.09-36.52-18.58a.47.47,0,0,1-.24-.76c.54-.63.84-.94,1.93-2.17a.27.27,0,0,0-.2-.45c-7.81-.34-20.54-.7-29.31-.73a.27.27,0,0,0-.18.47c6.24,5.54,10,8.72,19.89,16.58a.43.43,0,0,0,.63-.11c.5-.85.65-1.12,1.59-2.83a.72.72,0,0,1,.67-.37c5.85.3,33.43,11,41.74,26.11Z"/><path class="cls-32" d="M193.82,474.78a13.06,13.06,0,0,1-2.36,4.23V464.1c0-.91,3.36,3.35,3.36,3.35Z"/><path class="cls-9" d="M154.94,429.57a.47.47,0,0,1-.24-.76c.54-.63.83-.94,1.93-2.17a.27.27,0,0,0,.06-.12h0l.21-1.06-4,.31.27.31c-7.11-.28-16.6-.53-24-.59l-2.07-.89-.2,1h0a.26.26,0,0,0,.06.32c6.24,5.54,10,8.72,19.89,16.58a.43.43,0,0,0,.63-.11c.5-.85.65-1.12,1.59-2.83a.72.72,0,0,1,.67-.37c7,.36,45.2,15.58,44.1,35.58l3.28-17C199.18,447,163.12,431.64,154.94,429.57Z"/><path class="cls-8" d="M194,473.71l3.29-17c2.08-10.77-34-26.13-42.16-28.19a.47.47,0,0,1-.25-.76c.55-.63.84-.94,1.93-2.17a.27.27,0,0,0-.19-.45c-7.82-.35-20.55-.7-29.31-.73a.27.27,0,0,0-.18.47c6.24,5.53,10,8.71,19.89,16.58a.43.43,0,0,0,.63-.11c.5-.86.65-1.13,1.58-2.83a.7.7,0,0,1,.68-.37C156.93,438.5,195.12,453.72,194,473.71Z"/><path class="cls-33" d="M155.79,428.68c-.34-.09-.5-.14-.8-.2.54-.63,1.35-1.67,2.44-2.9a.27.27,0,0,0-.19-.45c-5.51-.25-13.46-.49-20.75-.63,3.4,2.88,7.14,5.92,13.08,10.66a.43.43,0,0,0,.63-.11c.5-.85.65-1.12,1.59-2.83a.72.72,0,0,1,.67-.37c6.64.34,40.94,13.12,43.54,31.6.42-2.16.42-3.37,1-6.39C199,445.79,164,430.75,155.79,428.68Z"/><path class="cls-9" d="M157.57,417a.46.46,0,0,1-.24-.75c.54-.63.83-.94,1.92-2.17a.24.24,0,0,0,.07-.13h0l.21-1.07-4,.31.28.31c-7.11-.27-16.6-.52-24-.58l-2.07-.9-.19,1h0a.28.28,0,0,0,.06.33c6.24,5.53,10,8.71,19.89,16.58a.42.42,0,0,0,.63-.12c.5-.85.65-1.12,1.58-2.82a.71.71,0,0,1,.68-.37c7,.36,45.19,15.57,44.09,35.57l3.29-17C201.81,434.38,165.75,419,157.57,417Z"/><path class="cls-8" d="M196.65,461.1l3.29-17c2.07-10.76-34-26.12-42.17-28.19a.47.47,0,0,1-.24-.76c.55-.63.84-.94,1.93-2.16a.28.28,0,0,0-.19-.46c-7.82-.34-20.55-.7-29.31-.73a.27.27,0,0,0-.18.47c6.24,5.54,10,8.72,19.89,16.58a.42.42,0,0,0,.63-.11c.49-.85.65-1.12,1.58-2.83a.74.74,0,0,1,.67-.37C159.56,425.88,197.75,441.1,196.65,461.1Z"/></svg>