<svg id="Layer_1" data-name="Layer 1" xmlns="http://www.w3.org/2000/svg" xmlns:xlink="http://www.w3.org/1999/xlink" viewBox="0 0 256 570"><defs><style>.cls-1,.cls-2,.cls-26,.cls-39,.cls-41,.cls-42,.cls-43,.cls-44,.cls-45,.cls-58{fill:none;}.cls-1{clip-rule:evenodd;}.cls-3{fill:#fff;}.cls-4{fill:#527b84;}.cls-5{fill:#7db1a8;}.cls-6{fill:#799e96;}.cls-7{fill:#8dbfb6;}.cls-8{fill:#5c878f;}.cls-9{fill:#639196;}.cls-10{fill:#f3725f;}.cls-11{fill:#f16254;}.cls-12{fill:#ffc959;}.cls-13,.cls-24,.cls-34,.cls-36{fill:#231f20;}.cls-13{opacity:0.29;}.cls-14{fill:#f47f74;}.cls-15{fill:#e6c191;}.cls-16{fill:#dcb98b;}.cls-17{fill:#f3cc98;}.cls-18{fill:#f89d53;}.cls-19{fill:#ef9552;}.cls-20{fill:#f9a566;}.cls-21{fill:#ffd384;}.cls-22{fill:#febf4f;}.cls-23{fill:#8bbcb2;}.cls-25{fill:#6f593b;}.cls-26{stroke:#231f20;}.cls-26,.cls-39,.cls-41,.cls-42,.cls-43,.cls-44,.cls-45,.cls-58{stroke-miterlimit:10;}.cls-27{fill:#544255;}.cls-28{fill:#675368;}.cls-29{fill:#808184;}.cls-30{fill:#929497;}.cls-31{fill:#ffe5ca;}.cls-32{fill:#ae8145;}.cls-33{fill:#727375;}.cls-34{opacity:0.06;}.cls-35{fill:#ef5952;}.cls-36{opacity:0.08;}.cls-37{fill:#ffebd3;}.cls-38{fill:#fffaf5;}.cls-39{stroke:#ffc959;}.cls-39,.cls-45{stroke-width:0.5px;}.cls-40{fill:#a7a9ac;}.cls-41{stroke:#b7b7b8;}.cls-42,.cls-58{stroke:#bbbdbf;}.cls-42,.cls-43,.cls-44,.cls-58{stroke-linecap:round;}.cls-42,.cls-44{stroke-width:2px;}.cls-43{stroke:#d0d2d3;}.cls-44{stroke:#e6e7e7;}.cls-45{stroke:#a7a9ac;}.cls-46{fill:#daac78;}.cls-47{fill:#bbbdbf;}.cls-48{fill:url(#radial-gradient);}.cls-49{clip-path:url(#clip-path);}.cls-50{isolation:isolate;}.cls-51{clip-path:url(#clip-path-2);}.cls-52{clip-path:url(#clip-path-3);}.cls-53{fill:#d8d9d8;}.cls-54{clip-path:url(#clip-path-4);}.cls-55{clip-path:url(#clip-path-6);}.cls-56{clip-path:url(#clip-path-8);}.cls-57{clip-path:url(#clip-path-10);}.cls-58{stroke-width:6px;}.cls-59{fill:url(#radial-gradient-2);}.cls-60{fill:#856432;}.cls-61{fill:#ffe2c3;}.cls-62{fill:#d6aa4c;}</style><radialGradient id="radial-gradient" cx="-504.06" cy="5230.06" r="20.8" gradientTransform="translate(4628.8 -3351.1) rotate(45) scale(1.11 1.11)" gradientUnits="userSpaceOnUse"><stop offset="0.78" stop-color="#fff"/><stop offset="1" stop-color="#fff"/></radialGradient><clipPath id="clip-path"><path class="cls-1" d="M127.47,329.17a23,23,0,1,0,16.28-6.74,23,23,0,0,0-16.28,6.74"/></clipPath><clipPath id="clip-path-2"><rect class="cls-2" x="120.51" y="322.18" width="80.84" height="46.62"/></clipPath><clipPath id="clip-path-3"><rect class="cls-2" x="120.71" y="322.38" width="46.22" height="46.22"/></clipPath><clipPath id="clip-path-4"><path class="cls-1" d="M141.27,319c-21.21,6-15,38.62-15.84,50.87-.82,11.68.38,54.17-20.13,67.14,15.26,6.57,72.51,11.25,89.22,11.25,6,0,13-49.85,11.37-71.57-1.42-19.38-4.11-50.54,13.47-54-20.11-2.49-78.09-3.69-78.09-3.69"/></clipPath><clipPath id="clip-path-6"><path class="cls-1" d="M134,346c-.68,9.27,4.73,17.23,12.11,17.79S160,357.26,160.67,348s-4.73-17.23-12.11-17.79S134.66,336.72,134,346"/></clipPath><clipPath id="clip-path-8"><path class="cls-1" d="M142.74,342.2c-.26,3.53,1.8,6.57,4.61,6.78s5.29-2.48,5.55-6-1.8-6.56-4.61-6.77-5.29,2.47-5.55,6"/></clipPath><clipPath id="clip-path-10"><path class="cls-1" d="M135.33,357.05c-.34,4.56,4.48,8.64,10.76,9.11s11.67-2.86,12-7.42-4.48-8.64-10.77-9.1-11.66,2.85-12,7.41"/></clipPath><radialGradient id="radial-gradient-2" cx="143.84" cy="345.58" r="23.15" gradientUnits="userSpaceOnUse"><stop offset="0.78" stop-color="#fff" stop-opacity="0"/><stop offset="1" stop-color="#7db1d1" stop-opacity="0.7"/></radialGradient></defs><path class="cls-3" d="M172.36,5.92l-137,78.44C2.16,103.52-6.21,158,8.42,191L117.51,480.25c18,35.2,44.82,53.5,77.83,45.09h0c13.39-3.41,60.4-4.14,60.32-59.91L221.83,36.65C219.6,3,192.28-3.82,172.36,5.92Z"/><path class="cls-4" d="M248.54,542.6c.49-19.14-53.76-25.55-120.06-25.55S8.45,520.36,8.42,542.6c0,19.12,53.75,25.55,120.06,25.55S248,565,248.54,542.6Z"/><rect class="cls-5" x="125.59" y="80.07" width="93.88" height="460.91"/><polygon class="cls-6" points="232.73 527.99 219.47 540.98 219.47 80.07 232.4 67.08 232.73 527.99"/><polygon class="cls-7" points="232.4 67.12 139.12 67.12 125.73 80.11 219.47 80.11 232.4 67.12"/><rect class="cls-8" x="84.49" y="230.73" width="85.63" height="321.67"/><polygon class="cls-4" points="182.21 543.34 170.12 552.41 170.12 230.73 181.91 221.67 182.21 543.34"/><polygon class="cls-9" points="181.91 221.67 96.41 221.67 84.19 230.73 169.7 230.73 181.91 221.67"/><rect class="cls-10" x="23.84" y="314.04" width="84.76" height="237.45"/><polygon class="cls-11" points="119.31 544.65 107.34 551.35 107.34 313.89 119.02 307.2 119.31 544.65"/><path class="cls-12" d="M203.85,435.41a45.15,45.15,0,0,0,18.6-9.3l-21-13.33-31,7L197,436.56A64,64,0,0,0,203.85,435.41Z"/><path class="cls-12" d="M210.48,409.81l10.85-17.12a48.25,48.25,0,0,0-26.48-2.63l-17.18,27.1Z"/><path class="cls-12" d="M202.71,412.5l20.49,13c8.68-7.37,13.61-16.49,13.27-20.55Z"/><path class="cls-12" d="M169.13,420l-7.8,1.75c2.74,10.44,17.1,16.41,34.12,14.94Z"/><path class="cls-12" d="M211.75,409.53l24.54-5.5c-1.08-3.36-6.47-7.85-14.08-11Z"/><path class="cls-12" d="M176.41,417.44l0-.08,17.14-27c-20.46,4.63-34.85,18.22-32.47,30.54Z"/><path class="cls-12" d="M211,405.3a46.19,46.19,0,0,0,8.58-19.38l-25.17,3.17L174.51,414.7l31.79-4A68.71,68.71,0,0,0,211,405.3Z"/><path class="cls-12" d="M199.56,380.88,197,360.38a49.2,49.2,0,0,0-22.52,15.12L178.55,408Z"/><path class="cls-12" d="M195.2,388,219.74,385c2-11.44,0-21.8-2.91-24.78Z"/><path class="cls-12" d="M173.69,415.75l-5,6.44c8.94,6.43,24.11,1.8,36.53-10.41Z"/><path class="cls-12" d="M200.38,379.83l15.72-20.25c-3-1.94-10.17-2-18.2.5Z"/><path class="cls-12" d="M177.74,409a.29.29,0,0,1,0-.09l-4.08-32.38c-13.07,16.93-15.57,37-5.69,45.08Z"/><path class="cls-13" d="M208.26,406.86h-1.38a1.42,1.42,0,0,1-1.39-1.09c-.07-.28-.15-.56-.23-.83a1.45,1.45,0,0,1,.66-1.66l1.14-.67a2.36,2.36,0,0,0,.85-3.21l-.8-1.41a2.34,2.34,0,0,0-3.2-.86l-1.18.68a1.44,1.44,0,0,1-1.76-.24c-.23-.25-.48-.49-.73-.72a1.46,1.46,0,0,1-.26-1.79l.61-1.08a2.36,2.36,0,0,0-.85-3.21l-1.4-.82a2.34,2.34,0,0,0-3.2.86l-.68,1.2a1.45,1.45,0,0,1-1.63.67l-.55-.15a1.43,1.43,0,0,1-1.11-1.4v-1.28a2.35,2.35,0,0,0-2.34-2.35h-1.61a2.35,2.35,0,0,0-2.34,2.35v1.28a1.44,1.44,0,0,1-1.1,1.4l-.33.09a1.46,1.46,0,0,1-1.61-.68l-.64-1.13A2.34,2.34,0,0,0,178,390l-1.4.82a2.36,2.36,0,0,0-.85,3.21l.59,1a1.27,1.27,0,0,1-.26,1.58c-.35.32-.69.64-1,1a1.44,1.44,0,0,1-1.76.25l-1.21-.7a2.34,2.34,0,0,0-3.2.86l-.81,1.41a2.36,2.36,0,0,0,.86,3.21l1.17.69a1.44,1.44,0,0,1,.66,1.66q-.12.41-.21.81a1.44,1.44,0,0,1-1.4,1.09H168a2.35,2.35,0,0,0-2.33,2.36v1.63A2.35,2.35,0,0,0,168,413.2h1.11a1.43,1.43,0,0,1,1.4,1.11c.07.28.14.56.22.83a1.45,1.45,0,0,1-.67,1.65l-1.12.66a2.36,2.36,0,0,0-.86,3.21l.81,1.41a2.34,2.34,0,0,0,3.2.87l1.08-.64a1.43,1.43,0,0,1,1.76.26c.29.31.59.61.91.9a1.44,1.44,0,0,1,.26,1.78l-.59,1a2.37,2.37,0,0,0,.85,3.22l1.4.81a2.34,2.34,0,0,0,3.2-.86l.67-1.18a1.42,1.42,0,0,1,1.62-.67l.52.13a1.45,1.45,0,0,1,1.1,1.41v1.27a2.35,2.35,0,0,0,2.34,2.36h1.61a2.35,2.35,0,0,0,2.34-2.36v-1.27a1.45,1.45,0,0,1,1.11-1.41l.55-.14a1.43,1.43,0,0,1,1.63.67l.68,1.19a2.34,2.34,0,0,0,3.2.86l1.4-.81a2.37,2.37,0,0,0,.85-3.22l-.61-1.07a1.47,1.47,0,0,1,.27-1.8c.31-.29.62-.59.91-.91a1.43,1.43,0,0,1,1.77-.27l1.21.71a2.34,2.34,0,0,0,3.2-.87l.81-1.41a2.36,2.36,0,0,0-.86-3.21L206,416.7a1.45,1.45,0,0,1-.66-1.64c.07-.25.13-.5.19-.75a1.43,1.43,0,0,1,1.4-1.11h1.33a2.36,2.36,0,0,0,2.34-2.35v-1.63A2.36,2.36,0,0,0,208.26,406.86Zm-20,14.22a11.25,11.25,0,0,1-11.31-11.38A11.41,11.41,0,0,1,188,398.51a11.25,11.25,0,0,1,11.31,11.38A11.41,11.41,0,0,1,188.23,421.08Z"/><path class="cls-10" d="M208.11,405.72h-1.38a1.42,1.42,0,0,1-1.39-1.09c-.07-.28-.15-.56-.23-.83a1.46,1.46,0,0,1,.66-1.67l1.14-.66a2.36,2.36,0,0,0,.85-3.21l-.81-1.41a2.33,2.33,0,0,0-3.19-.87l-1.18.69a1.44,1.44,0,0,1-1.76-.25c-.23-.24-.48-.48-.73-.71a1.46,1.46,0,0,1-.26-1.79l.61-1.08a2.36,2.36,0,0,0-.85-3.21l-1.4-.82a2.34,2.34,0,0,0-3.2.86l-.68,1.2a1.45,1.45,0,0,1-1.63.67l-.56-.15A1.44,1.44,0,0,1,191,390v-1.28a2.35,2.35,0,0,0-2.34-2.35h-1.61a2.35,2.35,0,0,0-2.34,2.35V390a1.44,1.44,0,0,1-1.1,1.4l-.33.09a1.46,1.46,0,0,1-1.61-.68l-.64-1.13a2.34,2.34,0,0,0-3.2-.86l-1.4.82a2.36,2.36,0,0,0-.85,3.21l.59,1a1.27,1.27,0,0,1-.26,1.58c-.35.32-.69.64-1,1a1.43,1.43,0,0,1-1.76.26l-1.22-.71a2.34,2.34,0,0,0-3.19.87l-.81,1.41a2.36,2.36,0,0,0,.86,3.21l1.17.69a1.44,1.44,0,0,1,.66,1.66c-.08.27-.15.53-.22.81a1.42,1.42,0,0,1-1.39,1.09h-1.16a2.36,2.36,0,0,0-2.34,2.35v1.63a2.36,2.36,0,0,0,2.34,2.36H169a1.43,1.43,0,0,1,1.4,1.11c.07.28.14.56.22.83a1.45,1.45,0,0,1-.67,1.65l-1.12.66a2.36,2.36,0,0,0-.86,3.21l.81,1.41a2.33,2.33,0,0,0,3.19.86l1.09-.63a1.43,1.43,0,0,1,1.76.26c.29.31.59.61.91.9a1.44,1.44,0,0,1,.26,1.78l-.59,1a2.37,2.37,0,0,0,.85,3.22l1.4.81a2.34,2.34,0,0,0,3.2-.86l.67-1.18a1.42,1.42,0,0,1,1.62-.67l.52.13a1.45,1.45,0,0,1,1.1,1.41v1.27a2.35,2.35,0,0,0,2.34,2.36h1.61a2.35,2.35,0,0,0,2.34-2.36V428a1.46,1.46,0,0,1,1.1-1.41l.56-.14a1.42,1.42,0,0,1,1.63.67l.68,1.19a2.34,2.34,0,0,0,3.2.86l1.4-.81a2.37,2.37,0,0,0,.85-3.22l-.61-1.08a1.46,1.46,0,0,1,.27-1.79c.31-.29.62-.59.91-.91a1.43,1.43,0,0,1,1.77-.27l1.21.7a2.34,2.34,0,0,0,3.2-.86l.81-1.41a2.36,2.36,0,0,0-.86-3.21l-1.29-.75a1.45,1.45,0,0,1-.66-1.65c.07-.24.13-.49.19-.74a1.43,1.43,0,0,1,1.4-1.11h1.33a2.35,2.35,0,0,0,2.33-2.36v-1.63A2.35,2.35,0,0,0,208.11,405.72Zm-20,14.22a11.25,11.25,0,0,1-11.31-11.38,11.42,11.42,0,0,1,11.12-11.2,11.26,11.26,0,0,1,11.31,11.39A11.41,11.41,0,0,1,188.08,419.94Z"/><path class="cls-13" d="M197.17,376h-1a1,1,0,0,1-1-.81c-.05-.21-.11-.41-.17-.62a1.07,1.07,0,0,1,.49-1.23l.84-.49a1.76,1.76,0,0,0,.64-2.38l-.6-1.05a1.74,1.74,0,0,0-2.37-.64l-.88.51a1.06,1.06,0,0,1-1.3-.18l-.54-.54a1.07,1.07,0,0,1-.2-1.32l.46-.8a1.76,1.76,0,0,0-.64-2.39l-1-.6a1.72,1.72,0,0,0-2.36.64l-.51.88a1.06,1.06,0,0,1-1.21.5l-.41-.11a1.06,1.06,0,0,1-.82-1v-.94a1.75,1.75,0,0,0-1.73-1.75h-1.2a1.75,1.75,0,0,0-1.74,1.75v.94a1.05,1.05,0,0,1-.81,1l-.24.07a1.08,1.08,0,0,1-1.2-.51l-.48-.83a1.72,1.72,0,0,0-2.36-.64l-1,.6a1.76,1.76,0,0,0-.64,2.39l.44.76a.94.94,0,0,1-.19,1.17c-.26.24-.51.48-.75.73a1.06,1.06,0,0,1-1.31.19l-.9-.52a1.72,1.72,0,0,0-2.36.64l-.6,1.05a1.74,1.74,0,0,0,.63,2.38l.87.51a1.06,1.06,0,0,1,.49,1.23c-.06.2-.11.4-.16.6a1.07,1.07,0,0,1-1,.81h-.86a1.75,1.75,0,0,0-1.74,1.75V379a1.75,1.75,0,0,0,1.74,1.75h.82a1.08,1.08,0,0,1,1,.82c.05.21.1.42.16.62a1.07,1.07,0,0,1-.5,1.22l-.83.49a1.74,1.74,0,0,0-.63,2.38l.6,1.05a1.72,1.72,0,0,0,2.36.64l.81-.47a1.06,1.06,0,0,1,1.31.19c.21.23.43.45.67.67a1.08,1.08,0,0,1,.19,1.32l-.44.77a1.76,1.76,0,0,0,.64,2.39l1,.6a1.72,1.72,0,0,0,2.36-.64l.51-.87a1.06,1.06,0,0,1,1.2-.5l.38.1a1.06,1.06,0,0,1,.81,1v.94a1.75,1.75,0,0,0,1.74,1.75h1.2a1.75,1.75,0,0,0,1.73-1.75v-.94a1.06,1.06,0,0,1,.82-1l.41-.11a1.06,1.06,0,0,1,1.21.5l.51.88a1.72,1.72,0,0,0,2.36.64l1-.6a1.76,1.76,0,0,0,.64-2.39l-.46-.8a1.1,1.1,0,0,1,.2-1.33c.24-.21.46-.44.68-.67a1.05,1.05,0,0,1,1.31-.2l.9.52a1.74,1.74,0,0,0,2.37-.64l.6-1.05a1.75,1.75,0,0,0-.63-2.38l-1-.56a1.05,1.05,0,0,1-.49-1.21c.05-.19.09-.37.14-.56a1.06,1.06,0,0,1,1-.82h1A1.75,1.75,0,0,0,198.9,379v-1.2A1.75,1.75,0,0,0,197.17,376Zm-14.85,10.55a8.35,8.35,0,0,1-8.39-8.45,8.48,8.48,0,0,1,8.25-8.3,8.34,8.34,0,0,1,8.38,8.45A8.46,8.46,0,0,1,182.32,386.58Z"/><path class="cls-10" d="M197.06,375.18h-1a1.07,1.07,0,0,1-1-.81c-.05-.2-.1-.41-.16-.61a1.08,1.08,0,0,1,.49-1.24l.84-.49a1.76,1.76,0,0,0,.64-2.38l-.6-1a1.74,1.74,0,0,0-2.37-.64l-.88.51a1.06,1.06,0,0,1-1.3-.18l-.54-.53a1.08,1.08,0,0,1-.2-1.33l.46-.8a1.76,1.76,0,0,0-.64-2.38l-1-.61a1.74,1.74,0,0,0-2.37.64l-.5.89a1.08,1.08,0,0,1-1.21.5l-.41-.11a1.08,1.08,0,0,1-.82-1.05v-.94a1.75,1.75,0,0,0-1.73-1.75h-1.2a1.75,1.75,0,0,0-1.74,1.75v.94a1.08,1.08,0,0,1-.81,1.05l-.24.06a1.07,1.07,0,0,1-1.2-.5l-.48-.84a1.73,1.73,0,0,0-2.37-.64l-1,.61a1.75,1.75,0,0,0-.63,2.38l.44.77a1,1,0,0,1-.19,1.17,10.31,10.31,0,0,0-.75.73,1.09,1.09,0,0,1-1.31.19l-.9-.53a1.74,1.74,0,0,0-2.37.64l-.6,1a1.76,1.76,0,0,0,.64,2.38l.87.51a1.07,1.07,0,0,1,.49,1.23c-.06.2-.11.4-.16.6a1.07,1.07,0,0,1-1,.81h-.85a1.75,1.75,0,0,0-1.74,1.75v1.21a1.74,1.74,0,0,0,1.74,1.74H168a1.06,1.06,0,0,1,1,.83c.05.2.11.41.17.62a1.08,1.08,0,0,1-.5,1.22l-.83.48a1.77,1.77,0,0,0-.64,2.39l.6,1a1.73,1.73,0,0,0,2.37.64l.81-.47a1.06,1.06,0,0,1,1.3.19c.22.23.44.46.67.67a1.07,1.07,0,0,1,.2,1.32l-.44.78a1.75,1.75,0,0,0,.63,2.38l1,.6a1.73,1.73,0,0,0,2.37-.63l.5-.88a1.07,1.07,0,0,1,1.2-.5l.39.1a1.07,1.07,0,0,1,.81,1v.95a1.74,1.74,0,0,0,1.74,1.74h1.2a1.74,1.74,0,0,0,1.73-1.74v-.95a1.08,1.08,0,0,1,.82-1l.41-.11a1.08,1.08,0,0,1,1.21.5l.5.89a1.73,1.73,0,0,0,2.37.63l1-.6a1.76,1.76,0,0,0,.64-2.38l-.46-.8a1.09,1.09,0,0,1,.2-1.33c.23-.22.46-.44.68-.68a1.06,1.06,0,0,1,1.31-.2l.9.52a1.73,1.73,0,0,0,2.37-.64l.6-1a1.76,1.76,0,0,0-.64-2.39l-1-.55a1.09,1.09,0,0,1-.5-1.22c.06-.18.1-.37.15-.55a1.06,1.06,0,0,1,1-.83h1a1.74,1.74,0,0,0,1.73-1.74v-1.21A1.75,1.75,0,0,0,197.06,375.18Zm-14.85,10.55a8.34,8.34,0,0,1-8.39-8.44,8.47,8.47,0,0,1,8.25-8.3,8.33,8.33,0,0,1,8.38,8.44A8.46,8.46,0,0,1,182.21,385.73Z"/><polygon class="cls-14" points="119.02 307.45 34.37 307.45 22.58 313.89 107.22 313.89 119.02 307.45"/><rect class="cls-15" x="62.73" y="409.24" width="128.73" height="147.73" transform="translate(254.19 966.2) rotate(-180)"/><polygon class="cls-16" points="44.55 552.8 62.73 556.96 62.73 409.24 45 405.07 44.55 552.8"/><polygon class="cls-17" points="45 405.07 173.55 405.07 191.46 409.09 62.91 409.09 45 405.07"/><rect class="cls-18" x="135.63" y="490.28" width="71.09" height="69.9" transform="translate(342.36 1050.45) rotate(-180)"/><polygon class="cls-19" points="125.59 558.2 135.63 560.17 135.63 490.28 125.84 488.31 125.59 558.2"/><polygon class="cls-20" points="125.84 488.31 196.83 488.31 206.72 490.21 135.74 490.21 125.84 488.31"/><polygon class="cls-12" points="98.56 307.72 70.13 307.72 70.13 276.31 98.52 276.31 98.56 307.72"/><polygon class="cls-21" points="102.47 275.45 74.09 275.45 70.13 276.31 98.52 276.31 102.47 275.45"/><polygon class="cls-12" points="94.69 308.37 66.27 308.88 66.27 287.56 94.69 287.56 94.69 308.37"/><polygon class="cls-21" points="98.61 286.95 70.22 286.95 66.27 287.53 94.65 287.53 98.61 286.95"/><rect class="cls-12" x="62.45" y="298.3" width="28.43" height="11.11"/><polygon class="cls-22" points="94.69 297.99 94.69 287.56 98.56 286.96 98.56 276.35 102.47 275.45 102.57 307.34 97.53 306.59 100.01 306.14 102.56 303.85 102.57 307.34 90.88 309.4 90.88 298.3 94.69 297.99"/><polygon class="cls-21" points="94.8 297.98 66.41 297.98 62.45 298.29 90.84 298.29 94.8 297.98"/><polygon class="cls-12" points="182.03 560.83 210.45 560.83 210.45 529.43 182.07 529.43 182.03 560.83"/><polygon class="cls-21" points="178.11 528.56 206.5 528.56 210.45 529.43 182.07 529.43 178.11 528.56"/><polygon class="cls-12" points="185.89 561.48 214.31 561.99 214.31 540.67 185.89 540.67 185.89 561.48"/><polygon class="cls-21" points="181.97 540.07 210.36 540.07 214.31 540.65 185.93 540.65 181.97 540.07"/><rect class="cls-12" x="189.7" y="551.41" width="28.43" height="11.11" transform="translate(407.83 1113.93) rotate(-180)"/><polygon class="cls-22" points="185.89 551.11 185.89 540.67 182.03 540.08 182.03 529.46 178.11 528.56 178.01 560.45 183.05 559.71 180.57 559.26 178.02 556.96 178.01 560.45 189.7 562.52 189.7 551.41 185.89 551.11"/><polygon class="cls-21" points="185.79 551.1 214.17 551.1 218.13 551.4 189.74 551.4 185.79 551.1"/><polygon class="cls-23" points="53.53 503.03 83.12 503.03 97.92 528.43 83.12 553.83 53.53 553.83 46.8 506.26 53.53 503.03"/><polygon class="cls-11" points="120.74 467.11 98.46 476.86 77.79 464.02 71.06 467.25 80.17 488.23 61.58 503.91 85.34 509.13 94.51 531.66 106.82 510.68 124.35 512.14 131.08 508.92 114.92 490.73 120.74 467.11"/><polygon class="cls-22" points="134.43 560.07 127.7 563.29 93.34 534.11 100.09 513.91 106.68 510.67 134.43 560.07"/><polygon class="cls-14" points="98.8 476.86 78.14 464.02 71.41 467.25 80.52 488.23 99.77 490.73 98.8 476.86"/><polygon class="cls-5" points="46.8 506.26 76.39 506.26 91.19 531.66 76.39 557.06 46.8 557.06 32 531.66 46.8 506.26"/><polygon class="cls-10" points="114.02 470.34 91.73 480.08 71.06 467.25 73.44 491.46 54.85 507.14 78.61 512.36 87.78 534.89 100.09 513.91 124.35 512.14 108.19 493.96 114.02 470.34"/><polygon class="cls-12" points="127.7 563.29 71.83 563.29 99.95 513.9 127.7 563.29"/><rect class="cls-4" x="152.81" y="378.82" width="13.31" height="12.62" rx="6.31" transform="translate(29.2 -10.83) rotate(4.28)"/><rect class="cls-8" x="151.69" y="378.65" width="13.31" height="12.62" rx="6.31" transform="translate(29.18 -10.75) rotate(4.28)"/><path class="cls-24" d="M195.59,476.32c.07-.56,3.12-1.33,4.21-.48a6.19,6.19,0,0,1,1.51,6.11c-.92,2.19-.18,2.38.3,2.74a6.27,6.27,0,0,1-4.16.68c-2.78-.3-2.14-2.38-2.14-2.38Z"/><path class="cls-25" d="M200.7,485.67c-1.19-.31-2.39-.19-2.81-.38-.27-.13-.85-.12-.25-1.27s1.55-1.82,1.45-2.66-2-4.51-3.93-4.39c0,0-2.5.41-2.31,3.64.11,1.88.32,3.26.87,3.77.27.26.91.21,1.13.25s.16.39,0,.5c-.38.24-2.44,0-2.64.3s-.54,2.42.38,2.76a14.49,14.49,0,0,0,4.29.45C197.89,488.55,200.7,485.67,200.7,485.67Z"/><path class="cls-24" d="M196.91,478.74s-2.3,2-4.23,1.51c-1.06-.26,0-2.49.83-3.38s3.09-.61,3.47-.48a3.71,3.71,0,0,1,2.35,2.18c1,2.62-.85,5.39-1.33,4.7-.21-.3,1.11-.9.69-2.11-.16-.46-.94.2-.94.2C197.07,481,196.91,478.74,196.91,478.74Z"/><circle class="cls-26" cx="193.59" cy="481.16" r="0.91"/><circle class="cls-26" cx="195.78" cy="481.52" r="0.97"/><path class="cls-26" d="M194.49,481.36c.23-.21.12-.15.33,0"/><polygon class="cls-25" points="195.05 524.73 194.97 527.95 194.21 529.1 192.96 528.03 193.56 524.73 195.05 524.73"/><path class="cls-24" d="M194.84,529.72h-.42c-.41,0-.08-.6-.87-.74-.14,0-1,.74-1.24.74a8.89,8.89,0,0,1-1.92-.15c0-.12-.39-.89.34-.9s2.34-1.84,2.51-1.8-.12.66.67.79,1-.5,1.07-.43A15.46,15.46,0,0,1,194.84,529.72Z"/><path class="cls-25" d="M192.65,527.34a.62.62,0,0,1,.11.95,1.74,1.74,0,0,1-.76.53c-.11,0-.66.12-.84-.29A10.3,10.3,0,0,0,192.65,527.34Z"/><path class="cls-27" d="M192.15,500.37s-.22,13.9-.07,14.91.95,9.05.87,9.77,2,1.23,2.39.29,1.06-10.17.35-11.33,3.61-14,3.61-14Z"/><polygon class="cls-25" points="206.51 508 208.03 507.08 209.35 507.02 209.03 508.51 206.41 509.41 206.51 508"/><path class="cls-24" d="M210.21,505.83l.22.36c.23.35-.45.39-.15,1.13.05.13,1.16.45,1.29.65a9.19,9.19,0,0,1,.9,1.7c-.1.06-.54.8-.94.19s-2.81-1-2.87-1.15.62-.26.3-1-.93-.53-.93-.68A17.64,17.64,0,0,1,210.21,505.83Z"/><path class="cls-25" d="M209.37,509a.63.63,0,0,1,.75-.61,1.88,1.88,0,0,1,.85.36c.09.07.46.5.21.87A9.05,9.05,0,0,0,209.37,509Z"/><path class="cls-28" d="M192.15,500.37c.23,1.81,1.25,14.29,3.19,14.87s13.27-5.41,12.83-6-1.08-1.7-1.8-1.43-6.18,2.7-7.48,2.77.28-5.38.41-6.53.94-2.89,0-4S192.15,500.37,192.15,500.37Z"/><path class="cls-25" d="M186.06,490.25s-2.73-1.28-3.09-2.14-.63-.95-.76-1.05c-.48-.36-.81-.74-.72-.48a6.62,6.62,0,0,1,0,1,.14.14,0,0,1-.07.14l-.39.21c-.09.05-.59.33-.89.47s.73.57,1.12.62c.61.08,1.85,1.32,4.06,4.17C185.48,493.39,186.06,490.25,186.06,490.25Z"/><path class="cls-25" d="M181.52,486.51c-.3-.23-.74-.77-.8-.65a.48.48,0,0,0,0,.49,1.44,1.44,0,0,0,.41.47,5.71,5.71,0,0,1,.38.85"/><path class="cls-11" d="M192.18,485.43c-1.15.24-4.28,5.39-4.88,5.67s-.65-.73-1.24-.85-1.13,2.42-.73,2.95c.68.91,1.65,1.61,2.48,1.31s3.71-4.16,3.72-4a1.94,1.94,0,0,0,1,2.26c1,.45.26,4.72-.22,7.25,0,.15-.12.25-.13.36-.08,1.61,7.47.48,7.39,0-1-5.61-.65-9.93.63-11s3.94-.87,5.32-1.28c.92-.27,2-2,2.47-2.54.73-.94-1.36-1.92-1.94-1.82s-1.16,1.69-2.06,1.66-4.17.06-4.83,0-2.78,2.58-4,2.58S193.33,485.19,192.18,485.43Z"/><path class="cls-25" d="M209.05,478.9a.57.57,0,0,1,0-.46,6.19,6.19,0,0,1,.75-1.2c.37-.38.53-.66.7-.63s-.08.44-.21.64a1.41,1.41,0,0,0-.19.51c0,.15,2.31-1.27,2.56-1s-1.51.91-1.55,1,1.89-1,2.09-.66-1.75.87-1.77,1.07,2-.94,2.11-.65-1.92.89-2,1,1.43-.62,1.47-.37-1.61,1-1.93,1.14a7.61,7.61,0,0,1-1.48.57C209.51,479.92,209.2,479.26,209.05,478.9Z"/><path class="cls-25" d="M206,483.77c-.11.57,1.62,1.56,2.09,1.48s1.42-5.35,1.85-5.4-.53-1.83-.9-1.41S206,483.77,206,483.77Z"/><rect class="cls-29" x="185.61" y="522.11" width="5.68" height="4" transform="translate(494.93 989.18) rotate(166.39)"/><rect class="cls-30" x="184.99" y="522.16" width="6.13" height="0.6" rx="0.3" transform="translate(493.75 986.01) rotate(166.39)"/><rect class="cls-30" x="185.79" y="525.47" width="6.13" height="0.6" rx="0.3" transform="translate(496.1 992.34) rotate(166.39)"/><rect class="cls-30" x="185.39" y="523.81" width="6.13" height="0.6" rx="0.3" transform="translate(494.93 989.18) rotate(166.39)"/><rect class="cls-10" x="186.51" y="526.01" width="5.68" height="3.6" transform="translate(497.56 996.25) rotate(166.39)"/><polygon class="cls-31" points="173.77 463.45 173.66 475.06 178.09 481.29 179.18 473.73 173.77 463.45"/><path class="cls-6" d="M174.27,474.22c.55-.13,1.19.55,1.42,1.51l2-.48c-.24-1,0-1.85.57-2a1,1,0,0,1,.93.47l.26,1.1.27,1.1,11,45.57-5.52,1.34-11-45.58-.27-1.1-.26-1.1A1,1,0,0,1,174.27,474.22Z"/><path class="cls-5" d="M176.26,473.74c.55-.13,1.18.55,1.42,1.52L189,521.93l-2,.48-11.3-46.67C175.46,474.77,175.71,473.88,176.26,473.74Z"/><path class="cls-24" d="M173.77,463.45s1.09,2.11,1.61,3.07-1.65,1.16-1.65.59Z"/><polygon class="cls-32" points="149.24 558.77 149.3 560.87 150.48 562.24 152.44 560.98 151.28 557.76 149.24 558.77"/><path class="cls-24" d="M149.3,562.73a4,4,0,0,0,1.29.39c.5,0,1.75-.19,1.91-.19s1.88.19,2.17.19,1.44,0,1.44-.19.27-1.62-.6-1.64a33.54,33.54,0,0,1-3.41-1c-.21,0-.47.88-1.41,1s-1.24-.51-1.39-.42A8.25,8.25,0,0,0,149.3,562.73Z"/><polygon class="cls-32" points="140.14 557.46 138.95 559.19 139.09 560.99 141.42 561.13 142.38 557.86 140.14 557.46"/><path class="cls-5" d="M146.09,546.89,142,559.14l-3.36-.75s2.21-12.93,2.37-13.47a63.89,63.89,0,0,1,4.17-13.87c.08-.21,4.81.83,4.81.83l-.09,4.48-2.12,5.07Z"/><path class="cls-32" d="M142.47,515.42c.61-.21.08-.59.59-.67a11,11,0,0,0,1.58-.18c.28-.16.91-.77.19-1.91s-1.35-1.77-1.32-2.65,1.65-4.87,3.72-4.91c0,0,2.65.21,2.72,3.59.05,2,0,3.43-.58,4-.27.29-.93.29-1.16.36s-.21.76,0,.87a5.51,5.51,0,0,0,1.53.29c1,0,1.3.15,1.42.32s.37,3-.56,3.47a14.75,14.75,0,0,1-4.43.84C145.08,518.85,142.47,515.42,142.47,515.42Z"/><path class="cls-24" d="M145.58,508.54a7.42,7.42,0,0,0,4-.77c1.39-1,.27-1.86-.83-2.48a8.3,8.3,0,0,0-4.24-.46c-1.18.35-1.22,1-1.59,1.37s-.84.76-1,1.25.3.8.28,1.14c0,.55-.85.65-.81,1.15.06.9.87.9.9,1.26s-.67,1.49-.08,1.86a2.23,2.23,0,0,0,2.9-.23c.3-.4.05-.83-.2-1.18s-1.43-.91-.66-2.14c.36-.58,1.11.71,1.11.71A1.15,1.15,0,0,0,145.58,508.54Z"/><path class="cls-5" d="M148,547.34l.88,12.23,3.45.07s.95-13.07.92-13.64a64.42,64.42,0,0,0-.72-14.47,38.62,38.62,0,0,0-4.88-.34l-1,4.37.84,5.43Z"/><path class="cls-32" d="M165.37,506.29a8.4,8.4,0,0,1,.11-1.9c.17-.58.18-.95.36-1s.16.49.14.76a1.55,1.55,0,0,0,.08.62c.05.16,1.65-2.52,2.05-2.41.2.06-1.05,1.73-1,1.88s1.38-2,1.76-1.79-1.3,1.82-1.21,2,1.52-2,1.78-1.79-1.46,1.92-1.41,2.1,1.11-1.4,1.28-1.17-1.09,1.88-1.34,2.19a8.53,8.53,0,0,1-1.19,1.37C166.54,507.29,165.37,506.29,165.37,506.29Z"/><path class="cls-28" d="M150.91,514.29c-.39.76-1.37,2.35-.11,3.8s11.36-2.72,12.23-3.92,4.54-6.94,4.42-7.4-1.83-.51-2.21-.45-3.49,5.12-4.21,5.48S150.91,514.29,150.91,514.29Z"/><path class="cls-28" d="M142.29,514.88c-1.86,1.15-.44,4.84-.07,5.84s1.65,12.5,2.07,12.84,8.8,0,9-.71-1.14-7.2-.52-12.42c.07-.64,1.43-6.71-.16-6.49-1,.14-2.21.1-3,.32s-2.18,2.28-2.55,2.28a28.65,28.65,0,0,0-3-1.79,4.36,4.36,0,0,0-1.71.13"/><path class="cls-28" d="M144.66,515c-.34-.51-1.34-.53-1.53-.54-.93,0-1.95.68-2.71,2.22-1.31,2.65-3.27,9.58-2.3,10.69,1.21,1.4,7.59,4.38,8,4.08s.94-1.28.73-1.61-5.68-3.35-5.34-4.37C141.7,524.83,145.87,516.84,144.66,515Z"/><path class="cls-24" d="M138.22,560.35a2.88,2.88,0,0,0,.68,1.23,13.63,13.63,0,0,1,1.15,1.37c.13.09.92,1.22,1.15,1.38s.74.88,1.12.94c1.16.19,2.56-.37,2.06-1.43-.17-.36-.61-.72-1.09-1.6s-1.13-2.55-1.24-2.6-.88.47-1.8.71-1.13-1.15-1.3-1.16S138.22,560.35,138.22,560.35Z"/><rect class="cls-33" x="147.65" y="529.96" width="2.92" height="0.91" transform="translate(369.53 1035.39) rotate(172.12)"/><rect class="cls-33" x="149.83" y="520.92" width="13.55" height="9.27" transform="translate(355.93 1036.44) rotate(175.28)"/><path class="cls-32" d="M146.63,529.93a8.07,8.07,0,0,1,1.88-.33c.6,0,1,0,1.07.13s-.45.26-.71.3a1.58,1.58,0,0,0-.59.22c-.14.09,2.21.24,2.19.64,0,.22-1.3.18-1.44.25s1.24-.27,1.1.16-1,.29-1.22.43,1-.33.82,0-.88.36-1,.45.83-.35.65-.13a2.64,2.64,0,0,1-1.67.3,9,9,0,0,1-1.6-.84C145.92,531.3,146.63,529.93,146.63,529.93Z"/><path class="cls-30" d="M155.8,526.27a.52.52,0,0,0,.47-.26.63.63,0,0,0-.57-1h0a1.25,1.25,0,0,1,1.27-.72,1.23,1.23,0,1,1-1.14,1.94Z"/><path class="cls-34" d="M192.59,439.33c-10.1-8.64-30.6-17.09-36.52-18.58a.47.47,0,0,1-.24-.76c.54-.63.83-.94,1.92-2.17a.27.27,0,0,0-.19-.45c-7.81-.34-20.54-.7-29.31-.73a.27.27,0,0,0-.18.47c6.24,5.54,10,8.72,19.89,16.58a.43.43,0,0,0,.63-.11c.5-.85.65-1.12,1.59-2.83a.72.72,0,0,1,.67-.37c5.85.3,33.43,11,41.74,26.11Z"/><path class="cls-34" d="M191.46,453.12c-10.1-8.64-30.6-17.09-36.52-18.58a.47.47,0,0,1-.24-.76c.54-.63.84-.94,1.93-2.17a.27.27,0,0,0-.2-.45c-7.81-.34-20.54-.7-29.31-.73a.27.27,0,0,0-.18.47c6.24,5.54,10,8.72,19.89,16.58a.43.43,0,0,0,.63-.11c.5-.85.65-1.12,1.59-2.83a.72.72,0,0,1,.67-.37c5.85.3,33.43,11,41.74,26.11Z"/><path class="cls-35" d="M193.82,474.78a13.06,13.06,0,0,1-2.36,4.23V464.1c0-.91,3.36,3.35,3.36,3.35Z"/><path class="cls-11" d="M154.94,429.57a.47.47,0,0,1-.24-.76c.54-.63.83-.94,1.93-2.17a.27.27,0,0,0,.06-.12h0l.21-1.06-4,.31.27.31c-7.11-.28-16.6-.53-24-.59l-2.07-.89-.2,1h0a.26.26,0,0,0,.06.32c6.24,5.54,10,8.72,19.89,16.58a.43.43,0,0,0,.63-.11c.5-.85.65-1.12,1.59-2.83a.72.72,0,0,1,.67-.37c7,.36,45.2,15.58,44.1,35.58l3.28-17C199.18,447,163.12,431.64,154.94,429.57Z"/><path class="cls-10" d="M194,473.71l3.29-17c2.08-10.77-34-26.13-42.16-28.19a.47.47,0,0,1-.25-.76c.55-.63.84-.94,1.93-2.17a.27.27,0,0,0-.19-.45c-7.82-.35-20.55-.7-29.31-.73a.27.27,0,0,0-.18.47c6.24,5.53,10,8.71,19.89,16.58a.43.43,0,0,0,.63-.11c.5-.86.65-1.13,1.58-2.83a.7.7,0,0,1,.68-.37C156.93,438.5,195.12,453.72,194,473.71Z"/><path class="cls-36" d="M155.79,428.68c-.34-.09-.5-.14-.8-.2.54-.63,1.35-1.67,2.44-2.9a.27.27,0,0,0-.19-.45c-5.51-.25-13.46-.49-20.75-.63,3.4,2.88,7.14,5.92,13.08,10.66a.43.43,0,0,0,.63-.11c.5-.85.65-1.12,1.59-2.83a.72.72,0,0,1,.67-.37c6.64.34,40.94,13.12,43.54,31.6.42-2.16.42-3.37,1-6.39C199,445.79,164,430.75,155.79,428.68Z"/><path class="cls-11" d="M157.57,417a.46.46,0,0,1-.24-.75c.54-.63.83-.94,1.92-2.17a.24.24,0,0,0,.07-.13h0l.21-1.07-4,.31.28.31c-7.11-.27-16.6-.52-24-.58l-2.07-.9-.19,1h0a.28.28,0,0,0,.06.33c6.24,5.53,10,8.71,19.89,16.58a.42.42,0,0,0,.63-.12c.5-.85.65-1.12,1.58-2.82a.71.71,0,0,1,.68-.37c7,.36,45.19,15.57,44.09,35.57l3.29-17C201.81,434.38,165.75,419,157.57,417Z"/><path class="cls-10" d="M196.65,461.1l3.29-17c2.07-10.76-34-26.12-42.17-28.19a.47.47,0,0,1-.24-.76c.55-.63.84-.94,1.93-2.16a.28.28,0,0,0-.19-.46c-7.82-.34-20.55-.7-29.31-.73a.27.27,0,0,0-.18.47c6.24,5.54,10,8.72,19.89,16.58a.42.42,0,0,0,.63-.11c.49-.85.65-1.12,1.58-2.83a.74.74,0,0,1,.67-.37C159.56,425.88,197.75,441.1,196.65,461.1Z"/><path class="cls-37" d="M170.25,331.14s18,.78,21.2,1.17c1.33.15,1.73.76,2.45,2-5.35-.34-14.4.35-19.13-.66C171.08,332.89,170.25,331.14,170.25,331.14Z"/><path class="cls-38" d="M144.2,330.12c-12.88,3.63-9.1,23.49-9.62,30.94-.5,7.11.23,32.95-12.23,40.84,9.28,4,44,6.84,54.19,6.84,3.67,0,7.88-30.32,6.91-43.53-.87-11.78-2.5-30.74,8.18-32.84C179.41,330.85,144.2,330.12,144.2,330.12Z"/><path class="cls-37" d="M176.37,408.67c-1.83.33-4.17-1.95-4.17-1.95-10.14-1.13-45-9.11-51.77-9.78-.28,2.75-.65,2.95,1.72,5.28C126.52,406.52,175.69,408.94,176.37,408.67Z"/><path class="cls-39" d="M183.26,362.36c1.45-.05,1.65-.5,1.66-1.52a1.76,1.76,0,0,0-1.76-1.93c-1-.05-9.4-.59-10.06-.59a1.76,1.76,0,0,0-1.85,1.77,1.78,1.78,0,0,0,1.9,1.94c1.11.05,6.6.28,7.31.28a1.29,1.29,0,0,0,1.48-1.38c0-1-.85-1.28-1.54-1.34l-6.78-.39a1,1,0,0,0-1.26,1.05c0,.73.55.93,1.2,1l1.32.06c1.15.05,2.64.1,3.13.14"/><line class="cls-39" x1="178.12" y1="361.44" x2="177.7" y2="361.42"/><path class="cls-10" d="M183.41,331.64c-3.71,1.64-5.76,7.55-6.37,11.27a.2.2,0,0,1-.38.07c-1.14-1.94-2-3.08-2.65-4.09a.29.29,0,0,0-.45-.05,26.57,26.57,0,0,0-3.24,3.21.2.2,0,0,1-.35-.13c.14-3.18,1.42-10.92,4.61-10.78C179.67,331.38,183.41,331.64,183.41,331.64Z"/><ellipse class="cls-40" cx="147.92" cy="347.19" rx="10.16" ry="8.16" transform="translate(-209.34 468.78) rotate(-85.72)"/><ellipse class="cls-38" cx="148.13" cy="344.49" rx="3.82" ry="3.06" transform="translate(-206.46 466.48) rotate(-85.72)"/><ellipse class="cls-38" cx="147.43" cy="353.82" rx="5.04" ry="6.88" transform="translate(-216.41 474.42) rotate(-85.72)"/><ellipse class="cls-41" cx="147.92" cy="347.19" rx="10.16" ry="8.16" transform="translate(-209.34 468.78) rotate(-85.72)"/><line class="cls-42" x1="159.3" y1="346.06" x2="177.15" y2="347.19"/><line class="cls-42" x1="159.04" y1="350.17" x2="176.89" y2="351.3"/><line class="cls-42" x1="158.78" y1="354.28" x2="168.99" y2="354.92"/><line class="cls-43" x1="140.24" y1="363.25" x2="177.52" y2="365.61"/><line class="cls-43" x1="140.05" y1="366.22" x2="177.46" y2="368.59"/><line class="cls-43" x1="140.05" y1="369.43" x2="159.16" y2="370.64"/><rect class="cls-28" x="139.48" y="373.46" width="3.56" height="3.56" rx="0.92" transform="translate(23.95 -8.16) rotate(3.62)"/><rect class="cls-28" x="157.71" y="374.61" width="3.56" height="3.56" rx="0.92" transform="translate(24.06 -9.31) rotate(3.62)"/><line class="cls-44" x1="144.78" y1="375.38" x2="153.62" y2="375.94"/><line class="cls-44" x1="163.54" y1="376.56" x2="172.39" y2="377.12"/><rect class="cls-45" x="138.4" y="381.52" width="3.56" height="3.56" rx="1.78" transform="translate(49.93 -14.73) rotate(7.31)"/><path class="cls-10" d="M139.39,382.57a.32.32,0,0,1,.21.1,1.49,1.49,0,0,1,.3.41,2,2,0,0,1,.13.34l0,.05.05,0,.19-.26a5.14,5.14,0,0,1,1.71-1.57,2.43,2.43,0,0,1,.37-.16h.14l0,0s0,0,0,0l-.18.16a7.17,7.17,0,0,0-1.84,2.22,2.8,2.8,0,0,0-.19.43.2.2,0,0,1,0,.08.66.66,0,0,1-.49.24h-.05a.11.11,0,0,1-.1-.1,3.3,3.3,0,0,0-.2-.63,2.66,2.66,0,0,0-.42-.71,1.07,1.07,0,0,0-.36-.28l-.06,0s0,0,0-.06l.06-.06a1.12,1.12,0,0,1,.42-.18A.64.64,0,0,1,139.39,382.57Z"/><rect class="cls-45" x="137.3" y="387.81" width="3.56" height="3.56" rx="1.78" transform="translate(76.39 -19.3) rotate(10.93)"/><path class="cls-10" d="M138.34,388.81a.39.39,0,0,1,.2.12,1.63,1.63,0,0,1,.38.77l0,.06.05,0,.2-.25A5.13,5.13,0,0,1,141,388a1.32,1.32,0,0,1,.38-.13h.14s0,0,0,0,0,0,0,0l-.19.15a6.93,6.93,0,0,0-2,2.09,2.74,2.74,0,0,0-.21.42.16.16,0,0,1-.06.08.65.65,0,0,1-.49.21h-.06a.12.12,0,0,1-.09-.1,2.94,2.94,0,0,0-.16-.65,2.54,2.54,0,0,0-.38-.73,1,1,0,0,0-.34-.3l0,0a0,0,0,0,1,0-.06l.05,0a1.17,1.17,0,0,1,.44-.16A.81.81,0,0,1,138.34,388.81Z"/><rect class="cls-45" x="135.77" y="393.92" width="3.56" height="3.56" rx="1.78" transform="matrix(0.97, 0.25, -0.25, 0.97, 104.38, -21.91)"/><path class="cls-10" d="M136.85,394.88a.32.32,0,0,1,.2.13,1.45,1.45,0,0,1,.24.44,1.9,1.9,0,0,1,.09.36s0,0,0,.05l.05,0,.22-.24a5.13,5.13,0,0,1,1.9-1.34,1.26,1.26,0,0,1,.38-.1.33.33,0,0,1,.14,0l0,0s0,0,0,0l-.2.14a7,7,0,0,0-2.1,2,2.1,2.1,0,0,0-.24.41s0,0-.06.08a.73.73,0,0,1-.51.17h0c-.06,0-.09-.05-.09-.11a3.53,3.53,0,0,0-.11-.65,2.6,2.6,0,0,0-.34-.76.89.89,0,0,0-.32-.32l0,0s0,0,0-.06l.06-.05a1.17,1.17,0,0,1,.45-.13A.79.79,0,0,1,136.85,394.88Z"/><line class="cls-43" x1="144.61" y1="382.91" x2="177.32" y2="385.76"/><line class="cls-43" x1="144.47" y1="384.64" x2="165.7" y2="386.48"/><line class="cls-43" x1="144.03" y1="389.55" x2="175.59" y2="392.69"/><line class="cls-43" x1="143.87" y1="391.4" x2="150.35" y2="392.2"/><line class="cls-43" x1="142.84" y1="395.88" x2="174.68" y2="399.88"/><line class="cls-43" x1="142.57" y1="397.64" x2="171.68" y2="401.38"/><path class="cls-34" d="M21.65,356.1c10.11-8.64,30.61-17.09,36.52-18.58a.47.47,0,0,0,.25-.76c-.55-.63-.84-.94-1.93-2.17a.27.27,0,0,1,.19-.45c7.81-.34,20.55-.7,29.31-.73a.27.27,0,0,1,.18.47c-6.24,5.54-10,8.72-19.89,16.58a.43.43,0,0,1-.63-.11c-.5-.85-.65-1.12-1.58-2.83a.75.75,0,0,0-.68-.37c-5.84.3-33.43,11-41.74,26.11Z"/><path class="cls-34" d="M24.17,368.5c10.11-8.63,30.61-17.08,36.53-18.58a.46.46,0,0,0,.24-.75c-.54-.64-.84-.94-1.93-2.17a.27.27,0,0,1,.19-.45c7.82-.35,20.55-.7,29.32-.74a.28.28,0,0,1,.18.48c-6.25,5.53-10,8.71-19.89,16.58a.42.42,0,0,1-.63-.12c-.5-.85-.65-1.12-1.59-2.82a.69.69,0,0,0-.67-.37c-5.85.3-33.44,10.95-41.75,26.1Z"/><path class="cls-6" d="M21.82,390.16a13.22,13.22,0,0,0,2.35,4.24V379.49c0-.91-3.35,3.34-3.35,3.34Z"/><path class="cls-6" d="M60.7,345a.46.46,0,0,0,.24-.75c-.54-.63-.84-.94-1.93-2.17a.31.31,0,0,1-.06-.13h0l-.21-1.07,4,.31-.28.31c7.12-.27,16.61-.52,24-.58l2.07-.9.2,1h0a.28.28,0,0,1-.06.33c-6.25,5.53-10,8.71-19.89,16.58a.43.43,0,0,1-.63-.11c-.5-.86-.65-1.13-1.59-2.83a.69.69,0,0,0-.67-.37c-7,.36-45.2,15.57-44.1,35.57l-3.28-17C16.46,362.38,52.52,347,60.7,345Z"/><path class="cls-5" d="M21.62,389.1l-3.29-17c-2.08-10.76,34-26.12,42.16-28.19a.47.47,0,0,0,.24-.76c-.54-.63-.83-.94-1.92-2.16a.27.27,0,0,1,.19-.46c7.81-.34,20.54-.7,29.31-.73a.27.27,0,0,1,.18.47c-6.24,5.54-10,8.72-19.89,16.58a.42.42,0,0,1-.63-.11c-.5-.85-.65-1.12-1.58-2.83a.75.75,0,0,0-.68-.37C58.71,353.88,20.52,369.1,21.62,389.1Z"/><path class="cls-36" d="M59.85,344.07l.8-.21c-.54-.63-1.35-1.67-2.44-2.89a.27.27,0,0,1,.19-.46c5.51-.24,13.46-.49,20.75-.62-3.41,2.87-7.15,5.91-13.08,10.66a.43.43,0,0,1-.63-.12c-.5-.85-.65-1.12-1.59-2.82a.69.69,0,0,0-.67-.37c-6.65.34-40.94,13.11-43.55,31.59-.41-2.15-.42-3.36-1-6.39C16.62,361.17,51.67,346.13,59.85,344.07Z"/><path class="cls-6" d="M58.07,332.34a.47.47,0,0,0,.24-.76c-.54-.63-.84-.94-1.93-2.17a.27.27,0,0,1-.06-.12h0l-.21-1.06,4,.31-.28.31c7.12-.27,16.61-.52,24-.59l2.07-.89.2,1h0a.26.26,0,0,1-.06.32c-6.25,5.54-10,8.72-19.89,16.58a.43.43,0,0,1-.63-.11c-.5-.85-.65-1.12-1.59-2.83a.72.72,0,0,0-.67-.37c-7,.36-45.2,15.58-44.1,35.58l-3.28-17C13.83,349.77,49.89,334.41,58.07,332.34Z"/><path class="cls-5" d="M19,376.48l-3.29-17c-2.08-10.77,34-26.13,42.16-28.19a.47.47,0,0,0,.25-.76c-.55-.63-.84-.94-1.93-2.17a.27.27,0,0,1,.19-.45c7.81-.35,20.55-.7,29.31-.73a.27.27,0,0,1,.18.47c-6.24,5.54-10,8.71-19.89,16.58a.43.43,0,0,1-.63-.11c-.5-.85-.65-1.13-1.58-2.83a.73.73,0,0,0-.68-.37C56.08,341.27,17.89,356.49,19,376.48Z"/><path class="cls-27" d="M104.69,364.52c-.66.28-1.86,3.53-.54,4.45,3,2.12,4.56,3.84,6.36,4.1,1.16.17,6.21,1.41,6.38,1.05s.35-1.41.07-1.58-5.36-1.66-6-1.81S104.69,364.52,104.69,364.52Z"/><polygon class="cls-46" points="103.36 404 103.4 405.77 104.05 406.92 105.14 405.86 104.5 403.16 103.36 404"/><polygon class="cls-46" points="110.99 404.68 111.03 406.45 111.79 407.6 113.05 406.54 112.3 403.84 110.99 404.68"/><path class="cls-24" d="M111.16,408.22h.42c.42,0,.09-.59.87-.73.14,0,1,.73,1.24.73a8.3,8.3,0,0,0,1.92-.15c0-.12.39-.88-.34-.9s-2.34-1.84-2.51-1.8.12.66-.67.79-1-.5-1.07-.42A16.56,16.56,0,0,0,111.16,408.22Z"/><path class="cls-28" d="M111.91,393a85,85,0,0,0-4.76-14,40.79,40.79,0,0,0-4.91-.52l-.21,3.85a3.83,3.83,0,0,0,0,1.07,24.64,24.64,0,0,0,.78,3.44,4.17,4.17,0,0,1,.19,1.44l-.14,3.59c-.19,1.76-.43,13,0,13.62L114,404.42"/><path class="cls-46" d="M102.76,364.31c.31-1.79.3-4.86.48-5.71a3.25,3.25,0,0,1,1.83-2.43c1-.34,3.85.18,4.16,1.34s.19,5-.85,5.21c-.73.17-1.38-.18-1.94,0-.34.09-.83,1.29-.72,2.19S102.76,364.31,102.76,364.31Z"/><path class="cls-28" d="M103,363.82c-1.12,1.32-1.06,5.6-.89,6.7.21,1.28-.13,7.47.21,7.9s4.41,1.2,4.73.48-.29-5.32,0-7.28c.07-.54,1.2-1.2,1.29-2.44,0-.73.11-1.55-1.9-4.27"/><path class="cls-5" d="M118.1,375.33l-4.24-4.25L78.49,406.45h0a9.46,9.46,0,0,0,4,4.11l.26.14Z"/><rect class="cls-47" x="114.39" y="369.79" width="6" height="4" transform="translate(297.28 25.88) rotate(45)"/><rect class="cls-40" x="120.1" y="362.08" width="4" height="10" transform="translate(295.33 21.18) rotate(45)"/><circle class="cls-47" cx="143.75" cy="345.44" r="26.01"/><circle class="cls-48" cx="143.75" cy="345.44" r="23.01"/><g class="cls-49"><g class="cls-50"><g class="cls-51"><g class="cls-52"><rect class="cls-53" x="120.51" y="322.18" width="46.62" height="46.62"/><rect class="cls-8" x="120.51" y="322.18" width="46.62" height="46.62"/></g><g class="cls-54"><g class="cls-52"><rect class="cls-38" x="120.51" y="322.18" width="46.62" height="46.62"/></g></g><g class="cls-55"><g class="cls-52"><rect class="cls-40" x="133.09" y="329.46" width="28.47" height="35.07"/></g></g><g class="cls-56"><g class="cls-52"><rect class="cls-38" x="142.28" y="335.78" width="11.08" height="13.61"/></g></g><g class="cls-57"><g class="cls-52"><rect class="cls-38" x="134.79" y="348.97" width="23.87" height="17.85"/></g></g><g class="cls-52"><path class="cls-41" d="M134,346c-.68,9.27,4.73,17.23,12.11,17.79S160,357.26,160.67,348s-4.73-17.23-12.11-17.79S134.66,336.72,134,346Z"/><line class="cls-58" x1="166.13" y1="345.19" x2="195.34" y2="346.79"/><line class="cls-58" x1="165.73" y1="351.99" x2="194.94" y2="353.59"/><line class="cls-58" x1="165.33" y1="358.8" x2="182.14" y2="359.8"/></g></g></g></g><circle class="cls-59" cx="143.84" cy="345.58" r="23.15"/><path class="cls-46" d="M113.08,376.73a.53.53,0,0,1,.4-.22,5.55,5.55,0,0,1,1.41,0c.51.12.84.12.9.27s-.42.16-.66.16a1.32,1.32,0,0,0-.54.09c-.13.06,1.75.65,1.62,1.1,0,.18-.24.08-.31.2s-.07.16-.18.23-.22,0-.27,0-.07.14-.19.26-.25,0-.39.05-.07.14-.17.23-.66-.21-.94-.41a8.26,8.26,0,0,1-1.25-1C112.44,377.65,112.85,377.05,113.08,376.73Z"/><path class="cls-28" d="M105.16,364.52c-2.16-.7-3,1.77-2.74,3.43.75,4.73,3.63,7.94,4,8.08a59.74,59.74,0,0,0,6.14,1.88c.35-.05,1.06-1.24.87-1.4s-5.46-2.5-5.74-3.14C107,371.62,105.16,364.52,105.16,364.52Z"/><path class="cls-46" d="M120.31,372.65c.3.24.62.55.55.73s-.49-.16-.53-.13.48.26.24.57-.47-.18-.55-.16.48.29.25.5-.55-.2-.55-.2.2.16,0,.29-.26-.09-.51-.27c-.08-.06-.14-.26,0-.27s.53.29.49.25-.46-.55-.33-.66.7.43.63.36-.44-.46-.36-.62.57.16.67.21-.43-.51-.37-.67S120.16,372.53,120.31,372.65Z"/><path class="cls-46" d="M113.35,405.84a.63.63,0,0,0-.11,1,1.81,1.81,0,0,0,.76.52c.11,0,.66.12.84-.29A9.67,9.67,0,0,1,113.35,405.84Z"/><path class="cls-24" d="M103.51,408.28h.42c.42,0,.09-.59.88-.73.13,0,1,.73,1.24.73a8.92,8.92,0,0,0,1.91-.14c0-.12.39-.89-.34-.9s-2.33-1.84-2.51-1.81.12.67-.67.79-1-.5-1.07-.42A16.56,16.56,0,0,0,103.51,408.28Z"/><path class="cls-46" d="M105.7,405.9a.63.63,0,0,0-.11,1,1.88,1.88,0,0,0,.76.52c.11,0,.67.12.84-.29A9.1,9.1,0,0,1,105.7,405.9Z"/><path class="cls-60" d="M106.65,359.61a4.6,4.6,0,0,0,2.88-1.24c1.28-1.23,1.32-3,.35-3.48s-2.06.12-2.89.23-1-.16-2.44,0a2.61,2.61,0,0,0-2.09,1.09c-.58.7,0,1.58-.69,2.08-.9.7-1.74,2.64-1.26,3.41s-.24,1.63-.7,2.42.16,1.47.41,2.06c.37.84-.25,1.33-.24,2.07s.55,1,1.55.89,2.58-1.35,2.3-2c-.13-.31,1-1.25,1-1.81s-.49-.75-.17-1.48a8.22,8.22,0,0,0,.91-1.09c.27-.53.3-1.5,0-1.72-.64-.44-.51-2,.12-1.73a1.18,1.18,0,0,1,.71.84Z"/><polygon class="cls-61" points="81.32 420.61 80.67 422.54 81.28 424.17 83.48 423.68 83.5 420.38 81.32 420.61"/><path class="cls-24" d="M80.05,424.23a4.13,4.13,0,0,0,1,.78c.45.16,1.65.41,1.8.46s1.64.8,1.9.89,1.32.44,1.37.31.79-1.38,0-1.68a33.57,33.57,0,0,1-2.76-2.07c-.2,0-.72.64-1.62.46s-1-.88-1.12-.84A7.93,7.93,0,0,0,80.05,424.23Z"/><polygon class="cls-61" points="75.54 421.39 74.99 423.35 75.67 424.95 77.84 424.36 77.72 421.06 75.54 421.39"/><path class="cls-27" d="M83.66,410.39l-2.33,10.24,2.4.82s6.47-10.27,5-14.14c-.53-1.35-6.09-2.85-11-5.32-.2-.1-4.72.22-4.72.22l-.46,4.3,3.26,3Z"/><path class="cls-24" d="M77,425.88c-.15-.05-.88-.19-1.35-.26a3.92,3.92,0,0,1-1.18-.55,7.85,7.85,0,0,1,.27-1.78c.15-.07.1.48,1,.47,0,0,.3-.64.51-.66s1-.22,1.44.13a4,4,0,0,0,1.54,1c.83.14.39,1.84.29,1.94l-1.14-.08Z"/><path class="cls-61" d="M64.33,407.49a8,8,0,0,1-.39,1.8c-.25.53-.32.89-.5.91s-.07-.49,0-.74a1.61,1.61,0,0,0,0-.61c0-.16-2,2.17-2.32,2-.19-.09,1.26-1.5,1.25-1.65s-1.61,1.73-1.95,1.45,1.52-1.55,1.47-1.77-1.76,1.72-2,1.45,1.69-1.62,1.67-1.79-1.27,1.16-1.4.92,1.33-1.63,1.61-1.9a9.44,9.44,0,0,1,1.33-1.13C63.35,406.36,64.33,407.49,64.33,407.49Z"/><path class="cls-61" d="M69.59,387.79c.6-.15.12-.57.62-.6a10.61,10.61,0,0,0,1.53-.06c.28-.13.94-.66.33-1.82s-1.16-1.81-1.07-2.65,2-4.57,4-4.46c0,0,2.54.41,2.35,3.67-.1,1.91-.3,3.3-.86,3.82-.28.26-.92.21-1.14.26s-.27.72-.08.84a5.23,5.23,0,0,0,1.46.39c.92.09,1.24.25,1.35.42s.12,3-.81,3.3a14.47,14.47,0,0,1-4.34.48C71.84,391.29,69.59,387.79,69.59,387.79Z"/><path class="cls-28" d="M76.11,410.65l-.86,11.22,2.61.33s3.31-9.29,3.31-13c0-1.45-1.17-3.12-6.26-6.42-.18-.12-5-.21-5-.21l-.52,3.93a1.38,1.38,0,0,0,0,.57l.43,1.6a.55.55,0,0,0,.39.39Z"/><path class="cls-12" d="M69.15,387.23c-1.88.76-.79,3.65-.51,4.43s.69,11.23,1.06,11.52,7.46-.66,7.69-1.19-.56-4.54.43-8.46c.12-.48,1.55-6.36,0-6.29-1,.05-.81-.17-1.6-.05s-2.27,1.6-2.63,1.59a29.24,29.24,0,0,0-2.78-1.55,5.28,5.28,0,0,0-1.66,0"/><path class="cls-12" d="M68.12,387.76a2.94,2.94,0,0,1,1.47-.52c.9,0,1.35.37,2,1.9.75,1.7-3.34,7-3.86,8.29-.68,1.72-2.8,10.48-3.16,10.18s-1.93-1.18-1.72-1.5,1.24-7.48,1.27-8.26C64.17,396.8,66.94,388.8,68.12,387.76Z"/><path class="cls-61" d="M91.41,380.77a8.32,8.32,0,0,1,.84-1.71c.39-.47.55-.8.74-.78s0,.51-.17.75a1.53,1.53,0,0,0-.18.6c0,.17,2.52-1.67,2.83-1.41s-1.55,1.12-1.55,1.28.27-.25.49.08-.19.34-.2.41.27-.28.42,0-.23.34-.21.39.16-.09.23.18-.33.55-.68.74a9.3,9.3,0,0,1-1.63.8C92.09,382.15,91.41,380.77,91.41,380.77Z"/><path class="cls-12" d="M77.19,387.29c-.41.67-1.42,2-.37,3.47s10.61-1.67,11.49-2.71,4.52-5.65,4.44-6.09-1-1.44-1.34-1.42-4.07,4.91-4.76,5.2S77.19,387.29,77.19,387.29Z"/><path class="cls-62" d="M75.17,377.56a5.31,5.31,0,0,0-2.92-.17,3.28,3.28,0,0,0-2.06,1,3.5,3.5,0,0,0-.76.69,2.27,2.27,0,0,0-.63,1.25,2.52,2.52,0,0,0,.45,1.62,13.86,13.86,0,0,1,.54,1.3,7.81,7.81,0,0,0,1.14,1.53c.38.46.76.25,1.09,0,1-.89.89-.76.79-.92s-.79-.92-.34-1.6,1.09.06,1.09.06l.23.59a2.07,2.07,0,0,1,.3-.79c.21-.24.55.23,1-.07s3.08-1.77,2.67-2.36A6.51,6.51,0,0,0,75.17,377.56Z"/></svg>