<svg id="Layer_1" data-name="Layer 1" xmlns="http://www.w3.org/2000/svg" viewBox="0 0 280 120"><defs><style>.cls-1{fill:#ffc959;}.cls-2{fill:#527b84;}.cls-3{fill:#7db1a8;}.cls-4{fill:#7cb0a7;}.cls-15,.cls-30,.cls-5{fill:#231f20;}.cls-5{opacity:0.29;}.cls-6{fill:#f3725f;}.cls-7{fill:#808184;}.cls-8{fill:#929497;}.cls-12,.cls-9{fill:#fff;}.cls-10{fill:#b7b7b8;}.cls-11,.cls-24,.cls-25,.cls-26{fill:none;stroke-miterlimit:10;}.cls-11{stroke:#b7b7b8;}.cls-11,.cls-24{stroke-width:0.25px;}.cls-12{font-size:3.99px;font-family:Baloo-Regular, Baloo;}.cls-13{fill:#6a9790;}.cls-14{fill:#eacba5;}.cls-16{fill:#4f3c50;}.cls-17{fill:#685068;}.cls-18{fill:#d6aa4c;}.cls-19{fill:#967a32;}.cls-20{fill:#dfb14e;}.cls-21{fill:#ffc95a;}.cls-22{fill:#6f593b;}.cls-23{fill:#727375;}.cls-24,.cls-25{stroke:#231f20;}.cls-26{stroke:#595a5c;stroke-width:0.5px;}.cls-27{fill:#ae8145;}.cls-28{fill:#ffe5ca;}.cls-29{fill:#6b556c;}.cls-30{opacity:0.2;}</style></defs><path class="cls-1" d="M30.77,70.57a32.92,32.92,0,0,1-7.83-12.94l18.11,0,16.4,16.33L34.58,74A47.86,47.86,0,0,1,30.77,70.57Z"/><path class="cls-1" d="M36.64,52.25l0-14.76a35.15,35.15,0,0,1,17.31,8.67l0,23.35Z"/><path class="cls-1" d="M40.38,56.92,22.72,57c-2.48-7.91-2-15.44-.19-17.81Z"/><path class="cls-1" d="M58.12,74.59l4.12,4.1c-5.74,5.37-16.9,3.46-26.8-4Z"/><path class="cls-1" d="M36,51.58,23,38.67c2-1.66,7-2.32,12.93-1.3Z"/><path class="cls-1" d="M54.64,70.18a.2.2,0,0,0,0-.07l0-23.29C65.39,57.61,69,71.56,62.72,78.22Z"/><ellipse class="cls-2" cx="140.09" cy="107.22" rx="119.59" ry="6.43"/><path class="cls-3" d="M43.91,105.18a35.79,35.79,0,0,1-13.6-9.31l17.94-8.2,23.62,8.79L49.21,106.83A51.09,51.09,0,0,1,43.91,105.18Z"/><path class="cls-3" d="M41.47,84.36,34.78,69.75a38.17,38.17,0,0,1,21.08.78L66.44,93.66Z"/><path class="cls-3" d="M47.28,87.31l-17.49,8c-6-6.73-8.92-14.42-8.22-17.57Z"/><path class="cls-3" d="M72.84,96.83,78.78,99c-3.27,7.91-15.2,11-28.41,8.06Z"/><path class="cls-3" d="M40.49,84,21.81,77c1.21-2.52,5.93-5.46,12.25-7.11Z"/><path class="cls-3" d="M67.4,94a.19.19,0,0,0,0-.07L56.82,70.87C72.39,76.72,82.24,88.93,79,98.35Z"/><path class="cls-3" d="M50.3,56.35a32.72,32.72,0,0,1-2.36-14.88l16.72,6.78,9,21.22L52.53,60.92A45,45,0,0,1,50.3,56.35Z"/><path class="cls-4" d="M62.6,41.66,68.12,28A34.93,34.93,0,0,1,80.83,42.55L72.09,64.1Z"/><path class="cls-4" d="M64.29,47.37,48,40.77c.69-8.23,4-15,6.52-16.49Z"/><path class="cls-4" d="M74,70.35l2.26,5.33C69,78.47,59.38,72.51,53.07,61.86Z"/><path class="cls-4" d="M62.23,40.79,55.13,24c2.43-.79,7.35.5,12.41,3.67Z"/><path class="cls-4" d="M72.46,65l0,0,8.71-21.5c5.89,14,4,28.22-4.32,32Z"/><path class="cls-5" d="M81.31,64.75H79.93a1.46,1.46,0,0,1-1.41-1.1c-.06-.28-.14-.56-.22-.84A1.45,1.45,0,0,1,79,61.14l1.15-.67A2.38,2.38,0,0,0,81,57.24l-.82-1.42A2.35,2.35,0,0,0,76.94,55l-1.19.69A1.43,1.43,0,0,1,74,55.39c-.23-.24-.48-.49-.73-.72a1.47,1.47,0,0,1-.27-1.8l.62-1.08a2.39,2.39,0,0,0-.86-3.24l-1.41-.82a2.35,2.35,0,0,0-3.21.87l-.69,1.2a1.45,1.45,0,0,1-1.64.68l-.56-.15a1.45,1.45,0,0,1-1.11-1.41V47.63a2.36,2.36,0,0,0-2.35-2.36H60.14a2.36,2.36,0,0,0-2.35,2.36v1.29a1.45,1.45,0,0,1-1.11,1.41l-.32.08a1.44,1.44,0,0,1-1.62-.68l-.65-1.13a2.35,2.35,0,0,0-3.21-.87l-1.41.82a2.39,2.39,0,0,0-.87,3.24l.6,1a1.27,1.27,0,0,1-.26,1.58q-.52.48-1,1a1.43,1.43,0,0,1-1.77.26L44.93,55a2.35,2.35,0,0,0-3.21.87l-.82,1.42a2.38,2.38,0,0,0,.86,3.23l1.19.69a1.46,1.46,0,0,1,.66,1.67c-.08.27-.15.54-.22.82a1.45,1.45,0,0,1-1.4,1.1H40.82a2.36,2.36,0,0,0-2.35,2.36v1.64a2.36,2.36,0,0,0,2.35,2.37h1.12a1.45,1.45,0,0,1,1.41,1.12c.06.28.14.56.22.84a1.47,1.47,0,0,1-.67,1.66l-1.14.66a2.38,2.38,0,0,0-.86,3.23l.82,1.42a2.35,2.35,0,0,0,3.21.87l1.1-.64a1.44,1.44,0,0,1,1.77.26c.29.31.59.61.91.9a1.47,1.47,0,0,1,.26,1.8l-.6,1.05a2.39,2.39,0,0,0,.86,3.23l1.41.82a2.36,2.36,0,0,0,3.22-.87l.68-1.18a1.43,1.43,0,0,1,1.63-.68l.52.13a1.46,1.46,0,0,1,1.1,1.42v1.28a2.37,2.37,0,0,0,2.35,2.37h1.63a2.36,2.36,0,0,0,2.35-2.37V87.16a1.46,1.46,0,0,1,1.11-1.42l.56-.14a1.45,1.45,0,0,1,1.64.67l.69,1.2a2.35,2.35,0,0,0,3.21.87l1.41-.82a2.38,2.38,0,0,0,.86-3.23L73,83.2a1.46,1.46,0,0,1,.28-1.8c.31-.3.62-.6.91-.92A1.46,1.46,0,0,1,76,80.21l1.21.71a2.36,2.36,0,0,0,3.22-.87l.81-1.42a2.37,2.37,0,0,0-.86-3.23l-1.29-.76A1.44,1.44,0,0,1,78.38,73c.06-.25.13-.5.19-.75A1.44,1.44,0,0,1,80,71.12h1.33a2.36,2.36,0,0,0,2.35-2.37V67.11A2.36,2.36,0,0,0,81.31,64.75ZM61.17,79.05A11.31,11.31,0,0,1,49.79,67.6,11.48,11.48,0,0,1,61,56.34,11.32,11.32,0,0,1,72.35,67.8,11.47,11.47,0,0,1,61.17,79.05Z"/><path class="cls-6" d="M81.16,63.6H79.78a1.45,1.45,0,0,1-1.41-1.1c-.07-.28-.14-.56-.22-.84A1.44,1.44,0,0,1,78.81,60L80,59.32a2.38,2.38,0,0,0,.86-3.23L80,54.67a2.35,2.35,0,0,0-3.21-.87l-1.19.7a1.45,1.45,0,0,1-1.77-.25c-.23-.25-.48-.49-.73-.73a1.45,1.45,0,0,1-.27-1.79l.62-1.09a2.37,2.37,0,0,0-.86-3.23l-1.41-.82a2.33,2.33,0,0,0-3.21.86l-.69,1.2a1.44,1.44,0,0,1-1.64.68l-.56-.15A1.45,1.45,0,0,1,64,47.77V46.49a2.36,2.36,0,0,0-2.35-2.37H60a2.36,2.36,0,0,0-2.35,2.37v1.28a1.45,1.45,0,0,1-1.11,1.41l-.32.09a1.46,1.46,0,0,1-1.62-.68l-.65-1.14a2.35,2.35,0,0,0-3.22-.86l-1.41.82a2.38,2.38,0,0,0-.86,3.23l.6,1a1.28,1.28,0,0,1-.26,1.59q-.52.46-1,1a1.44,1.44,0,0,1-1.77.25l-1.22-.71a2.35,2.35,0,0,0-3.21.87l-.82,1.42a2.37,2.37,0,0,0,.86,3.23L42.8,60a1.47,1.47,0,0,1,.66,1.67c-.08.27-.15.54-.22.82a1.44,1.44,0,0,1-1.4,1.1H40.67A2.36,2.36,0,0,0,38.32,66v1.64A2.36,2.36,0,0,0,40.67,70h1.12a1.45,1.45,0,0,1,1.41,1.12q.09.42.21.84a1.44,1.44,0,0,1-.67,1.66l-1.13.66a2.37,2.37,0,0,0-.86,3.23l.82,1.42a2.35,2.35,0,0,0,3.21.87l1.09-.64a1.44,1.44,0,0,1,1.77.26c.3.31.6.61.91.9a1.46,1.46,0,0,1,.27,1.8l-.6,1a2.37,2.37,0,0,0,.86,3.23l1.41.82a2.37,2.37,0,0,0,3.22-.86l.68-1.19A1.43,1.43,0,0,1,56,84.46l.53.14A1.44,1.44,0,0,1,57.64,86v1.28A2.37,2.37,0,0,0,60,89.66h1.63A2.37,2.37,0,0,0,64,87.29V86a1.47,1.47,0,0,1,1.11-1.42l.56-.14a1.45,1.45,0,0,1,1.64.67L68,86.33a2.35,2.35,0,0,0,3.21.86l1.41-.82a2.37,2.37,0,0,0,.86-3.23l-.62-1.09a1.46,1.46,0,0,1,.28-1.8c.31-.29.62-.6.91-.92a1.46,1.46,0,0,1,1.79-.27l1.21.71a2.36,2.36,0,0,0,3.22-.87l.81-1.42a2.37,2.37,0,0,0-.86-3.23l-1.3-.76a1.45,1.45,0,0,1-.67-1.65c.07-.25.14-.5.2-.75A1.44,1.44,0,0,1,79.82,70h1.34a2.36,2.36,0,0,0,2.35-2.36V66A2.36,2.36,0,0,0,81.16,63.6ZM61,77.91A11.32,11.32,0,0,1,49.64,66.45,11.48,11.48,0,0,1,60.82,55.19,11.33,11.33,0,0,1,72.2,66.65,11.5,11.5,0,0,1,61,77.91Z"/><path class="cls-5" d="M63.2,36.83H62.1A1.15,1.15,0,0,1,61,36l-.18-.66A1.17,1.17,0,0,1,61.33,34l.91-.53a1.9,1.9,0,0,0,.69-2.57l-.65-1.13a1.88,1.88,0,0,0-2.56-.7l-.95.56a1.17,1.17,0,0,1-1.41-.2c-.19-.2-.38-.39-.58-.58a1.16,1.16,0,0,1-.22-1.43l.5-.86a1.9,1.9,0,0,0-.69-2.58l-1.12-.65a1.87,1.87,0,0,0-2.56.69l-.55,1a1.15,1.15,0,0,1-1.31.54l-.44-.11a1.17,1.17,0,0,1-.88-1.13v-1a1.89,1.89,0,0,0-1.88-1.89H46.34a1.89,1.89,0,0,0-1.88,1.89v1a1.15,1.15,0,0,1-.88,1.12l-.26.07A1.16,1.16,0,0,1,42,24.87l-.52-.9A1.87,1.87,0,0,0,39,23.28l-1.12.65a1.91,1.91,0,0,0-.69,2.58l.48.82a1,1,0,0,1-.21,1.27c-.28.25-.55.51-.81.79a1.15,1.15,0,0,1-1.41.2l-1-.57a1.88,1.88,0,0,0-2.56.7L31,30.85a1.89,1.89,0,0,0,.68,2.57l.95.55a1.17,1.17,0,0,1,.53,1.33c-.07.22-.13.43-.18.65a1.15,1.15,0,0,1-1.12.88H31a1.88,1.88,0,0,0-1.88,1.88V40A1.89,1.89,0,0,0,31,41.91h.88A1.14,1.14,0,0,1,33,42.8l.18.67a1.18,1.18,0,0,1-.53,1.32l-.91.52A1.9,1.9,0,0,0,31,47.89L31.66,49a1.87,1.87,0,0,0,2.56.69l.87-.51a1.16,1.16,0,0,1,1.41.21q.34.38.72.72a1.16,1.16,0,0,1,.22,1.43l-.48.83A1.9,1.9,0,0,0,37.64,55l1.13.65a1.87,1.87,0,0,0,2.56-.69l.54-.94a1.14,1.14,0,0,1,1.3-.54l.41.11a1.15,1.15,0,0,1,.88,1.12v1a1.89,1.89,0,0,0,1.88,1.89h1.29a1.89,1.89,0,0,0,1.88-1.89v-1a1.17,1.17,0,0,1,.88-1.13l.44-.11a1.15,1.15,0,0,1,1.31.54l.55,1a1.87,1.87,0,0,0,2.56.69L56.37,55a1.9,1.9,0,0,0,.69-2.58l-.5-.86a1.18,1.18,0,0,1,.22-1.44,10.05,10.05,0,0,0,.73-.73,1.16,1.16,0,0,1,1.42-.21l1,.56A1.87,1.87,0,0,0,62.46,49l.65-1.13a1.9,1.9,0,0,0-.68-2.58l-1-.6a1.17,1.17,0,0,1-.53-1.32A5.66,5.66,0,0,0,61,42.8a1.16,1.16,0,0,1,1.12-.89H63.2A1.88,1.88,0,0,0,65.07,40V38.71A1.88,1.88,0,0,0,63.2,36.83ZM47.15,48.23a9,9,0,0,1-9.07-9.13,9.16,9.16,0,0,1,8.91-9,9,9,0,0,1,9.07,9.13A9.16,9.16,0,0,1,47.15,48.23Z"/><path class="cls-6" d="M63.08,35.91H62A1.15,1.15,0,0,1,60.86,35l-.18-.67A1.15,1.15,0,0,1,61.21,33l.91-.53a1.9,1.9,0,0,0,.68-2.58l-.64-1.13a1.87,1.87,0,0,0-2.56-.69l-1,.55a1.14,1.14,0,0,1-1.41-.2c-.19-.19-.38-.39-.58-.57a1.16,1.16,0,0,1-.22-1.43l.5-.87A1.91,1.91,0,0,0,56.25,23l-1.12-.65a1.87,1.87,0,0,0-2.56.69L52,24a1.15,1.15,0,0,1-1.31.54l-.44-.12a1.16,1.16,0,0,1-.88-1.13v-1a1.89,1.89,0,0,0-1.88-1.89h-1.3a1.88,1.88,0,0,0-1.87,1.89v1a1.16,1.16,0,0,1-.88,1.13l-.26.07A1.15,1.15,0,0,1,41.91,24l-.52-.9a1.87,1.87,0,0,0-2.56-.69L37.71,23A1.91,1.91,0,0,0,37,25.59l.48.83a1,1,0,0,1-.21,1.26c-.28.25-.55.52-.81.79a1.16,1.16,0,0,1-1.41.21l-1-.57a1.87,1.87,0,0,0-2.56.69l-.65,1.13a1.9,1.9,0,0,0,.68,2.58l1,.55A1.14,1.14,0,0,1,33,34.39c-.06.21-.12.43-.17.65a1.16,1.16,0,0,1-1.12.87h-.93A1.88,1.88,0,0,0,29,37.8v1.31A1.88,1.88,0,0,0,30.82,41h.89a1.15,1.15,0,0,1,1.12.89c.06.23.11.45.18.67a1.17,1.17,0,0,1-.53,1.32l-.91.53A1.89,1.89,0,0,0,30.89,47l.65,1.14a1.88,1.88,0,0,0,2.56.69l.87-.51a1.14,1.14,0,0,1,1.41.2q.34.38.72.72a1.17,1.17,0,0,1,.22,1.43l-.48.84a1.9,1.9,0,0,0,.68,2.58l1.13.65A1.87,1.87,0,0,0,41.21,54l.54-1a1.15,1.15,0,0,1,1.3-.54l.41.11a1.16,1.16,0,0,1,.88,1.13v1a1.88,1.88,0,0,0,1.87,1.89h1.3a1.89,1.89,0,0,0,1.88-1.89v-1a1.16,1.16,0,0,1,.88-1.13l.44-.12a1.15,1.15,0,0,1,1.31.54l.55,1a1.87,1.87,0,0,0,2.56.69l1.12-.65a1.91,1.91,0,0,0,.69-2.58l-.5-.86a1.18,1.18,0,0,1,.22-1.44c.25-.24.5-.48.73-.73a1.15,1.15,0,0,1,1.42-.22l1,.57a1.88,1.88,0,0,0,2.56-.69L63,47a1.89,1.89,0,0,0-.68-2.57l-1-.6a1.18,1.18,0,0,1-.53-1.32c0-.2.11-.4.15-.6A1.16,1.16,0,0,1,62,41h1.07A1.88,1.88,0,0,0,65,39.11V37.8A1.88,1.88,0,0,0,63.08,35.91ZM47,47.31A9,9,0,0,1,38,38.19a9.16,9.16,0,0,1,8.91-9,9,9,0,0,1,9.07,9.12A9.15,9.15,0,0,1,47,47.31Z"/><path class="cls-5" d="M70.35,13.09h-.89a.92.92,0,0,1-.9-.7l-.15-.54a1,1,0,0,1,.43-1.08l.74-.43a1.53,1.53,0,0,0,.55-2.08l-.52-.91a1.51,1.51,0,0,0-2.07-.56l-.77.45a.92.92,0,0,1-1.13-.16l-.47-.47A.93.93,0,0,1,65,5.46l.4-.7a1.53,1.53,0,0,0-.55-2.08l-.91-.53a1.51,1.51,0,0,0-2.07.56l-.44.77a.92.92,0,0,1-1.06.43L60,3.82a.94.94,0,0,1-.72-.91V2.08A1.52,1.52,0,0,0,57.78.56H56.73a1.52,1.52,0,0,0-1.51,1.52v.83a.94.94,0,0,1-.71.91l-.21.05a.92.92,0,0,1-1-.43l-.42-.73a1.51,1.51,0,0,0-2.07-.56l-.91.53a1.53,1.53,0,0,0-.55,2.08l.38.66a.84.84,0,0,1-.16,1q-.35.3-.66.63a.94.94,0,0,1-1.14.17L47,6.79a1.51,1.51,0,0,0-2.07.56l-.53.91a1.54,1.54,0,0,0,.56,2.08l.76.45a.94.94,0,0,1,.43,1.07c-.05.18-.1.35-.14.53a.94.94,0,0,1-.91.7H44.3a1.53,1.53,0,0,0-1.51,1.53v1.05A1.53,1.53,0,0,0,44.3,17.2H45a.93.93,0,0,1,.91.71c0,.19.09.37.14.54a.94.94,0,0,1-.43,1.07l-.73.42A1.55,1.55,0,0,0,44.35,22l.53.91A1.51,1.51,0,0,0,47,23.5l.7-.41a.93.93,0,0,1,1.14.16c.19.2.38.4.58.58A1,1,0,0,1,49.55,25l-.39.67a1.54,1.54,0,0,0,.55,2.09l.91.52a1.51,1.51,0,0,0,2.07-.56l.44-.76a.92.92,0,0,1,1-.44l.34.09a.93.93,0,0,1,.71.91v.83a1.52,1.52,0,0,0,1.51,1.52h1.05a1.52,1.52,0,0,0,1.51-1.52v-.83A.94.94,0,0,1,60,26.6l.35-.09a.92.92,0,0,1,1.06.43l.44.77a1.51,1.51,0,0,0,2.07.56l.91-.52a1.54,1.54,0,0,0,.55-2.09L65,25a.94.94,0,0,1,.18-1.16c.2-.19.4-.39.59-.59A.93.93,0,0,1,66.91,23l.78.46a1.51,1.51,0,0,0,2.07-.56l.52-.91A1.53,1.53,0,0,0,69.73,20l-.84-.49a.94.94,0,0,1-.43-1.06c.05-.16.09-.32.13-.48a.92.92,0,0,1,.9-.72h.86a1.53,1.53,0,0,0,1.51-1.53V14.62A1.53,1.53,0,0,0,70.35,13.09Zm-13,9.21a7.28,7.28,0,0,1-7.32-7.37,7.37,7.37,0,0,1,7.19-7.24,7.29,7.29,0,0,1,7.33,7.37A7.4,7.4,0,0,1,57.39,22.3Z"/><path class="cls-6" d="M70.25,12.36h-.89a.94.94,0,0,1-.9-.71,5.44,5.44,0,0,0-.15-.54A1,1,0,0,1,68.74,10l.74-.42A1.54,1.54,0,0,0,70,7.52l-.52-.91a1.52,1.52,0,0,0-2.07-.56l-.77.45a.93.93,0,0,1-1.13-.16c-.15-.16-.31-.32-.47-.47a.94.94,0,0,1-.18-1.15l.4-.7a1.53,1.53,0,0,0-.55-2.08l-.91-.53A1.5,1.5,0,0,0,61.77,2l-.45.77a.91.91,0,0,1-1,.43l-.36-.09a.93.93,0,0,1-.71-.91V1.35A1.53,1.53,0,0,0,57.68-.18h-1a1.53,1.53,0,0,0-1.51,1.53v.82a.93.93,0,0,1-.71.91l-.21,0a.92.92,0,0,1-1-.43L52.74,2a1.51,1.51,0,0,0-2.07-.56l-.9.53A1.52,1.52,0,0,0,49.21,4l.38.67a.81.81,0,0,1-.16,1q-.34.3-.66.63a.92.92,0,0,1-1.14.17l-.78-.46a1.52,1.52,0,0,0-2.07.56l-.52.91a1.54,1.54,0,0,0,.55,2.09l.76.44A.94.94,0,0,1,46,11.12c0,.18-.1.35-.14.53a.94.94,0,0,1-.9.71h-.75a1.52,1.52,0,0,0-1.52,1.52v1a1.53,1.53,0,0,0,1.52,1.53h.71a.93.93,0,0,1,.91.71c0,.19.09.37.14.55a.92.92,0,0,1-.43,1.06l-.73.43a1.53,1.53,0,0,0-.55,2.08l.52.91a1.51,1.51,0,0,0,2.07.56l.7-.41a.92.92,0,0,1,1.14.16c.19.2.38.4.59.59a.93.93,0,0,1,.17,1.15l-.39.68A1.53,1.53,0,0,0,49.62,27l.9.52A1.52,1.52,0,0,0,52.59,27l.44-.77a.92.92,0,0,1,1-.43l.33.08a.94.94,0,0,1,.71.91v.83a1.52,1.52,0,0,0,1.51,1.52h1A1.52,1.52,0,0,0,59.2,27.6v-.83a.93.93,0,0,1,.71-.91l.36-.09a.92.92,0,0,1,1,.43l.45.78a1.5,1.5,0,0,0,2.06.55l.91-.52a1.53,1.53,0,0,0,.55-2.08l-.4-.7a1,1,0,0,1,.18-1.16c.2-.19.4-.39.59-.59a.93.93,0,0,1,1.15-.18l.78.46a1.51,1.51,0,0,0,2.07-.56l.52-.91a1.53,1.53,0,0,0-.55-2.08l-.83-.49a.94.94,0,0,1-.44-1.06c0-.16.09-.32.13-.48a.92.92,0,0,1,.9-.72h.86a1.53,1.53,0,0,0,1.52-1.53v-1A1.52,1.52,0,0,0,70.25,12.36Zm-13,9.2A7.28,7.28,0,0,1,50,14.19,7.38,7.38,0,0,1,57.17,7a7.28,7.28,0,0,1,7.32,7.37A7.4,7.4,0,0,1,57.29,21.56Z"/><rect class="cls-7" x="58.92" y="5.25" width="71.49" height="99.16" rx="4.83" transform="translate(-4.07 7.73) rotate(-4.58)"/><rect class="cls-8" x="61.49" y="4.89" width="71.49" height="99.16" rx="5.13" transform="translate(-4.04 7.93) rotate(-4.58)"/><rect class="cls-9" x="64.66" y="9.06" width="65.08" height="90.02" rx="1.86" transform="translate(-4 7.93) rotate(-4.58)"/><ellipse class="cls-10" cx="95.12" cy="32.6" rx="11.93" ry="13.22" transform="translate(-2.3 7.69) rotate(-4.58)"/><ellipse class="cls-9" cx="94.83" cy="29.09" rx="4.48" ry="4.97" transform="translate(-2.02 7.66) rotate(-4.58)"/><ellipse class="cls-9" cx="95.81" cy="41.23" rx="10.06" ry="6.57" transform="translate(-2.98 7.78) rotate(-4.58)"/><ellipse class="cls-11" cx="95.12" cy="32.6" rx="11.93" ry="13.22" transform="translate(-2.3 7.69) rotate(-4.58)"/><rect class="cls-11" x="81.8" y="49.72" width="29.76" height="4.93" rx="2.42" transform="translate(-3.85 7.88) rotate(-4.58)"/><rect class="cls-11" x="82.43" y="57.55" width="29.76" height="4.93" rx="2.42" transform="translate(-4.48 7.96) rotate(-4.58)"/><rect class="cls-6" x="86.15" y="67.68" width="24.04" height="6.1" rx="3" transform="translate(-5.33 8.06) rotate(-4.58)"/><text class="cls-12" transform="matrix(1, -0.08, 0.08, 1, 91.24, 72.63)">SIGN UP</text><path class="cls-13" d="M117.18,67.1c.45-.63,1.31-2.07,3-1.66s2.53,10.24,1.92,11.43-3.32,6.48-4,6.74-1.23-1.37-1.35-1.71,2.67-4.92,2.66-5.65S117.18,67.1,117.18,67.1Z"/><polygon class="cls-14" points="118.81 103.74 118.75 105.83 117.58 107.2 115.63 105.94 116.78 102.74 118.81 103.74"/><path class="cls-15" d="M118.75,107.69a4,4,0,0,1-1.29.38c-.49,0-1.73-.19-1.9-.19s-1.87.19-2.15.19-1.44,0-1.44-.19-.27-1.62.59-1.63a33.63,33.63,0,0,0,3.4-1c.21,0,.47.87,1.41,1s1.24-.51,1.38-.41A8.16,8.16,0,0,1,118.75,107.69Z"/><path class="cls-16" d="M119.13,104.88l-3.45-.65s-1.89-12.16-1.84-12.72.14-9.59,0-9.78a22.43,22.43,0,0,1-.19-2.37L118.4,79l-.09,13.11c0,.19,0,.37,0,.55Z"/><polygon class="cls-14" points="113.74 105.07 113.68 107.17 112.5 108.53 110.56 107.27 111.7 104.07 113.74 105.07"/><path class="cls-17" d="M114.48,93.67l-.06,12.76-3.45-.66s-.37-11.77-.33-12.33a83.14,83.14,0,0,1,3.56-14,36.72,36.72,0,0,1,4.72-.38l0,4.89a4,4,0,0,1-.2,1.24l-1,2.48a16,16,0,0,1-1,2l-2.27,4"/><path class="cls-15" d="M113.68,109a4.08,4.08,0,0,1-1.29.38c-.49,0-1.74-.18-1.9-.19s-1.87.19-2.16.19-1.43,0-1.43-.19-.28-1.61.59-1.63,3.19-1.07,3.4-1,.47.87,1.41,1,1.23-.51,1.38-.41A8.16,8.16,0,0,1,113.68,109Z"/><path class="cls-14" d="M120.74,65.33c-.47-1.75-.72-4.8-1-5.62a3.24,3.24,0,0,0-2-2.26c-1-.26-3.81.51-4,1.68s.24,4.95,1.29,5.1c.74.11,1.35-.29,1.92-.2.35.06.76.94.94,1.71S120.74,65.33,120.74,65.33Z"/><path class="cls-3" d="M120.66,64.82c.53.56.8,4.25.51,5.33-.33,1.24-1.1,12.22-1.48,12.61s-6.3.12-6.54-.62,1.15-4.86,1.15-9.1c0-.68-.36-3.74,1-5.47.42-.52,2-2.6,2.93-2.84"/><path class="cls-14" d="M102.05,70.38a8.28,8.28,0,0,0-1.13-1.53c-.46-.39-.67-.69-.85-.64s.13.49.29.71a1.5,1.5,0,0,1,.28.55c0,.17-2.76-1.19-3-.88-.14.16,1.71.82,1.75,1s-.31-.2-.47.17.24.29.27.36-.32-.23-.41.11.28.29.27.35-.17-.06-.19.22.42.48.8.61a9.28,9.28,0,0,0,1.73.49C101.62,71.85,102.05,70.38,102.05,70.38Z"/><path class="cls-3" d="M117.94,65.67c.81.27,2.62.7,2.74,2.61s-9.92,6.06-11.38,5.82S101.22,72.39,101,72s.94-1.64,1.25-1.87,6.06,1.16,6.83.92S117.94,65.67,117.94,65.67Z"/><path class="cls-18" d="M115,56.24a5,5,0,0,1,2.53-.75,3.24,3.24,0,0,1,2.16.74,3.38,3.38,0,0,1,.85.57,2.2,2.2,0,0,1,.79,1.15,2.58,2.58,0,0,1-.23,1.67,13.62,13.62,0,0,0-.36,1.35,6.36,6.36,0,0,1-.51,1.63c-.31.5-.82.28-1.49.14-1.3-.29-1-.63-.91-.8s.67-1,.13-1.63-1.07.2-1.07.2l-.15.62a2.07,2.07,0,0,0-.4-.74c-.23-.21-1,.46-1.48.23s-2.14-1.47-1.81-2.11A5.86,5.86,0,0,1,115,56.24Z"/><path class="cls-19" d="M134.23,99.48s2.67,3.76,4.36,3.21,5.23-1.27,5.12-1.91a2.63,2.63,0,0,0-2.93-2.24C138.56,98.69,134.23,99.48,134.23,99.48Z"/><path class="cls-20" d="M131.4,98.16c-1.77-.57-2.88-.47-3.59.79s.41,2.71,1.35,3a75.17,75.17,0,0,0,8.47,2.43c3.06.63,5.42,1.08,5.61.85s.92-2.4.28-2.67S131.4,98.16,131.4,98.16Z"/><path class="cls-15" d="M143.91,106.27c.42.12.87.27,1.09-.56s.53-1.59.27-2.11-2-.61-2.51-.29a1.73,1.73,0,0,0-.35,2.13A5.07,5.07,0,0,0,143.91,106.27Z"/><rect class="cls-8" x="132.52" y="100.06" width="2.91" height="0.91" transform="translate(275.44 190.2) rotate(175.49)"/><path class="cls-21" d="M148.32,98.34c1.77-.57,2.88-.47,3.59.79s-.41,2.71-1.35,3a75.17,75.17,0,0,1-8.47,2.43c-3.06.63-5.42,1.08-5.61.85s-.92-2.4-.28-2.67c.41-.17,5.2-1.92,8.63-3.17Z"/><path class="cls-15" d="M137.19,77.09c-.07-.56-3.11-1.33-4.2-.48a6.17,6.17,0,0,0-1.5,6.09c.91,2.18.19,2.37-.3,2.73a3.57,3.57,0,0,0,3.74,2c2.77-.3,2.54-3.72,2.54-3.72Z"/><path class="cls-22" d="M132.1,86.4c1.19-.3,2.38-.19,2.79-.38s.86-.11.26-1.26S133.6,83,133.7,82.11c.08-.69,2-4.49,3.91-4.37,0,0,2.5.41,2.31,3.62-.11,1.88-.32,3.25-.87,3.76-.27.25-.9.21-1.12.25s-.16.38,0,.5c.37.23,3.52.23,3.72.53s-1,3.52-1.87,3.85a14.11,14.11,0,0,1-4.28.46C134.5,90.62,132.1,86.4,132.1,86.4Z"/><path class="cls-6" d="M129,96.75c.27.51,6.8,2.92,6.8,2.92l7.94-1.16a39.25,39.25,0,0,0,2.56-5c.12-.82-3.56-7.1-4.59-7.1s-2.86,2.47-4.75,2.25c-1-.13-3.67-2.25-4.83-2.25S128.7,96.23,129,96.75Zm12.71-5.19c.19.24,1.68,1.55,1.62,2s-.59,2.65-.59,2.65l-.41-1.44Zm-8.82.33c.33.34,2,5.43,1.64,5.49s-2.73-2-2.82-2.06S132.59,91.62,132.86,91.89Z"/><rect class="cls-8" x="134.96" y="91.5" width="13.5" height="9.24" transform="translate(285.64 188.88) rotate(178.65)"/><path class="cls-23" d="M140.87,96.78a.53.53,0,0,0,.48-.23.62.62,0,0,0-.5-1h0a1.21,1.21,0,1,1,.05,1.22Z"/><path class="cls-15" d="M135.87,79.5s2.3,2,4.22,1.5c1-.25,0-2.48-.83-3.36s-3.08-.61-3.46-.48a3.69,3.69,0,0,0-2.33,2.17c-1,2.61.85,5.37,1.32,4.68.21-.3-1.11-.89-.69-2.1.16-.45.94.2.94.2C135.71,81.7,135.87,79.5,135.87,79.5Z"/><circle class="cls-24" cx="139.18" cy="81.91" r="0.91"/><circle class="cls-24" cx="137" cy="82.27" r="0.96"/><path class="cls-25" d="M138.29,82.11c-.23-.21-.12-.15-.33,0"/><path class="cls-15" d="M135.56,106c-.42.11-.87.27-1.09-.56s-.53-1.6-.27-2.11,2-.62,2.51-.29a1.73,1.73,0,0,1,.35,2.13A5.07,5.07,0,0,1,135.56,106Z"/><path class="cls-26" d="M142,100.52c6.86,7.65,25.89,11.73,48.62,9.16,29-3.28,69.22-11.92,71.89-22.2,2.52-9.74-28.28-3.42-34.69,0-24.91,13.3,23.56,31.07,53.88,21.92,29.46-8.88,18.45-26.72,43.94-15.21s61.81,17.9,69.76,11.34"/><polygon class="cls-27" points="166.21 100.64 166.15 102.74 164.98 104.11 163.03 102.84 164.18 99.64 166.21 100.64"/><path class="cls-15" d="M166.15,104.59a4,4,0,0,1-1.29.39c-.49,0-1.73-.19-1.9-.19s-1.87.19-2.15.19-1.44,0-1.44-.19-.27-1.62.59-1.63a30.85,30.85,0,0,0,3.4-1c.21.05.47.88,1.41,1s1.24-.51,1.38-.42A8.16,8.16,0,0,1,166.15,104.59Z"/><polygon class="cls-27" points="176.58 100.64 176.52 102.74 175.34 104.11 173.4 102.84 174.54 99.64 176.58 100.64"/><path class="cls-15" d="M173.82,105c.16,0,.92,0,1.41,0a4.08,4.08,0,0,0,1.29-.38,8.25,8.25,0,0,0,0-1.86c-.15-.09-.18.48-1.12.33,0,0-.2-.7-.41-.75s-1-.39-1.49-.09a4.3,4.3,0,0,1-1.73.82c-.87,0-.69,1.82-.6,1.93l1.18.1Z"/><path class="cls-3" d="M171.23,88.84l2.49,12.62,3.42-.33s-.57-13-.66-13.6a64.09,64.09,0,0,0-2.39-14.23c-.05-.22-4.85.22-4.85.22L168.76,78l1.46,5.28Z"/><path class="cls-27" d="M175,55c-.62-.16-.12-.58-.64-.62a11.77,11.77,0,0,1-1.58,0c-.29-.14-1-.69-.34-1.89s1.21-1.85,1.11-2.73c-.08-.72-2-4.7-4.08-4.59,0,0-2.62.42-2.43,3.78.12,2,.32,3.41.9,3.94.28.27,1,.22,1.17.26s.27.74.08.87a5.27,5.27,0,0,1-1.5.41c-.95.09-1.28.25-1.39.42s-.12,3,.83,3.41a15,15,0,0,0,4.47.49C172.72,58.56,175,55,175,55Z"/><path class="cls-15" d="M171.41,48.36a7.42,7.42,0,0,1-4.08-.45c-1.46-.91-.42-1.82.63-2.52a8.22,8.22,0,0,1,4.18-.79c1.2.26,1.29.85,1.68,1.23s.89.7,1.07,1.17-.24.82-.2,1.15c.08.55.9.58.9,1.08,0,.9-.79,1-.79,1.32s.78,1.43.22,1.84a2.22,2.22,0,0,1-2.9,0c-.33-.37-.11-.81.11-1.19s1.35-1,.49-2.17c-.41-.55-1.05.79-1.05.79A1.14,1.14,0,0,1,171.41,48.36Z"/><path class="cls-3" d="M168.91,89.46l-2.28,12-3.42-.33s.57-13,.66-13.6a63,63,0,0,1,2.38-14.23c.06-.22,4.86.22,4.86.22l.47,4.43-1.46,5.28Z"/><path class="cls-21" d="M175.18,54.41c1.93,1.06.81,5.07.53,6.14-.33,1.24-.67,13.31-1.05,13.71s-8.75.74-9,0,.57-7.69-.45-13.14c-.13-.66-1.95-6.94-.35-6.84a26.31,26.31,0,0,1,3,.08c.94.18,2.34,2.22,2.71,2.19a29.51,29.51,0,0,1,2.87-2.14,4.16,4.16,0,0,1,1.71,0"/><path class="cls-21" d="M176,54.92a3,3,0,0,0-1.52-.53c-.93,0-1.39.37-2.07,2-.77,1.75,7.28,9.06,8.73,9.34s8.18,1.13,8.55.83-.32-1.86-.54-2.19-6.09-1-6.73-1.45S177.25,56,176,54.92Z"/><path class="cls-27" d="M149.57,60.17a8.84,8.84,0,0,0-1.67-1.24c-.6-.27-.92-.52-1.1-.41s.3.48.54.65a1.71,1.71,0,0,1,.46.5c.1.16-3.27-.38-3.45,0-.09.22,2.19.33,2.29.47s-.41-.2-.48.29c0,.33.18.12.3.34s-.33-.15-.32.24.21.12.32.29-.32-.29-.22.28c0,.25.68.37,1.12.39a10.59,10.59,0,0,0,2,0C149.58,61.86,149.57,60.17,149.57,60.17Z"/><path class="cls-21" d="M165,54.08c.83.19,2.67.46,3,2.35s-9.34,6.93-10.81,6.82-8.2-1-8.48-1.36.78-1.72,1.07-2,6.14.62,6.88.3S165,54.08,165,54.08Z"/><rect class="cls-7" x="175.72" y="100.16" width="5.66" height="3.99" transform="translate(29.05 -39.14) rotate(13.61)"/><rect class="cls-8" x="175.9" y="100.21" width="6.11" height="0.6" rx="0.29" transform="translate(28.67 -39.28) rotate(13.61)"/><rect class="cls-8" x="175.1" y="103.5" width="6.11" height="0.6" rx="0.29" transform="translate(29.42 -39) rotate(13.61)"/><rect class="cls-8" x="175.5" y="101.86" width="6.11" height="0.6" rx="0.29" transform="translate(29.05 -39.14) rotate(13.61)"/><rect class="cls-6" x="174.83" y="104.04" width="5.66" height="3.59" transform="translate(29.89 -38.83) rotate(13.61)"/><polygon class="cls-28" points="193.18 41.73 193.29 53.3 188.88 59.5 187.79 51.97 193.18 41.73"/><path class="cls-17" d="M192.67,52.46c-.54-.13-1.17.54-1.41,1.5l-2-.47c.24-1,0-1.85-.56-2a1,1,0,0,0-.93.47l-.26,1.09-.27,1.09-11,45.4,5.5,1.33,11-45.39.26-1.1.27-1.09A1,1,0,0,0,192.67,52.46Z"/><path class="cls-29" d="M190.7,52c-.55-.13-1.18.55-1.42,1.51L178,100l2,.48L191.26,54C191.5,53,191.24,52.11,190.7,52Z"/><path class="cls-15" d="M193.18,41.73s-1.09,2.1-1.61,3.05,1.65,1.17,1.64.59Z"/><path class="cls-27" d="M190.6,64.77c-.24-.09-1.69-.76-2-.36-.15.21,1.45.61,1.53.79s-2.26-.79-2.45-.28c-.12.34,2,.64,2.11.91s-2-.69-2.11-.27,1.91.64,2,.84-1.53-.34-1.52,0,1.44.61,1.91.73c0,0,.35,0,.34-.25a.9.9,0,0,1,0-.36c0-.09.08-.13.13-.3s0-.19,0-.25.12-.08.18-.29,0-.18,0-.27.1-.1.13-.21S190.68,64.8,190.6,64.77Z"/><ellipse class="cls-30" cx="174.88" cy="108.26" rx="5.03" ry="0.4"/></svg>