<svg id="Layer_1" data-name="Layer 1" xmlns="http://www.w3.org/2000/svg" viewBox="0 0 280 120"><defs><style>.cls-1{font-size:3.99px;font-family:Baloo-Regular, Baloo;}.cls-1,.cls-18{fill:#fff;}.cls-2{fill:#527b84;}.cls-3{fill:#c6b08a;}.cls-14,.cls-15,.cls-4{fill:#231f20;}.cls-5{fill:#6a9790;}.cls-6{fill:#685068;}.cls-7{fill:#7db1a8;}.cls-8{fill:#6e6f71;}.cls-9{fill:#f3d8c0;}.cls-10{fill:#cd6150;}.cls-11{fill:#f3725f;}.cls-12{fill:#a85132;}.cls-13{fill:#ffc959;}.cls-14{opacity:0.29;}.cls-15{opacity:0.18;}.cls-16{fill:#595a5c;}.cls-17{fill:#808184;}.cls-19{fill:#b7b7b8;}.cls-20{fill:#4f3c50;}.cls-21{fill:#dfb14e;}.cls-22{fill:#ae8145;}.cls-23{fill:#554237;}</style></defs><text class="cls-1" transform="matrix(1, -0.08, 0.08, 1, 91.24, 72.63)">SIGN UP</text><ellipse class="cls-2" cx="140.05" cy="106.24" rx="119.63" ry="6.44"/><path class="cls-3" d="M184.28,102.25s-.27-3.14-.32-6.37c0-2.91.16-5.91-.25-6.64-.57-1,.26-2.77,0-3.22s-3.64-.9-3.64-.9.29,3.42.45,3.95c.59,1.85,2.14,12.86,2.14,12.86l-.06,1,.95.38Z"/><path class="cls-3" d="M173.68,102s.6-2.94,1.39-5.73c.94-3.31,2.09-6.63,2-7.47-.1-.59.56-1.08,1.1-3.13.39-1.51-3.2-.3-3.2-.3s-.75,2.79-.84,3.6-2,12.71-2,12.71L172,103l.86.14Z"/><path class="cls-4" d="M175.72,60c-.34.4-1.44,1.32-.9,1.58s.42.92.09,1a.65.65,0,0,0,0,1.21c.74.41.63.19,1,0s.84.23,1.07.32.73-.66.77-1.17a2.25,2.25,0,0,0-.8-1.79A7.14,7.14,0,0,1,175.72,60Z"/><path class="cls-3" d="M182.79,62.59c-1.12-.18-2.21,0-2.6-.1s-.8,0-.35-1.14,1.26-1.81,1.1-2.57-2.2-4-4-3.68c0,0-2.27.6-1.8,3.54.27,1.72.57,3,1.13,3.38.27.21.85.11,1.05.13s.24.76.07.89c-.32.25-2.51.41-2.66.7s.43,2.85,1.3,3.08a13.24,13.24,0,0,0,4,0C181,66.68,182.79,62.59,182.79,62.59Z"/><path class="cls-4" d="M178.71,56.57s-1.94,2-3.75,1.75c-1-.14-.22-2.28.46-3.16s2.79-.84,3.14-.76a3.46,3.46,0,0,1,2.35,1.8c1.14,2.31-.31,5-.81,4.43-.21-.26.94-.92.45-2-.19-.4-.84.27-.84.27C179.05,58.58,178.71,56.57,178.71,56.57Z"/><path class="cls-5" d="M175.29,63.51s.75,2.53.24,3.15-4.16,2.46-5.1,2.39-7.27-3.35-7.27-3.35l.37-1.4s5.81,2.28,6.18,2.18,3.55-2,4.91-2.74A2.2,2.2,0,0,1,175.29,63.51Z"/><path class="cls-3" d="M168.85,65.93a.48.48,0,0,0,0-.42,5.15,5.15,0,0,0-.69-1.09c-.34-.34-.49-.59-.63-.57s.07.41.18.59a1.12,1.12,0,0,1,.19.46c0,.13-2.12-1.14-2.35-.91s1.39.82,1.42.94-1.73-.91-1.91-.59,1.6.78,1.62,1-1.83-.84-1.93-.58,1.76.8,1.79.94-1.31-.56-1.34-.34,1.48.91,1.77,1a6.86,6.86,0,0,0,1.34.52C168.44,66.86,168.71,66.26,168.85,65.93Z"/><path class="cls-5" d="M175.87,69.53c-.18.31.49.85,0,.4a4.66,4.66,0,0,1-1.52-1.78c-.23-.78.42-1.7.37-2.09a4.08,4.08,0,0,1,.59-2.55l.59-.12A30,30,0,0,1,178,66.81c.06-.13,2.87-4.35,4.1-4.47l1,.31c.92,2-1,2.42-1.35,2.88-1.92,2.47-6,4.25-5.53,4.19"/><path class="cls-6" d="M182.51,74.38l3.74,13.83s-8.4-2.89-11.5-1S172,88.73,172,88.73L175.9,74.9a15.34,15.34,0,0,1,3.23-1.85C180,72.91,182.51,74.38,182.51,74.38Z"/><path class="cls-5" d="M178,66.81c.06-.13,2.87-4.35,4.1-4.47a.89.89,0,0,1,1,.31c1.73,2-.73,5.14-.83,5.71-.37,2.19,0,5.69.25,6S180,74,179,74.11s-2.95.49-3.13.79.46-4.52-.05-5a4.66,4.66,0,0,1-1.52-1.78c-.23-.78.42-1.7.37-2.09a4.08,4.08,0,0,1,.59-2.55h0A39.37,39.37,0,0,1,178,66.81Z"/><path class="cls-7" d="M180.74,63c.44-.18,2.07-.69,2.4-.35,1.13,1.19,0,2.76-.32,3.2-.51.69-5.73,4.4-6.73,4.37s-7.8-3.3-7.8-3.3l.57-1.28s5.95,2,6.35,1.88a28.31,28.31,0,0,0,3.32-2.75A6.56,6.56,0,0,1,180.74,63Z"/><path class="cls-4" d="M176.28,54.61a8.72,8.72,0,0,1,1.93-1.08c.5-.08,1.12.53,1.62.37s1.71-.3,2,.38-.33,1.84.25,2c1.08.32,1.31,1.05,1,1.46s-1.09,1-.17,1.48c.5.24,1.31,1.34.18,1.56s-.57.82-.46,1.14.12,1.6-.72,1.34-1.79.71-2-.06-1.29-.6-1.52-1.07.24-1.34.82-1.74.71-1.27.4-1.18c-1.1.3-.16-1-.6-1.56-.15-.18-1,.58-1.24,0s-.29-1.83-.6-2S176,54.84,176.28,54.61Z"/><path class="cls-4" d="M173.6,104.41h-.42c-.42,0-.09-.59-.87-.73-.14,0-1,.73-1.24.73a8.86,8.86,0,0,1-1.91-.14c0-.12-.39-.89.34-.9s2.33-1.83,2.5-1.8-.12.66.67.79,1-.5,1.07-.42A16.42,16.42,0,0,1,173.6,104.41Z"/><path class="cls-3" d="M171.41,102a.62.62,0,0,1,.11.95,1.75,1.75,0,0,1-.75.52c-.11,0-.67.13-.84-.28A9.64,9.64,0,0,0,171.41,102Z"/><path class="cls-4" d="M184.2,104.71h-.42c-.41,0-.08-.59-.87-.73-.13,0-1,.73-1.23.73a8.79,8.79,0,0,1-1.91-.15c0-.12-.39-.88.34-.9s2.32-1.83,2.5-1.79-.12.66.67.78.94-.5,1.07-.42A16.53,16.53,0,0,1,184.2,104.71Z"/><path class="cls-3" d="M182,102.34a.62.62,0,0,1,.11,1,1.81,1.81,0,0,1-.76.52c-.1,0-.66.12-.84-.29A9.21,9.21,0,0,0,182,102.34Z"/><path class="cls-3" d="M163.69,64.71a.46.46,0,0,0,0-.41,5.58,5.58,0,0,0-.69-1.09c-.34-.34-.49-.6-.64-.57s.08.4.19.59a1.23,1.23,0,0,1,.18.46c0,.13-2.11-1.14-2.34-.91s1.39.81,1.42.93-1.73-.9-1.91-.59,1.6.78,1.62,1-1.84-.85-1.93-.58,1.76.79,1.78.93-1.3-.55-1.34-.33,1.48.9,1.77,1a7.51,7.51,0,0,0,1.35.51C163.28,65.65,163.55,65,163.69,64.71Z"/><rect class="cls-8" x="218.79" y="74.59" width="6.8" height="1.22" rx="0.61" transform="translate(430.3 183.43) rotate(-171.22)"/><polygon class="cls-9" points="231.62 100.7 231.56 102.8 230.38 104.17 228.44 102.9 229.59 99.7 231.62 100.7"/><path class="cls-4" d="M231.56,104.65a4,4,0,0,1-1.29.39c-.49,0-1.74-.19-1.9-.19s-1.88.19-2.16.19-1.43-.05-1.43-.19-.28-1.62.59-1.63a33.21,33.21,0,0,0,3.4-1c.21,0,.47.88,1.41,1s1.23-.51,1.38-.42A8.16,8.16,0,0,1,231.56,104.65Z"/><path class="cls-10" d="M231.87,102.13l-3.39-.92s-.92-12.27-.83-12.83.92-9.55.83-9.75a20.91,20.91,0,0,1,0-2.38h4.73l-1.13,13.07a4.93,4.93,0,0,0,0,.55Z"/><polygon class="cls-9" points="226.04 101.95 225.97 104.04 224.8 105.41 222.85 104.15 224 100.95 226.04 101.95"/><path class="cls-11" d="M227.61,90.5l-1.08,12.71-3.38-.93s.57-11.77.66-12.33a82.45,82.45,0,0,1,4.67-13.7,37.32,37.32,0,0,1,4.73,0l-.42,4.88a3.92,3.92,0,0,1-.31,1.21l-1.15,2.4a15.83,15.83,0,0,1-1.13,2l-2.59,3.8"/><path class="cls-4" d="M226,105.9a4,4,0,0,1-1.28.38c-.5,0-1.74-.19-1.9-.19s-1.88.19-2.16.19-1.44,0-1.44-.19-.27-1.62.6-1.63a31.55,31.55,0,0,0,3.4-1c.21,0,.47.88,1.4,1s1.24-.51,1.38-.42A7.7,7.7,0,0,1,226,105.9Z"/><path class="cls-9" d="M228.71,60.78c-.71-1.67-1.37-4.66-1.72-5.44a3.24,3.24,0,0,0-2.31-2c-1-.13-3.71,1-3.76,2.2s.91,4.88,2,4.88c.75,0,1.3-.47,1.88-.46.35,0,.88.83,1.16,1.57S228.71,60.78,228.71,60.78Z"/><path class="cls-6" d="M228.3,59.68c.68.37,2.63,4.37,2.7,5.48.08,1.28,2.84,11.93,2.6,12.43s-5.94,2.11-6.4,1.48.49-3.29-.86-7.32c-.22-.64-1.81-4.39-1.53-6.52.09-.66.91-3.77,1.72-4.29"/><path class="cls-12" d="M227.09,59c-1.32-.2-1.76-1-1.71-1.18s.52-1.1-.1-1.63-1,.34-1,.34l-.06.64s-.28.53-.6.52a5.74,5.74,0,0,1-2.09-.61,2.72,2.72,0,0,1-.81-2.35,3.72,3.72,0,0,1,2.64-2.09,7.11,7.11,0,0,1,2-.44,2.48,2.48,0,0,1,1.38.53,4.76,4.76,0,0,1,1,.79,2.7,2.7,0,0,1,.63,1.12c.19.77-.12,1.48,0,2.14a6.69,6.69,0,0,1-.28,2"/><path class="cls-9" d="M221.87,75.9c.1.41.42.22.57.25s.12.18.28.23.18-.07.33,0,0,.13.25.21.22,0,.33,0,.13.12.31.12.29-.32.45-.68a9.41,9.41,0,0,0,.7-1.67c0-.09,9.19-3.34,9-3.62-.08-.11-1.34-2-1.47-2-.31-.15-8.83,4.79-8.83,4.79a6.69,6.69,0,0,0-1.86.78,3.79,3.79,0,0,1-.39.29s.7,0,.78.17"/><path class="cls-6" d="M226.7,63.65c.08-.85.19-2.94,2-3.47s7,7.51,7.05,9-2.69,2.5-3.16,2.59c-.64.12-1.9-2.56-1.59-2.57s.83-.36.43-1.06A62,62,0,0,0,226.7,63.65Z"/><rect class="cls-8" x="188.51" y="88.29" width="37.81" height="1.22" rx="0.61" transform="translate(408.3 -13.93) rotate(129.69)"/><rect class="cls-8" x="187.91" y="99.72" width="9.42" height="1.22" rx="0.61" transform="translate(108.47 -99.88) rotate(39.69)"/><circle class="cls-4" cx="195.77" cy="102.95" r="2.68"/><polygon class="cls-13" points="198.44 99.03 184.19 96.21 193.85 85.03 198.44 99.03"/><polygon class="cls-11" points="204.37 74.03 198.01 76.31 192.53 72.35 192.73 79.1 187.27 83.09 193.76 84.99 195.87 91.41 199.68 85.83 206.43 85.81 202.31 80.46 204.37 74.03"/><polygon class="cls-7" points="206.37 74.55 211.77 75.45 213.69 80.53 210.22 84.72 204.83 83.81 202.9 78.73 206.37 74.55"/><path class="cls-13" d="M57,108.13a27.43,27.43,0,0,1-11.59-5l12.29-8.79,19,3.17L61.2,108.6A39.18,39.18,0,0,1,57,108.13Z"/><path class="cls-13" d="M52.1,92.84l-7.16-10a29.29,29.29,0,0,1,16-2.48L72.23,96.18Z"/><path class="cls-13" d="M56.9,94.2l-12,8.57c-5.51-4.18-8.81-9.54-8.74-12Z"/><path class="cls-13" d="M77.51,97.63l4.78.79C81,104.85,72.48,109,62.11,108.63Z"/><path class="cls-13" d="M51.31,92.71,36.26,90.2c.54-2.07,3.65-5,8.16-7.13Z"/><path class="cls-13" d="M73,96.31l0,0-11.3-15.8c12.55,2.11,21.74,9.86,20.71,17.41Z"/><path class="cls-7" d="M51.27,91.52a27.53,27.53,0,0,1-9.14-8.71l14.57-4,16.78,9.56-18.4,5A39.75,39.75,0,0,1,51.27,91.52Z"/><path class="cls-7" d="M52,75.48,48.72,63.61a29.38,29.38,0,0,1,15.84,3.18l5.16,18.79Z"/><path class="cls-7" d="M56,78.42l-14.2,3.9c-3.73-5.83-5-12-4.05-14.29Z"/><path class="cls-7" d="M74.17,88.76l4.21,2.4c-3.44,5.58-12.85,6.49-22.46,2.61Z"/><path class="cls-7" d="M51.29,75.09,38,67.53c1.22-1.76,5.14-3.4,10.12-3.87Z"/><path class="cls-7" d="M70.4,86a.43.43,0,0,0,0,0L65.25,67.17c11,6.33,17,16.78,13.41,23.51Z"/><path class="cls-14" d="M113,85.39h-1.37a1.43,1.43,0,0,1-1.39-1.09c-.07-.28-.15-.56-.23-.83a1.45,1.45,0,0,1,.66-1.66l1.14-.66a2.37,2.37,0,0,0,.85-3.21l-.81-1.41a2.32,2.32,0,0,0-3.18-.86l-1.19.68a1.43,1.43,0,0,1-1.75-.24c-.23-.25-.48-.49-.73-.72a1.46,1.46,0,0,1-.26-1.79l.61-1.07a2.36,2.36,0,0,0-.85-3.21l-1.4-.82a2.35,2.35,0,0,0-3.19.86l-.68,1.2a1.45,1.45,0,0,1-1.63.67l-.55-.15a1.43,1.43,0,0,1-1.1-1.4V68.41a2.35,2.35,0,0,0-2.34-2.36H92a2.35,2.35,0,0,0-2.34,2.36v1.27a1.44,1.44,0,0,1-1.1,1.4l-.32.08a1.44,1.44,0,0,1-1.61-.67L86,69.36a2.35,2.35,0,0,0-3.19-.86l-1.4.82a2.36,2.36,0,0,0-.85,3.21l.59,1a1.26,1.26,0,0,1-.26,1.57c-.35.32-.69.65-1,1a1.44,1.44,0,0,1-1.76.25l-1.21-.7a2.33,2.33,0,0,0-3.19.86l-.81,1.41a2.37,2.37,0,0,0,.86,3.21l1.17.68a1.44,1.44,0,0,1,.66,1.66c-.08.26-.15.53-.22.8A1.42,1.42,0,0,1,74,85.39H72.86a2.35,2.35,0,0,0-2.34,2.35v1.62a2.35,2.35,0,0,0,2.34,2.35H74a1.43,1.43,0,0,1,1.4,1.11c.06.28.14.56.22.84a1.45,1.45,0,0,1-.67,1.64L73.79,96a2.38,2.38,0,0,0-.86,3.22l.81,1.4a2.33,2.33,0,0,0,3.19.86L78,100.8a1.41,1.41,0,0,1,1.75.26c.29.31.59.61.91.89a1.46,1.46,0,0,1,.26,1.79l-.59,1A2.36,2.36,0,0,0,81.2,108l1.4.81a2.33,2.33,0,0,0,3.19-.86l.67-1.18a1.45,1.45,0,0,1,1.62-.67l.52.13a1.45,1.45,0,0,1,1.09,1.41v1.27A2.35,2.35,0,0,0,92,111.25h1.61A2.35,2.35,0,0,0,96,108.9v-1.27a1.45,1.45,0,0,1,1.1-1.41l.55-.14a1.43,1.43,0,0,1,1.63.67l.68,1.19a2.33,2.33,0,0,0,3.19.86l1.4-.81a2.36,2.36,0,0,0,.85-3.21l-.61-1.08a1.46,1.46,0,0,1,.27-1.79c.31-.29.62-.59.91-.91a1.44,1.44,0,0,1,1.77-.27l1.21.7a2.33,2.33,0,0,0,3.19-.86l.81-1.4a2.37,2.37,0,0,0-.86-3.21l-1.29-.75a1.45,1.45,0,0,1-.66-1.64c.07-.25.13-.5.19-.75a1.43,1.43,0,0,1,1.4-1.11H113a2.35,2.35,0,0,0,2.34-2.35V87.74A2.35,2.35,0,0,0,113,85.39ZM93,99.59A11.24,11.24,0,0,1,81.75,88.22,11.4,11.4,0,0,1,92.85,77a11.24,11.24,0,0,1,11.29,11.37A11.4,11.4,0,0,1,93,99.59Z"/><path class="cls-11" d="M112.88,84.25h-1.37a1.42,1.42,0,0,1-1.39-1.09c-.07-.28-.15-.56-.23-.83a1.45,1.45,0,0,1,.66-1.66l1.14-.66a2.37,2.37,0,0,0,.85-3.21l-.81-1.41a2.33,2.33,0,0,0-3.19-.86l-1.18.68a1.43,1.43,0,0,1-1.75-.24c-.23-.25-.48-.49-.73-.72a1.44,1.44,0,0,1-.26-1.78l.61-1.08a2.36,2.36,0,0,0-.85-3.21l-1.4-.81a2.33,2.33,0,0,0-3.19.86l-.68,1.19a1.45,1.45,0,0,1-1.63.67l-.55-.15a1.43,1.43,0,0,1-1.1-1.4V67.27a2.35,2.35,0,0,0-2.34-2.35H91.88a2.35,2.35,0,0,0-2.34,2.35v1.27a1.43,1.43,0,0,1-1.1,1.4l-.32.09a1.45,1.45,0,0,1-1.61-.68l-.64-1.12a2.33,2.33,0,0,0-3.19-.86l-1.4.81a2.36,2.36,0,0,0-.85,3.21l.59,1A1.26,1.26,0,0,1,80.76,74c-.35.32-.69.65-1,1a1.44,1.44,0,0,1-1.76.25l-1.21-.7a2.33,2.33,0,0,0-3.19.86l-.81,1.41A2.37,2.37,0,0,0,73.64,80l1.17.68a1.44,1.44,0,0,1,.66,1.66c-.08.27-.15.53-.22.81a1.43,1.43,0,0,1-1.39,1.09H72.71a2.35,2.35,0,0,0-2.34,2.35v1.62a2.35,2.35,0,0,0,2.34,2.35h1.1a1.43,1.43,0,0,1,1.4,1.11c.06.28.14.56.21.84a1.43,1.43,0,0,1-.66,1.64l-1.12.66A2.37,2.37,0,0,0,72.78,98l.81,1.41a2.35,2.35,0,0,0,3.19.86l1.09-.64a1.41,1.41,0,0,1,1.75.26c.29.31.59.61.91.9a1.44,1.44,0,0,1,.26,1.78l-.6,1a2.37,2.37,0,0,0,.86,3.21l1.4.81a2.33,2.33,0,0,0,3.19-.86l.67-1.18a1.45,1.45,0,0,1,1.62-.67l.52.13a1.45,1.45,0,0,1,1.09,1.41v1.27a2.35,2.35,0,0,0,2.34,2.35h1.61a2.35,2.35,0,0,0,2.34-2.35v-1.27a1.45,1.45,0,0,1,1.1-1.41l.55-.14a1.43,1.43,0,0,1,1.63.67l.68,1.19a2.33,2.33,0,0,0,3.19.86l1.4-.81a2.36,2.36,0,0,0,.85-3.21l-.61-1.08a1.46,1.46,0,0,1,.27-1.79c.31-.29.62-.59.91-.91a1.44,1.44,0,0,1,1.77-.27l1.21.71a2.35,2.35,0,0,0,3.19-.86l.81-1.41a2.37,2.37,0,0,0-.86-3.21l-1.29-.75a1.45,1.45,0,0,1-.66-1.64c.07-.25.13-.5.19-.74a1.43,1.43,0,0,1,1.4-1.12h1.32a2.35,2.35,0,0,0,2.34-2.35V86.6A2.35,2.35,0,0,0,112.88,84.25Zm-20,14.2A11.24,11.24,0,0,1,81.6,87.08,11.39,11.39,0,0,1,92.7,75.91,11.22,11.22,0,0,1,104,87.27,11.4,11.4,0,0,1,92.89,98.45Z"/><path class="cls-14" d="M126,61.59h-1a1,1,0,0,1-1-.77c0-.2-.1-.4-.16-.6a1,1,0,0,1,.47-1.18l.81-.47a1.7,1.7,0,0,0,.61-2.29l-.58-1a1.65,1.65,0,0,0-2.27-.61l-.84.49a1,1,0,0,1-1.25-.18c-.17-.18-.34-.35-.52-.51a1,1,0,0,1-.19-1.27l.44-.77a1.69,1.69,0,0,0-.61-2.29l-1-.58a1.67,1.67,0,0,0-2.27.61l-.49.85a1,1,0,0,1-1.16.48l-.39-.1a1,1,0,0,1-.78-1v-.91a1.67,1.67,0,0,0-1.67-1.67H111a1.66,1.66,0,0,0-1.66,1.67v.91a1,1,0,0,1-.79,1l-.23.06a1,1,0,0,1-1.14-.48l-.46-.81a1.68,1.68,0,0,0-2.28-.61l-1,.58a1.69,1.69,0,0,0-.61,2.29l.42.73a.91.91,0,0,1-.18,1.13,9.49,9.49,0,0,0-.72.7,1,1,0,0,1-1.26.18l-.86-.5a1.66,1.66,0,0,0-2.27.61l-.58,1A1.69,1.69,0,0,0,98,58.57l.84.49a1,1,0,0,1,.47,1.18c-.06.19-.11.38-.16.57a1,1,0,0,1-1,.78h-.82a1.68,1.68,0,0,0-1.67,1.68v1.16a1.67,1.67,0,0,0,1.67,1.67h.79a1,1,0,0,1,1,.79l.15.6a1,1,0,0,1-.47,1.17l-.8.46a1.69,1.69,0,0,0-.61,2.29l.58,1a1.67,1.67,0,0,0,2.27.61l.77-.45a1,1,0,0,1,1.26.18c.2.22.42.43.64.64a1,1,0,0,1,.19,1.27l-.43.74a1.7,1.7,0,0,0,.61,2.29l1,.58a1.66,1.66,0,0,0,2.27-.61l.48-.84a1,1,0,0,1,1.16-.48l.37.09a1,1,0,0,1,.78,1v.91A1.66,1.66,0,0,0,111,80h1.15a1.67,1.67,0,0,0,1.67-1.67v-.91a1,1,0,0,1,.78-1l.39-.1a1,1,0,0,1,1.16.48l.49.85a1.67,1.67,0,0,0,2.27.61l1-.58a1.69,1.69,0,0,0,.61-2.29l-.44-.77a1,1,0,0,1,.19-1.27c.23-.21.44-.42.65-.65a1,1,0,0,1,1.26-.19l.86.5a1.68,1.68,0,0,0,2.28-.61l.57-1a1.68,1.68,0,0,0-.61-2.29l-.91-.53a1,1,0,0,1-.48-1.17c0-.17.1-.35.14-.53a1,1,0,0,1,1-.79H126a1.66,1.66,0,0,0,1.66-1.67V63.27A1.67,1.67,0,0,0,126,61.59ZM111.75,71.71a8,8,0,0,1-8-8.1,8.12,8.12,0,0,1,7.91-8,8,8,0,0,1,8,8.1A8.11,8.11,0,0,1,111.75,71.71Z"/><path class="cls-11" d="M125.89,60.78h-1a1,1,0,0,1-1-.78c0-.2-.1-.39-.16-.59a1,1,0,0,1,.47-1.18l.81-.47a1.69,1.69,0,0,0,.61-2.29l-.58-1a1.66,1.66,0,0,0-2.27-.62l-.84.49a1,1,0,0,1-1.25-.17c-.17-.18-.34-.35-.52-.51a1,1,0,0,1-.19-1.28l.44-.76a1.68,1.68,0,0,0-.61-2.29l-1-.58a1.67,1.67,0,0,0-2.28.61l-.48.85a1,1,0,0,1-1.17.48l-.39-.1a1,1,0,0,1-.78-1v-.91A1.68,1.68,0,0,0,112.07,47h-1.15a1.68,1.68,0,0,0-1.66,1.68v.91a1,1,0,0,1-.78,1,1.55,1.55,0,0,0-.23.06,1,1,0,0,1-1.15-.49l-.46-.8a1.66,1.66,0,0,0-2.27-.61l-1,.58a1.69,1.69,0,0,0-.61,2.29l.42.73a.9.9,0,0,1-.18,1.12c-.25.23-.49.46-.72.7a1,1,0,0,1-1.25.19l-.87-.51a1.66,1.66,0,0,0-2.27.62l-.58,1a1.7,1.7,0,0,0,.61,2.29l.84.49a1,1,0,0,1,.47,1.18c-.06.19-.11.38-.16.57a1,1,0,0,1-1,.78h-.82a1.67,1.67,0,0,0-1.66,1.68v1.16a1.66,1.66,0,0,0,1.66,1.67h.79a1,1,0,0,1,1,.79c0,.2.1.4.16.59a1,1,0,0,1-.48,1.18l-.8.46a1.7,1.7,0,0,0-.61,2.29l.58,1a1.66,1.66,0,0,0,2.27.62l.78-.45a1,1,0,0,1,1.25.18l.64.64a1,1,0,0,1,.19,1.27l-.42.74a1.68,1.68,0,0,0,.61,2.29l1,.58a1.67,1.67,0,0,0,2.28-.62L107,76a1,1,0,0,1,1.15-.48l.37.1a1,1,0,0,1,.78,1v.91a1.67,1.67,0,0,0,1.66,1.67h1.15a1.67,1.67,0,0,0,1.67-1.67v-.91a1,1,0,0,1,.78-1l.39-.1a1,1,0,0,1,1.17.47l.48.85a1.67,1.67,0,0,0,2.28.62l1-.58a1.68,1.68,0,0,0,.61-2.29l-.44-.77a1,1,0,0,1,.2-1.27c.22-.21.44-.43.64-.65a1,1,0,0,1,1.27-.19l.86.5a1.66,1.66,0,0,0,2.27-.62l.58-1a1.7,1.7,0,0,0-.61-2.29l-.92-.53a1,1,0,0,1-.47-1.17c.05-.17.09-.35.13-.53a1,1,0,0,1,1-.79h.94a1.67,1.67,0,0,0,1.67-1.67V62.46A1.68,1.68,0,0,0,125.89,60.78ZM111.65,70.9a8,8,0,0,1-8.05-8.1,8.1,8.1,0,0,1,7.91-8,8,8,0,0,1,8,8.1A8.12,8.12,0,0,1,111.65,70.9Z"/><path class="cls-14" d="M102.36,58.36h-1.13a1.2,1.2,0,0,1-1.15-.91c-.06-.23-.12-.45-.19-.68a1.2,1.2,0,0,1,.55-1.37l.94-.55a2,2,0,0,0,.7-2.64L101.41,51a1.93,1.93,0,0,0-2.63-.71l-1,.57a1.2,1.2,0,0,1-1.45-.2q-.28-.31-.6-.6a1.19,1.19,0,0,1-.22-1.47l.51-.89a2,2,0,0,0-.71-2.65l-1.15-.67a1.93,1.93,0,0,0-2.63.71l-.57,1a1.18,1.18,0,0,1-1.34.55l-.46-.12a1.19,1.19,0,0,1-.9-1.16v-1a1.94,1.94,0,0,0-1.93-1.94H85a1.93,1.93,0,0,0-1.92,1.94v1a1.2,1.2,0,0,1-.91,1.16l-.27.07a1.19,1.19,0,0,1-1.32-.56l-.53-.93a1.94,1.94,0,0,0-2.64-.71l-1.15.67a2,2,0,0,0-.71,2.65l.49.85a1,1,0,0,1-.21,1.3q-.43.39-.84.81a1.17,1.17,0,0,1-1.45.21l-1-.58a1.93,1.93,0,0,0-2.63.71l-.66,1.17a2,2,0,0,0,.7,2.65l1,.56a1.19,1.19,0,0,1,.54,1.37l-.18.66a1.19,1.19,0,0,1-1.15.91h-1a1.94,1.94,0,0,0-1.93,1.94v1.34a2,2,0,0,0,1.93,1.94h.91a1.19,1.19,0,0,1,1.16.91q.08.35.18.69a1.19,1.19,0,0,1-.55,1.36l-.93.54a2,2,0,0,0-.7,2.65l.66,1.16a1.93,1.93,0,0,0,2.63.71l.9-.52a1.17,1.17,0,0,1,1.45.21c.24.25.49.5.75.74a1.21,1.21,0,0,1,.22,1.47l-.5.86A2,2,0,0,0,76.09,77l1.15.67A1.94,1.94,0,0,0,79.88,77l.55-1a1.19,1.19,0,0,1,1.34-.56l.43.11a1.19,1.19,0,0,1,.9,1.16v1.05A1.93,1.93,0,0,0,85,79.7h1.34a1.94,1.94,0,0,0,1.93-1.94V76.71a1.19,1.19,0,0,1,.9-1.16c.16,0,.31-.07.46-.12A1.18,1.18,0,0,1,91,76l.57,1a1.93,1.93,0,0,0,2.63.71L95.34,77a2,2,0,0,0,.71-2.65l-.51-.89A1.2,1.2,0,0,1,95.77,72c.25-.24.5-.49.74-.75A1.2,1.2,0,0,1,98,71l1,.58a1.94,1.94,0,0,0,2.64-.71l.66-1.16a2,2,0,0,0-.7-2.65l-1.06-.62a1.18,1.18,0,0,1-.55-1.35c.05-.21.11-.41.16-.62a1.18,1.18,0,0,1,1.15-.91h1.09a2,2,0,0,0,1.93-1.94V60.3A1.94,1.94,0,0,0,102.36,58.36ZM85.86,70.07a9.27,9.27,0,0,1-9.32-9.38,9.4,9.4,0,0,1,9.16-9.22A9.27,9.27,0,0,1,95,60.85,9.4,9.4,0,0,1,85.86,70.07Z"/><path class="cls-11" d="M102.24,57.41H101.1a1.18,1.18,0,0,1-1.14-.9c-.06-.23-.12-.45-.19-.68a1.19,1.19,0,0,1,.54-1.37l.94-.55a2,2,0,0,0,.71-2.65l-.67-1.16a1.93,1.93,0,0,0-2.63-.71l-1,.57a1.17,1.17,0,0,1-1.44-.21l-.6-.59a1.19,1.19,0,0,1-.22-1.47l.5-.89a2,2,0,0,0-.7-2.65l-1.16-.67a1.93,1.93,0,0,0-2.63.71l-.56,1a1.19,1.19,0,0,1-1.35.56l-.45-.12a1.2,1.2,0,0,1-.91-1.16V43.4a1.94,1.94,0,0,0-1.93-1.94H84.9A1.94,1.94,0,0,0,83,43.4v1.05a1.19,1.19,0,0,1-.9,1.16l-.27.07a1.2,1.2,0,0,1-1.33-.56l-.53-.93a1.93,1.93,0,0,0-2.63-.71l-1.16.67a2,2,0,0,0-.7,2.65l.49.85a1.06,1.06,0,0,1-.21,1.3q-.44.39-.84.81a1.17,1.17,0,0,1-1.45.21l-1-.58a1.93,1.93,0,0,0-2.63.71l-.67,1.17a1.94,1.94,0,0,0,.71,2.64l1,.57a1.19,1.19,0,0,1,.54,1.37q-.1.33-.18.66a1.19,1.19,0,0,1-1.15.9h-1a2,2,0,0,0-1.93,1.94V60.7a2,2,0,0,0,1.93,1.94H70a1.17,1.17,0,0,1,1.15.91l.18.69a1.19,1.19,0,0,1-.55,1.36l-.92.54a2,2,0,0,0-.71,2.65L69.81,70a1.93,1.93,0,0,0,2.63.71l.9-.52a1.17,1.17,0,0,1,1.45.21c.24.25.48.5.74.74a1.19,1.19,0,0,1,.22,1.47l-.49.86a2,2,0,0,0,.7,2.65l1.16.67A1.93,1.93,0,0,0,79.75,76l.56-1a1.18,1.18,0,0,1,1.33-.56l.43.11a1.19,1.19,0,0,1,.9,1.16v1a1.94,1.94,0,0,0,1.93,1.94h1.33a1.94,1.94,0,0,0,1.93-1.94v-1a1.2,1.2,0,0,1,.91-1.16l.45-.12a1.19,1.19,0,0,1,1.35.56l.56,1a1.93,1.93,0,0,0,2.63.71l1.16-.67a2,2,0,0,0,.7-2.65l-.5-.89a1.2,1.2,0,0,1,.22-1.48q.39-.36.75-.75a1.19,1.19,0,0,1,1.46-.22l1,.58a1.93,1.93,0,0,0,2.63-.71l.67-1.16a2,2,0,0,0-.71-2.65l-1.06-.62a1.2,1.2,0,0,1-.55-1.35c.06-.21.11-.41.16-.62a1.2,1.2,0,0,1,1.15-.91h1.1a2,2,0,0,0,1.93-1.94V59.35A2,2,0,0,0,102.24,57.41ZM85.74,69.13a9.26,9.26,0,0,1-9.32-9.38,9.4,9.4,0,0,1,9.16-9.22,9.28,9.28,0,0,1,9.32,9.38A9.4,9.4,0,0,1,85.74,69.13Z"/><path class="cls-15" d="M125.78,108.85H87.71a2.65,2.65,0,0,1-2-.88L30.12,46.29l14,1.07Z"/><polygon class="cls-16" points="128.73 105.08 29.07 43.45 31.38 40.12 126.68 108.09 128.73 105.08"/><path class="cls-16" d="M124.05,91.2,58.8,47.94a2,2,0,0,0-.75-.3l-26.93-5a2,2,0,0,0-1.48,3.68L124,108.45a2,2,0,0,0,3.13-1.91l-1.33-12.39A4.06,4.06,0,0,0,124.05,91.2Z"/><path class="cls-17" d="M126.16,88.12,60.91,44.85a2,2,0,0,0-.74-.3l-26.94-5a2,2,0,0,0-1.48,3.68l94.41,62.16a2,2,0,0,0,3.12-1.91L128,91.06A4,4,0,0,0,126.16,88.12Z"/><path class="cls-18" d="M122.71,86.51,64.2,47.72a1.69,1.69,0,0,0-.67-.27L39.38,42.93A1.82,1.82,0,0,0,38,46.23L122.7,102a1.82,1.82,0,0,0,2.81-1.71l-1.19-11.12A3.67,3.67,0,0,0,122.71,86.51Z"/><path class="cls-19" d="M71.08,61.8,56.73,52.29l-.16-.07-5.92-1.1a.45.45,0,0,0-.33.81L71.08,65.6a.45.45,0,0,0,.69-.42l-.29-2.73A.93.93,0,0,0,71.08,61.8Z"/><path class="cls-19" d="M71.32,58.66l-9.48-6.29a.25.25,0,0,0-.11,0l-3.91-.73a.29.29,0,0,0-.22.53l13.71,9a.3.3,0,0,0,.46-.28l-.19-1.8A.59.59,0,0,0,71.32,58.66Z"/><path class="cls-19" d="M71.63,56.52l-6.17-4.09-.07,0-2.54-.47a.19.19,0,0,0-.14.34l8.92,5.88a.19.19,0,0,0,.3-.18L71.8,56.8A.37.37,0,0,0,71.63,56.52Z"/><path class="cls-19" d="M71.67,54.83l-3.9-2.59h0l-1.61-.3a.12.12,0,0,0-.09.22l5.64,3.71a.12.12,0,0,0,.19-.12L71.77,55A.23.23,0,0,0,71.67,54.83Z"/><ellipse class="cls-4" cx="102.34" cy="80.09" rx="3.94" ry="23.74" transform="translate(-19.75 124.59) rotate(-58.07)"/><path class="cls-16" d="M122.37,92.66a.52.52,0,0,0,.1-.11c1-1.53-9.23-9.59-18.43-15.33s-21-11.17-21.93-9.65c0,.05,0,0,0,0h0a.38.38,0,0,1,.06-.13c1.15-1.85,11.11,2.27,22.23,9.2s19.22,14.06,18.07,15.91a.52.52,0,0,1-.1.11Z"/><path class="cls-20" d="M136.46,60.63c-.55.5-1.84,1.48-1.26,3s10.06,1.31,11.13.61,5.84-3.88,6-4.59-1.45-1-1.78-1.1-4.41,3.07-5.11,3.15S136.46,60.63,136.46,60.63Z"/><path class="cls-21" d="M115.74,91.58l1.53.58,1.58.5s7.49-4,7.79-4.52,5-9.06,5.2-9.16a11.06,11.06,0,0,0,.5-2.37l-3.81-3.44-6,12.47c.76.79.11-.14,0,0Z"/><polygon class="cls-22" points="135.94 101.47 136 103.56 137.18 104.93 139.13 103.67 137.98 100.47 135.94 101.47"/><path class="cls-13" d="M133.8,89.51l1.65,12.65,3.34-1.08s-1.09-11.74-1.21-12.29a83.26,83.26,0,0,0-5.27-13.48,44.69,44.69,0,0,0-5.24.32l.07,2.36a8.48,8.48,0,0,0,1.31,3.35l.13.23,1.25,2.35a16.68,16.68,0,0,0,1.22,1.91l2.75,3.68"/><path class="cls-4" d="M136,105.42a4.08,4.08,0,0,0,1.29.38c.49,0,1.74-.19,1.9-.19s1.88.19,2.16.19,1.43,0,1.43-.19.28-1.62-.59-1.63a30.85,30.85,0,0,1-3.4-1c-.21,0-.47.88-1.41,1s-1.23-.51-1.38-.42A8.25,8.25,0,0,0,136,105.42Z"/><path class="cls-22" d="M135,60.5c.38-1.78.47-4.84.68-5.67a3.22,3.22,0,0,1,1.9-2.36c1-.31,3.83.31,4.1,1.47s0,5-1,5.16c-.73.14-1.36-.22-1.92-.1-.35.07-.77,2.08-.91,2.87S135,60.5,135,60.5Z"/><path class="cls-6" d="M135.19,58.81c-.73.25-3.3,3.89-3.55,5-.28,1.25-4.72,11.32-4.57,11.85s5.52,3,6.08,2.5,1.25-4.83,3.23-8.59c.32-.6,2.61-5.24,2-6.56a9.21,9.21,0,0,0-1.65-2.64"/><path class="cls-22" d="M150.71,58.73a8.11,8.11,0,0,1,.75-1.67c.35-.46.48-.8.67-.78s0,.49-.14.72a1.5,1.5,0,0,0-.14.58c0,.17,2.34-1.69,2.65-1.46S153,57.32,153,57.47s1.91-1.36,2.18-1-1.78,1.19-1.78,1.41,2.06-1.3,2.21-1-2,1.23-2,1.4,1.47-.87,1.55-.61-1.62,1.31-1.95,1.51a8.44,8.44,0,0,1-1.53.83C151.43,60,150.71,58.73,150.71,58.73Z"/><polygon class="cls-11" points="162.8 52.73 154.41 49.86 147.73 55.7 149.45 64.39 157.84 67.26 164.51 61.42 162.8 52.73"/><path class="cls-22" d="M152.12,62.68a7.91,7.91,0,0,1,.74-1.67c.35-.46.49-.79.67-.78s0,.49-.13.73a1.5,1.5,0,0,0-.15.58c0,.16,2.34-1.7,2.66-1.46.16.12-1.53,1.19-1.55,1.34s1.92-1.35,2.18-1-1.78,1.19-1.77,1.41,2-1.3,2.2-1-2,1.23-2,1.4,1.47-.87,1.55-.61-1.62,1.32-1.95,1.51a8.39,8.39,0,0,1-1.52.83C152.83,64,152.12,62.68,152.12,62.68Z"/><path class="cls-6" d="M136.21,61.58c-.7.42-2.3,1.19-2,3s10.58,3.62,11.9,3.09,7.23-3.29,7.37-3.73-1.22-1.35-1.56-1.5-5.45,2.36-6.21,2.29S136.21,61.58,136.21,61.58Z"/><path class="cls-23" d="M138.19,51.84c-1.79-.12-1.4.55-1.84.72s-1.14.17-1.29.57.14,1.08-.19,1.39-.88.4-1,.88.27.87.12,1.24-.71.45-.42,1a1.94,1.94,0,0,0,1.49,1,3.9,3.9,0,0,0,1.93-.16c1.25-.44.77-1.28.69-1.46s-.72-1-.21-1.62,1.08.15,1.08.15l.18.61a2,2,0,0,1,.36-.76c.22-.22,1.39-.42,1.87-.68s1.35-.44,1-1.06C141.11,52.05,138.19,51.84,138.19,51.84Z"/></svg>