<svg id="Layer_1" data-name="Layer 1" xmlns="http://www.w3.org/2000/svg" xmlns:xlink="http://www.w3.org/1999/xlink" viewBox="0 0 280 120"><defs><style>.cls-1,.cls-16,.cls-3,.cls-59,.cls-60,.cls-61,.cls-62,.cls-63{fill:none;}.cls-1,.cls-5,.cls-6{clip-rule:evenodd;}.cls-2,.cls-32,.cls-6{fill:#f16254;}.cls-4{fill:#f3725f;}.cls-25,.cls-26,.cls-5{fill:#f89d53;}.cls-7{fill:#527b84;}.cls-8{fill:#ae8145;}.cls-13,.cls-9{fill:#231f20;}.cls-10{fill:#685068;}.cls-11{fill:#7db1a8;}.cls-12{fill:#ffc959;}.cls-13{opacity:0.1;}.cls-14{fill:#7cb0a7;}.cls-15{fill:#fff;}.cls-16{stroke:#595a5c;}.cls-16,.cls-59,.cls-60,.cls-61,.cls-62,.cls-63{stroke-miterlimit:10;stroke-width:0.25px;}.cls-17{clip-path:url(#clip-path);}.cls-18{fill:#523b52;}.cls-19{clip-path:url(#clip-path-2);}.cls-20{fill:#624760;}.cls-21{clip-path:url(#clip-path-3);}.cls-22{clip-path:url(#clip-path-4);}.cls-23{fill:#ee974f;}.cls-24{clip-path:url(#clip-path-5);}.cls-26,.cls-32{fill-rule:evenodd;}.cls-27{clip-path:url(#clip-path-6);}.cls-28{clip-path:url(#clip-path-7);}.cls-29{isolation:isolate;}.cls-30{clip-path:url(#clip-path-8);}.cls-31{clip-path:url(#clip-path-9);}.cls-33{clip-path:url(#clip-path-10);}.cls-34{clip-path:url(#clip-path-11);}.cls-35{clip-path:url(#clip-path-12);}.cls-36{clip-path:url(#clip-path-13);}.cls-37{clip-path:url(#clip-path-14);}.cls-38{clip-path:url(#clip-path-15);}.cls-39{clip-path:url(#clip-path-17);}.cls-40{clip-path:url(#clip-path-18);}.cls-41{clip-path:url(#clip-path-19);}.cls-42{clip-path:url(#clip-path-20);}.cls-43{clip-path:url(#clip-path-22);}.cls-44{clip-path:url(#clip-path-23);}.cls-45{clip-path:url(#clip-path-24);}.cls-46{fill:#febf10;}.cls-47{clip-path:url(#clip-path-25);}.cls-48{fill:#ffc95a;}.cls-49{clip-path:url(#clip-path-27);}.cls-50{clip-path:url(#clip-path-28);}.cls-51{clip-path:url(#clip-path-29);}.cls-52{clip-path:url(#clip-path-30);}.cls-53{clip-path:url(#clip-path-32);}.cls-54{clip-path:url(#clip-path-33);}.cls-55{fill:#cd9f72;}.cls-56{fill:#4f3c50;}.cls-57{fill:#daac78;}.cls-58{fill:#856432;}.cls-59,.cls-60,.cls-61,.cls-62,.cls-63{stroke:#685069;}.cls-60{stroke-dasharray:2.93 0.98;}.cls-61{stroke-dasharray:3.03 1.01;}.cls-62{stroke-dasharray:3 1;}.cls-63{stroke-dasharray:2.62 0.87;}.cls-64{fill:#f4817c;}.cls-65{fill:#c6b08a;}.cls-66{fill:#f7bd56;}</style><clipPath id="clip-path"><path class="cls-1" d="M104.24,103.56q5.73-3.6,6.51-6.19l-5.87,3.43a57.52,57.52,0,0,1-4.62,3.52c-1.12.73-2.92,1.75-5.41,3Q98.51,107.17,104.24,103.56Z"/></clipPath><clipPath id="clip-path-2"><path class="cls-1" d="M80.36,65.17l8-1.55q.66,8,6.22,16.71c5.57,8.76,13.26,15.3,16.13,17-.53,1.39-2.49,2.53-5.88,3.44q-14.3-7.51-18.76-14T80.36,65.17Z"/></clipPath><clipPath id="clip-path-3"><path class="cls-1" d="M69.08,68.18l11.66-3.1q3.75,12.49,7.91,18.64t16.23,17.08q-5.26,5.3-9.95,6.54c-6.28-3.27-10.72-9.14-15.53-16Q74.58,84.39,69.08,68.18Z"/></clipPath><clipPath id="clip-path-4"><path class="cls-1" d="M63.51,70.29q29.15-9.09,43.32-7.66A293.09,293.09,0,0,1,139,68l-8.72-32.74L59.21,54.13Z"/></clipPath><clipPath id="clip-path-5"><path class="cls-1" d="M57.18,46.5Q85,32.63,96.63,24.33T121.11.78l8.72,32.74L58.76,52.45Z"/></clipPath><clipPath id="clip-path-6"><polygon class="cls-5" points="57.68 48.39 128.75 29.47 129.18 34.6 59.86 60.48 57.68 48.39"/></clipPath><clipPath id="clip-path-7"><path class="cls-1" d="M56.74,46.64l.44-.15,1.31,3.6h0l7.08,19.55-.44.16a10.39,10.39,0,0,1-12.95-5.35l0,0-1.82-5h0A10.41,10.41,0,0,1,56.74,46.64Z"/></clipPath><clipPath id="clip-path-8"><rect class="cls-3" x="48.33" y="45.97" width="16.57" height="27.26" transform="matrix(0.97, -0.26, 0.26, 0.97, -13.43, 16.58)"/></clipPath><clipPath id="clip-path-9"><rect class="cls-4" x="50.55" y="47.07" width="12.13" height="25.07" transform="translate(-13.43 16.58) rotate(-14.91)"/></clipPath><clipPath id="clip-path-10"><path class="cls-6" d="M50.82,61.36A12.93,12.93,0,0,0,56,62a25.68,25.68,0,0,0,6.25-2.12l4.11,11.35-11,4Z"/></clipPath><clipPath id="clip-path-11"><rect class="cls-2" x="50.55" y="47.07" width="12.13" height="25.07" transform="translate(-13.43 16.58) rotate(-14.91)"/></clipPath><clipPath id="clip-path-12"><ellipse class="cls-3" cx="130.09" cy="34.35" rx="9.9" ry="34.76" transform="translate(-4.46 34.64) rotate(-14.91)"/></clipPath><clipPath id="clip-path-13"><rect class="cls-3" x="120.18" y="-0.43" width="19.84" height="69.56" transform="translate(-4.46 34.64) rotate(-14.91)"/></clipPath><clipPath id="clip-path-14"><rect class="cls-3" x="120.2" y="-0.41" width="19.79" height="69.52" transform="translate(-4.46 34.64) rotate(-14.91)"/></clipPath><clipPath id="clip-path-15"><ellipse class="cls-3" cx="105.27" cy="3.57" rx="28.69" ry="38.06" transform="translate(2.63 27.21) rotate(-14.91)"/></clipPath><clipPath id="clip-path-17"><path class="cls-1" d="M118,25l7.62,2.41,2.91,10.92-5.08,8.2q-1.64-4.62-3.06-10.23T118,25Z"/></clipPath><clipPath id="clip-path-18"><rect class="cls-3" x="120.06" y="23.85" width="7.47" height="22.27" transform="matrix(0.97, -0.26, 0.26, 0.97, -4.83, 33.04)"/></clipPath><clipPath id="clip-path-19"><rect class="cls-3" x="120.08" y="23.87" width="7.42" height="22.23" transform="translate(-4.83 33.04) rotate(-14.91)"/></clipPath><clipPath id="clip-path-20"><path class="cls-1" d="M120.79,37.92l5-3.47,3.91,3.6-8.88,12.67q1.89,2,.48-3.59T120.79,37.92Z"/></clipPath><clipPath id="clip-path-22"><path class="cls-1" d="M128.52,38.37c.86-.23.9-2.86.1-5.87s-2.15-5.27-3-5.05-.9,2.86-.1,5.88S127.66,38.6,128.52,38.37Z"/></clipPath><clipPath id="clip-path-23"><rect class="cls-3" x="125.43" y="27.24" width="3.29" height="11.34" transform="translate(-4.19 33.81) rotate(-14.91)"/></clipPath><clipPath id="clip-path-24"><rect class="cls-3" x="125.45" y="27.26" width="3.25" height="11.3" transform="matrix(0.97, -0.26, 0.26, 0.97, -4.19, 33.81)"/></clipPath><clipPath id="clip-path-25"><ellipse class="cls-3" cx="127.13" cy="31.36" rx="2.05" ry="5.65" transform="translate(-3.79 33.77) rotate(-14.91)"/></clipPath><clipPath id="clip-path-27"><ellipse class="cls-3" cx="90.12" cy="76.88" rx="3.44" ry="4.77" transform="translate(-25.04 49.12) rotate(-26.91)"/></clipPath><clipPath id="clip-path-28"><rect class="cls-3" x="84.03" y="69.52" width="12.03" height="14.07" transform="translate(-16.67 25.75) rotate(-14.91)"/></clipPath><clipPath id="clip-path-29"><rect class="cls-3" x="86.2" y="71.81" width="7.85" height="10.13" transform="translate(-16.75 25.78) rotate(-14.91)"/></clipPath><clipPath id="clip-path-30"><circle class="cls-3" cx="90.24" cy="74.63" r="4.77" transform="translate(-25.97 60.2) rotate(-32.51)"/></clipPath><clipPath id="clip-path-32"><rect class="cls-4" x="84.13" y="69.32" width="11.79" height="12.24" transform="translate(-16.38 25.71) rotate(-14.91)"/></clipPath><clipPath id="clip-path-33"><rect class="cls-4" x="85.95" y="71.85" width="7.85" height="8.13" transform="translate(-16.51 25.68) rotate(-14.91)"/></clipPath></defs><ellipse class="cls-7" cx="149.97" cy="106.06" rx="119.63" ry="6.44"/><polygon class="cls-8" points="163.37 102.41 163.44 104.51 164.61 105.88 166.56 104.61 165.41 101.41 163.37 102.41"/><path class="cls-9" d="M163.44,106.36a3.92,3.92,0,0,0,1.28.39c.5,0,1.74-.19,1.9-.19s1.88.19,2.16.19,1.44,0,1.44-.19.27-1.62-.59-1.63-3.19-1.08-3.41-1-.46.88-1.4,1-1.24-.51-1.38-.42A7.62,7.62,0,0,0,163.44,106.36Z"/><polygon class="cls-8" points="153 102.41 153.07 104.51 154.24 105.88 156.19 104.61 155.04 101.41 153 102.41"/><path class="cls-9" d="M155.77,106.77c-.16,0-.92-.06-1.42-.06a4,4,0,0,1-1.28-.38,7.7,7.7,0,0,1,0-1.86c.14-.09.17.48,1.11.33,0,0,.2-.7.42-.75s1-.39,1.49-.09a4.19,4.19,0,0,0,1.73.82c.87,0,.68,1.82.59,1.93l-1.17.1Z"/><path class="cls-8" d="M139.9,66.33a8.19,8.19,0,0,0-1.64-1c-.57-.17-.89-.37-1-.25s.32.4.55.54a1.5,1.5,0,0,1,.47.4c.1.14-3,0-3.13.37-.06.21,2,.09,2.12.2s-2.44,0-2.45.47c0,.3,2.22-.07,2.35.12s-2.52.14-2.47.49,2.41-.15,2.52,0-1.77.16-1.67.42,2.16.13,2.56.1a9.5,9.5,0,0,0,1.79-.22C140.08,67.86,139.9,66.33,139.9,66.33Z"/><path class="cls-10" d="M158.35,90.61l-2.48,12.62-3.42-.33s.56-13.05.66-13.61a63.07,63.07,0,0,1,2.38-14.23c.06-.22,4.86.22,4.86.22l.47,4.43L159.36,85Z"/><path class="cls-8" d="M154.54,56.71c.62-.16.12-.59.64-.63a10.18,10.18,0,0,0,1.58,0c.29-.13,1-.69.34-1.89s-1.2-1.85-1.11-2.72,2-4.71,4.08-4.6c0,0,2.62.42,2.43,3.78-.11,2-.32,3.41-.89,3.94-.29.27-1,.22-1.18.27s-.27.74-.07.86a5.17,5.17,0,0,0,1.5.41c.95.09,1.27.25,1.39.43s.12,3.05-.83,3.4a14.75,14.75,0,0,1-4.48.49C156.86,60.31,154.54,56.71,154.54,56.71Z"/><path class="cls-9" d="M158.17,50.11a7.41,7.41,0,0,0,4.08-.45c1.46-.91.42-1.82-.62-2.52a8.24,8.24,0,0,0-4.19-.79c-1.19.26-1.28.85-1.68,1.23s-.89.7-1.07,1.17.25.82.2,1.15c-.07.55-.89.58-.9,1.08,0,.9.8,1,.8,1.32s-.78,1.44-.23,1.85a2.23,2.23,0,0,0,2.9,0c.33-.37.12-.82-.11-1.19s-1.35-1-.49-2.18c.42-.55,1,.79,1,.79A1.14,1.14,0,0,0,158.17,50.11Z"/><path class="cls-10" d="M160.67,91.22l2.29,12,3.42-.33s-.57-13.05-.66-13.61a63.77,63.77,0,0,0-2.38-14.23c-.06-.22-4.86.22-4.86.22L158,79.71,159.46,85Z"/><path class="cls-11" d="M154.41,56.16c-1.94,1-.82,4.77-.53,5.79s.66,12.55,1.05,12.92,8.74.7,9,0-.57-7.24.45-12.38c.12-.63,1.94-6.56.35-6.46-1,.06-2.21-.08-3,.07s-2.34,2.1-2.71,2.08a28.3,28.3,0,0,0-2.86-2,4.34,4.34,0,0,0-1.71,0"/><path class="cls-11" d="M153,56.67a3.08,3.08,0,0,1,1.52-.53c.93,0,1.39.38,2.08,2,.76,1.76-7.29,9.07-8.74,9.34s-8.18,1.14-8.55.84.32-1.87.54-2.19,6.09-1,6.73-1.45S151.81,57.75,153,56.67Z"/><path class="cls-8" d="M178,49.43a8.08,8.08,0,0,1,.26-1.88c.21-.57.26-.94.44-1s.12.5.08.77a1.36,1.36,0,0,0,0,.62c0,.16,1.84-2.38,2.22-2.23.2.08-1.18,1.64-1.16,1.79s1.53-1.91,1.89-1.64-1.43,1.7-1.36,1.93,1.67-1.9,1.91-1.65-1.61,1.81-1.57,2,1.22-1.3,1.37-1.06-1.24,1.78-1.5,2.08a9.5,9.5,0,0,1-1.29,1.27C179.09,50.51,178,49.43,178,49.43Z"/><path class="cls-11" d="M163,56.25c-.45.72-1.54,2.22-.4,3.76s11.49-1.81,12.45-2.93,5.06-6.54,5-7-1.78-.65-2.17-.63-3.87,4.82-4.61,5.12S163,56.25,163,56.25Z"/><path class="cls-12" d="M34.48,65.27a32.8,32.8,0,0,1-7.84-12.95l18.12,0,16.4,16.34-22.88,0A46.06,46.06,0,0,1,34.48,65.27Z"/><path class="cls-12" d="M40.34,46.94l0-14.76a35.21,35.21,0,0,1,17.33,8.67l0,23.36Z"/><path class="cls-12" d="M44.08,51.61l-17.66,0c-2.48-7.91-2-15.44-.19-17.81Z"/><path class="cls-12" d="M61.84,69.29,66,73.4c-5.74,5.36-16.91,3.46-26.82-4.06Z"/><path class="cls-12" d="M39.67,46.27l-13-12.92c2-1.65,7-2.32,12.94-1.29Z"/><path class="cls-12" d="M58.36,64.87v-.06l0-23.3c10.79,10.8,14.38,24.75,8.13,31.41Z"/><path class="cls-11" d="M47.62,99.89A36,36,0,0,1,34,90.58l18-8.21,23.63,8.8L52.93,101.54A50.51,50.51,0,0,1,47.62,99.89Z"/><path class="cls-11" d="M45.17,79.06,38.49,64.45a38.17,38.17,0,0,1,21.08.78L70.16,88.37Z"/><path class="cls-11" d="M51,82l-17.5,8c-6-6.72-8.92-14.42-8.22-17.57Z"/><path class="cls-11" d="M76.56,91.53l5.94,2.22c-3.27,7.91-15.2,11-28.42,8.07Z"/><path class="cls-11" d="M44.2,78.7l-18.68-7c1.21-2.53,5.92-5.47,12.24-7.12Z"/><path class="cls-11" d="M71.12,88.73a.64.64,0,0,0,0-.07L60.54,65.57C76.11,71.42,86,83.64,82.76,93.06Z"/><path class="cls-13" d="M110.34,108.75H78.75A3.34,3.34,0,0,1,75.83,107L52.18,64.45l21.35-2.21,32.52,40.13C107.48,103.94,117,108.75,110.34,108.75Z"/><path class="cls-11" d="M54,51.05a32.78,32.78,0,0,1-2.36-14.89l16.72,6.78,9,21.23L56.24,55.61A44.84,44.84,0,0,1,54,51.05Z"/><path class="cls-14" d="M66.31,36.35l5.52-13.62A34.88,34.88,0,0,1,84.55,37.24L75.81,58.8Z"/><path class="cls-14" d="M68,42.06l-16.3-6.6c.69-8.23,4-15,6.53-16.5Z"/><path class="cls-14" d="M77.73,65,80,70.38c-7.32,2.79-16.9-3.17-23.21-13.83Z"/><path class="cls-14" d="M65.94,35.48l-7.1-16.79c2.44-.78,7.35.5,12.42,3.67Z"/><path class="cls-14" d="M76.18,59.66a.33.33,0,0,0,0-.06l8.72-21.5c5.89,14,3.95,28.23-4.33,32Z"/><path class="cls-4" d="M182.87,32.15H171a1.64,1.64,0,0,0-1.64,1.64v9.44a.35.35,0,0,0,.53.31L172.45,42h10.42a1.65,1.65,0,0,0,1.65-1.65V33.79A1.65,1.65,0,0,0,182.87,32.15Z"/><rect class="cls-15" x="171.36" y="35.16" width="11.1" height="0.6" rx="0.3"/><rect class="cls-15" x="171.36" y="36.99" width="11.1" height="0.6" rx="0.3"/><rect class="cls-15" x="171.36" y="38.86" width="11.1" height="0.6" rx="0.3"/><path class="cls-16" d="M-17.2,109.65c29.48-8.89,18.46-26.74,44-15.22s61.83,17.91,69.78,11.34"/><g class="cls-17"><rect class="cls-18" x="93.84" y="99.56" width="17.98" height="5.83" transform="translate(-22.91 29.91) rotate(-14.91)"/></g><g class="cls-19"><rect class="cls-20" x="83.5" y="61.97" width="22.88" height="40.78" transform="translate(-18 27.21) rotate(-14.91)"/></g><g class="cls-21"><rect class="cls-10" x="74.34" y="64.04" width="26.25" height="44.53" transform="translate(-19.26 25.41) rotate(-14.91)"/></g><g class="cls-22"><rect class="cls-23" x="62.31" y="44.08" width="73.58" height="33.93" transform="translate(-12.37 27.56) rotate(-14.91)"/></g><g class="cls-24"><rect class="cls-25" x="53.14" y="9.65" width="73.58" height="33.93" transform="translate(-3.82 24.04) rotate(-14.91)"/></g><polygon class="cls-26" points="57.68 48.39 128.75 29.47 129.18 34.6 59.86 60.48 57.68 48.39"/><g class="cls-27"><rect class="cls-25" x="57.01" y="38.83" width="74.59" height="12.29" transform="translate(-8.4 25.78) rotate(-14.91)"/></g><g class="cls-28"><g class="cls-29"><g class="cls-30"><rect class="cls-4" x="50.55" y="47.07" width="12.13" height="25.07" transform="translate(-13.43 16.58) rotate(-14.91)"/><g class="cls-31"><rect class="cls-4" x="49.46" y="46.56" width="14.32" height="26.07" transform="translate(-16.91 22.85) rotate(-19.91)"/></g><path class="cls-32" d="M50.82,61.36A12.93,12.93,0,0,0,56,62a25.68,25.68,0,0,0,6.25-2.12l4.11,11.35-11,4Z"/><g class="cls-33"><rect class="cls-2" x="50.55" y="47.07" width="12.13" height="25.07" transform="translate(-13.43 16.58) rotate(-14.91)"/><g class="cls-34"><rect class="cls-2" x="51.67" y="59.07" width="13.19" height="13.37" transform="translate(-18.91 23.77) rotate(-19.91)"/></g></g></g></g></g><g class="cls-35"><g class="cls-29"><g class="cls-36"><g class="cls-37"><rect class="cls-20" x="120.18" y="-0.43" width="19.84" height="69.56" transform="translate(-4.46 34.64) rotate(-14.91)"/></g><g class="cls-38"><g class="cls-37"><rect class="cls-10" x="115.95" y="0.13" width="19.84" height="36.73" transform="translate(-0.52 33.01) rotate(-14.91)"/></g></g></g></g></g><g class="cls-39"><g class="cls-29"><g class="cls-40"><g class="cls-41"><rect class="cls-4" x="120.06" y="23.85" width="7.47" height="22.27" transform="matrix(0.97, -0.26, 0.26, 0.97, -4.83, 33.04)"/></g><g class="cls-42"><g class="cls-41"><rect class="cls-2" x="121.49" y="34.78" width="7.47" height="11.15" transform="matrix(0.97, -0.26, 0.26, 0.97, -6.17, 33.58)"/></g></g></g></g></g><g class="cls-43"><g class="cls-29"><g class="cls-44"><g class="cls-45"><rect class="cls-46" x="125.43" y="27.24" width="3.29" height="11.34" transform="translate(-4.19 33.81) rotate(-14.91)"/></g><g class="cls-47"><g class="cls-45"><rect class="cls-48" x="125.26" y="27.26" width="3.27" height="9.85" transform="translate(-4.01 33.74) rotate(-14.91)"/></g></g></g></g></g><g class="cls-49"><g class="cls-29"><g class="cls-50"><g class="cls-51"><rect class="cls-2" x="85.21" y="71.09" width="9.83" height="11.59" transform="translate(-25.04 49.12) rotate(-26.91)"/></g><g class="cls-52"><g class="cls-51"><g class="cls-29"><rect class="cls-4" x="84.13" y="69.32" width="11.79" height="12.24" transform="translate(-16.38 25.71) rotate(-14.91)"/><g class="cls-53"><rect class="cls-4" x="85.95" y="71.85" width="7.85" height="8.13" transform="translate(-16.51 25.68) rotate(-14.91)"/><g class="cls-54"><rect class="cls-4" x="85.16" y="71.1" width="9.42" height="9.63" transform="translate(-24.63 48.9) rotate(-26.91)"/><circle class="cls-4" cx="90.24" cy="74.63" r="4.77"/></g></g></g></g></g></g></g></g><path class="cls-55" d="M49.85,58.31a.56.56,0,0,1-.3-.34,6.7,6.7,0,0,1-.27-1.39c0-.52-.06-.84.08-.93s.24.38.29.61a1.23,1.23,0,0,0,.21.5c.08.12.82-2.49,1.17-2.48.19,0-.49,1.69-.42,1.81s.69-2,1.07-1.9-.68,1.82-.56,2,.82-2.05,1.1-1.91-.8,2-.72,2.09.62-1.43.82-1.28a7.75,7.75,0,0,1-.63,2.15A8.19,8.19,0,0,1,51,58.64C50.88,58.74,50.21,58.47,49.85,58.31Z"/><path class="cls-56" d="M40.8,65.42c0,.71.53,3.34,1.85,2.45,3.06-2.07,5.36-1.81,6.26-3.39.57-1,2.36-5.55,2.09-5.84s-1.11-.71-1.37-.51-2.38,4.55-2.74,5.11S40.8,65.42,40.8,65.42Z"/><polygon class="cls-57" points="42.36 103.88 42.39 105.64 43.05 106.79 44.13 105.73 43.49 103.04 42.36 103.88"/><polygon class="cls-57" points="49.96 104.55 50 106.32 50.75 107.46 52.01 106.4 51.27 103.72 49.96 104.55"/><path class="cls-9" d="M50.13,108.08h.42c.41,0,.08-.59.87-.73.13,0,1,.73,1.23.73a8.86,8.86,0,0,0,1.91-.14c0-.13.39-.89-.34-.9s-2.32-1.84-2.5-1.8.12.66-.67.79-.95-.5-1.07-.42A16.39,16.39,0,0,0,50.13,108.08Z"/><path class="cls-4" d="M50.87,92.92a84.91,84.91,0,0,0-4.74-14,42.69,42.69,0,0,0-4.9-.51L41,82.27a3.76,3.76,0,0,0,0,1.06,24.78,24.78,0,0,0,.78,3.43A4.32,4.32,0,0,1,42,88.19l-.13,3.58c-.19,1.75-.43,13,0,13.57l11.07-1"/><path class="cls-57" d="M40,65.24c-.3-1.79-1.32-4.67-1.44-5.52a3.24,3.24,0,0,1,.91-2.89c.8-.65,3.68-1.11,4.36-.13s1.82,4.61.92,5.18c-.63.4-1.35.29-1.83.61-.3.19-.35,1.49,0,2.29S40,65.24,40,65.24Z"/><path class="cls-10" d="M39.64,64.46c-.88,1.48-.11,5.68.25,6.73.41,1.22,1.12,7.35,1.52,7.72s4.54.44,4.72-.31S45,73.42,44.88,71.45c0-.54,1-1.38.85-2.61-.07-.72-.14-1.54-2.58-3.87"/><path class="cls-10" d="M40.06,66a3,3,0,0,0,3.13,2.09c4.76-.41,6.93-2.14,7.1-2.55a57.15,57.15,0,0,0,2.3-6c0-.35-1.15-1.15-1.32-1s-2.89,5.19-3.54,5.47C46.88,64.47,40.06,66,40.06,66Z"/><path class="cls-57" d="M52.31,105.71a.62.62,0,0,0-.11,1,1.72,1.72,0,0,0,.76.52c.1,0,.66.12.83-.28A10.16,10.16,0,0,1,52.31,105.71Z"/><path class="cls-9" d="M42.5,108.14h.43c.41,0,.08-.59.87-.73.13,0,1,.73,1.23.73a8.86,8.86,0,0,0,1.91-.14c0-.12.39-.89-.34-.9s-2.33-1.83-2.5-1.79.12.65-.67.78-1-.5-1.07-.42A16.42,16.42,0,0,0,42.5,108.14Z"/><path class="cls-57" d="M44.69,105.77a.62.62,0,0,0-.11,1,1.67,1.67,0,0,0,.75.52c.11,0,.67.13.84-.28A10.16,10.16,0,0,1,44.69,105.77Z"/><path class="cls-58" d="M42.06,59.53a4.59,4.59,0,0,0,2.3-2.12c.8-1.57.25-3.27-.82-3.38s-1.89.79-2.64,1.17-1,.18-2.28.83A2.59,2.59,0,0,0,37,57.75c-.31.84.48,1.5,0,2.18-.61,1-.76,3.06,0,3.62s.32,1.61.14,2.51.64,1.32,1.07,1.79c.62.68.21,1.34.46,2s.86.77,1.76.32,2-2.12,1.5-2.64c-.23-.25.56-1.52.29-2s-.7-.54-.64-1.33a9.79,9.79,0,0,0,.49-1.33c.07-.59-.22-1.51-.6-1.61-.74-.2-1.13-1.7-.45-1.66a1.16,1.16,0,0,1,.94.55Z"/><path class="cls-57" d="M51.38,59.28a.58.58,0,0,1-.3-.35,5.9,5.9,0,0,1-.26-1.38c0-.52-.06-.84.07-.93s.25.38.29.61a1.23,1.23,0,0,0,.21.5c.08.12.82-2.49,1.17-2.48.19,0-.49,1.69-.42,1.81s.69-2,1.07-1.91-.68,1.83-.56,2,.82-2,1.1-1.91-.8,2-.72,2.08.62-1.42.82-1.27a7.85,7.85,0,0,1-.63,2.15,8.19,8.19,0,0,1-.69,1.42C52.41,59.71,51.74,59.43,51.38,59.28Z"/><path class="cls-59" d="M147.45,19c.49-.05,1-.13,1.48-.23"/><path class="cls-60" d="M149.89,18.52C160.2,16,171.05,5.23,164.3,6.06c-7.16.89-11.83,15.41,19.27-1.72"/><path class="cls-59" d="M184,4.1l1.31-.73"/><path class="cls-59" d="M168.07,23.11c.49,0,1,.06,1.5.07"/><path class="cls-61" d="M170.58,23.15c10.6-.49,23.32-8.87,16.54-9.38-6.61-.5-17.36,12,8.1,3.87,4.87-1.55,9.3-4.11,13.8-6.55,4-2.19,11.59-3.9,16.64-3.9,12.3,0,17.64,9,10.61,8-13-1.88-6.55-12.66,17-1.72"/><path class="cls-59" d="M253.78,13.67l1.36.65"/><path class="cls-62" d="M200.23,24.77s19.77-8.07,24.2-7.22"/><path class="cls-14" d="M158.48,21.46h0a1.36,1.36,0,0,0-.9,1.05h0a1.39,1.39,0,0,0,.46,1.3h0a1.4,1.4,0,0,0,1.36.25h0a1.39,1.39,0,0,0,.9-1h0a1.38,1.38,0,0,0-.46-1.3h0A1.38,1.38,0,0,0,158.48,21.46Z"/><polygon class="cls-48" points="191.94 2.59 192.24 3.84 193.44 4.31 192.34 4.98 192.27 6.26 191.29 5.42 190.05 5.75 190.54 4.56 189.85 3.48 191.13 3.59 191.94 2.59"/><polygon class="cls-4" points="136.3 1.87 136.49 4.97 139.08 3.26 136.3 1.87"/><path class="cls-59" d="M137.29,10.42c.47-.21.91-.44,1.35-.66"/><path class="cls-63" d="M139.41,9.34A23,23,0,0,0,147,2.86"/><path class="cls-59" d="M147.24,2.5A7.28,7.28,0,0,0,148,1.18"/><path class="cls-2" d="M276.06,28.94,260.3,10.29c0-.08,0-.08,0,0l-.14,6.9s0-.13-.63.58c-1.74,1.53-3.51,3.07-3.46,3.05l20,8.12C276.12,28.92,276.08,29,276.06,28.94Z"/><path class="cls-64" d="M276.06,28.94c.06,0,0,.06,0,0L260.3,10.29c0-.08,0-.08,0,0l-.14,6.9"/><path class="cls-64" d="M259.53,17.77c0,.08-10.15-.26-10.06-.29l26.59,11.46c.06,0,0,.06,0,0"/><path class="cls-14" d="M267.17,9.1h0a1.37,1.37,0,0,0-.89,1.05h0a1.37,1.37,0,0,0,.46,1.3h0a1.39,1.39,0,0,0,1.36.25h0a1.4,1.4,0,0,0,.89-1h0a1.36,1.36,0,0,0-.46-1.3h0A1.37,1.37,0,0,0,267.17,9.1Z"/><polygon class="cls-48" points="230.35 19.59 230.65 20.85 231.85 21.31 230.75 21.98 230.68 23.27 229.71 22.43 228.46 22.76 228.96 21.57 228.26 20.49 229.54 20.59 230.35 19.59"/><path class="cls-65" d="M102.71,108.59s.27-3.14.32-6.37c0-2.91-.16-5.91.26-6.64.56-1-.27-2.77,0-3.22s3.64-.9,3.64-.9-.28,3.42-.45,4c-.59,1.85-2.13,12.86-2.13,12.86l0,1-.95.38Z"/><path class="cls-65" d="M113.31,108.29s-.6-2.94-1.39-5.73c-.94-3.31-2.08-6.63-1.94-7.47.09-.59-.57-1.09-1.11-3.13-.39-1.52,3.2-.3,3.2-.3s.75,2.79.84,3.6,2,12.71,2,12.71l0,1.36-.86.14Z"/><path class="cls-9" d="M111.28,66.29c.33.4,1.43,1.32.89,1.58s-.41.91-.09,1a.66.66,0,0,1,0,1.22c-.74.41-.63.19-1,0s-.84.23-1.07.32-.73-.66-.76-1.17a2.21,2.21,0,0,1,.79-1.79A7,7,0,0,0,111.28,66.29Z"/><path class="cls-66" d="M110.69,73.66c.62.34,5.84,2,6.94,1.55l.05,0c.62-.88-.37-3.27-1-4.3-.44-.71-1.33-2.55-1.51-2.93a.11.11,0,0,0-.12-.06l-1.41.26a.1.1,0,0,0-.08.15,29.26,29.26,0,0,1,1.78,4.44c-.1.29-2.42-2.59-3.64-2.88-.35-.08-.68,2.73-.74,3.23C111,73.13,110,73.28,110.69,73.66Z"/><path class="cls-65" d="M114,68.3a.49.49,0,0,1-.4-.13,5.59,5.59,0,0,1-.83-1c-.23-.42-.43-.64-.36-.77s.36.19.51.35a1.23,1.23,0,0,0,.38.31c.13.06-.46-2.35-.18-2.51s.37,1.57.48,1.64-.35-1.92,0-2S113.84,66,114,66s-.27-2,0-2,.24,1.91.37,2-.15-1.41.07-1.38a6.93,6.93,0,0,1,.47,2,8.58,8.58,0,0,1,.09,1.44C115,68.19,114.31,68.27,114,68.3Z"/><path class="cls-65" d="M104.2,68.93c1.12-.18,2.21,0,2.61-.11s.79,0,.34-1.13-1.26-1.81-1.1-2.57,2.2-4,4-3.68c0,0,2.27.6,1.81,3.54-.27,1.72-.58,3-1.13,3.38-.28.21-.86.11-1.06.13s-.23.76-.07.89c.32.25,1.8.31,2,.6s.28,3-.58,3.18a13.59,13.59,0,0,1-4,0C106,73,104.2,68.93,104.2,68.93Z"/><path class="cls-9" d="M108.28,62.9s1.94,2,3.75,1.76c1-.14.22-2.28-.46-3.16s-2.78-.84-3.14-.76a3.41,3.41,0,0,0-2.34,1.8c-1.14,2.31.3,5,.8,4.43.22-.26-.94-.92-.45-2,.19-.41.84.27.84.27C107.94,64.92,108.28,62.9,108.28,62.9Z"/><path class="cls-65" d="M93.07,78a.47.47,0,0,1-.35.21,5.57,5.57,0,0,1-1.29,0c-.47-.1-.77-.09-.83-.23s.38-.16.6-.16a1,1,0,0,0,.48-.1c.13-.05-2.1-1.16-2-1.48s1.44.73,1.56.69-1.7-1-1.53-1.28,1.52.92,1.69.84-1.7-1.09-1.53-1.31,1.62,1,1.75,1-1.17-.8-1-.94,1.55.75,1.82.93a7.43,7.43,0,0,1,1.16.86C93.64,77.18,93.28,77.73,93.07,78Z"/><path class="cls-12" d="M111.12,75.87c.19.31-.49.85,0,.4a4.57,4.57,0,0,0,1.52-1.78c.23-.78-.42-1.7-.37-2.09a4.08,4.08,0,0,0-.59-2.55l-1.35-.25A22.73,22.73,0,0,0,109,73.14c0-.12-2.87-4.34-4.1-4.46l-1,.31c-.92,2,1,2.42,1.35,2.88,1.93,2.47,6,4.25,5.53,4.19"/><path class="cls-12" d="M104.48,80.72l-3.74,13.83s8.4-2.89,11.5-1S115,95.07,115,95.07l-3.87-13.83a15.08,15.08,0,0,0-3.23-1.85C107,79.25,104.48,80.72,104.48,80.72Z"/><path class="cls-12" d="M109,73.14c0-.12-2.87-4.34-4.1-4.46a.87.87,0,0,0-1,.31c-1.73,2,.74,5.14.83,5.71.37,2.19,0,5.69-.25,6s2.53-.4,3.48-.27,3,.48,3.13.79-.46-4.52,0-5a4.57,4.57,0,0,0,1.52-1.78c.23-.78-.42-1.7-.37-2.09a4.08,4.08,0,0,0-.59-2.55h0A39.31,39.31,0,0,0,109,73.14Z"/><path class="cls-12" d="M102.87,70.22c.25-.41,1.32-1.73,1.77-1.57,1.55.54,1.27,2.45,1.18,3-.15.84-3.67,6.22-4.57,6.64s-8.34-.11-8.34-.11l.6-1.16s6-.12,6.3-.41a18.47,18.47,0,0,0,1.9-3.76A13,13,0,0,1,102.87,70.22Z"/><path class="cls-9" d="M110.71,61a8.72,8.72,0,0,0-1.93-1.08c-.5-.08-1.12.53-1.61.37s-1.72-.31-2,.38.34,1.83-.25,2c-1.08.31-1.31,1-1,1.45s1.08,1,.16,1.49c-.5.24-1.31,1.34-.18,1.56s.57.81.46,1.14-.12,1.6.72,1.34,1.79.71,2-.06,1.3-.6,1.52-1.07-.24-1.35-.82-1.74-.71-1.27-.39-1.18c1.1.3.15-1,.6-1.56.15-.18,1,.58,1.24,0s.28-1.83.6-2S111,61.17,110.71,61Z"/><path class="cls-9" d="M113.4,110.75h.42c.41,0,.08-.59.87-.73.13,0,1,.73,1.23.73a8.86,8.86,0,0,0,1.91-.14c0-.12.39-.89-.34-.9s-2.32-1.83-2.5-1.8.12.66-.67.79-.94-.5-1.07-.42A16.39,16.39,0,0,0,113.4,110.75Z"/><path class="cls-65" d="M115.58,108.38a.62.62,0,0,0-.11,1,1.65,1.65,0,0,0,.76.52c.1,0,.66.13.84-.28A9.78,9.78,0,0,1,115.58,108.38Z"/><path class="cls-9" d="M102.79,111.05h.42c.41,0,.08-.59.87-.73.13,0,1,.73,1.23.73a8.79,8.79,0,0,0,1.91-.15c0-.12.39-.88-.33-.9s-2.33-1.83-2.51-1.79.12.66-.67.78-.94-.5-1.06-.42A16.56,16.56,0,0,0,102.79,111.05Z"/><path class="cls-65" d="M105,108.68a.63.63,0,0,0-.11.95,1.81,1.81,0,0,0,.76.52c.11,0,.66.12.84-.29A9.21,9.21,0,0,1,105,108.68Z"/></svg>