<svg id="Layer_1" data-name="Layer 1" xmlns="http://www.w3.org/2000/svg" viewBox="0 0 280 120"><defs><style>.cls-1{fill:#527b84;}.cls-2{fill:#231f20;}.cls-3{fill:#6f593b;}.cls-14,.cls-4,.cls-5{fill:none;stroke-miterlimit:10;}.cls-4,.cls-5{stroke:#231f20;}.cls-4{stroke-width:0.25px;}.cls-6{fill:#544255;}.cls-7{fill:#675368;}.cls-8{fill:#7db1a8;}.cls-9{fill:#f3725f;}.cls-10{fill:#ffc959;}.cls-11{fill:#799e96;}.cls-12{fill:#f16254;}.cls-13{fill:#febf4f;}.cls-14{stroke:#595a5c;stroke-width:1.25px;}.cls-15{fill:#f26758;}.cls-16{fill:#f04e41;}.cls-17{fill:#6a9790;}.cls-18{fill:#f3d8c0;}.cls-19{fill:#a85132;}.cls-20{fill:#5a5a5c;}.cls-21{fill:#ae8145;}.cls-22{fill:#d6aa4c;}.cls-23{fill:#ffc95a;}.cls-24{fill:#554237;}</style></defs><ellipse class="cls-1" cx="140.34" cy="105.33" rx="120" ry="6.46"/><path class="cls-2" d="M128.34,54.33c.07-.56,3.11-1.34,4.21-.48a6.18,6.18,0,0,1,1.5,6.11c-.91,2.19-.18,2.37.31,2.74a6.35,6.35,0,0,1-4.16.68c-2.78-.31-2.15-2.39-2.15-2.39Z"/><path class="cls-3" d="M133.44,63.67c-1.19-.3-2.39-.19-2.8-.38s-.86-.12-.26-1.26,1.55-1.82,1.46-2.66-2-4.51-3.93-4.39c0,0-2.51.41-2.31,3.63.11,1.89.31,3.27.87,3.78.27.25.91.2,1.13.25s.15.38,0,.5c-.38.23-2.44,0-2.64.3s-.54,2.41.38,2.75a14.46,14.46,0,0,0,4.29.46C130.63,66.55,133.44,63.67,133.44,63.67Z"/><path class="cls-2" d="M129.66,56.74s-2.3,2-4.23,1.51c-1.06-.25,0-2.48.83-3.37s3.09-.61,3.47-.48a3.67,3.67,0,0,1,2.34,2.18c1,2.61-.85,5.39-1.33,4.7-.2-.3,1.11-.9.69-2.11-.16-.46-.93.2-.93.2C129.82,59,129.66,56.74,129.66,56.74Z"/><circle class="cls-4" cx="126.34" cy="59.17" r="0.91"/><circle class="cls-4" cx="128.53" cy="59.52" r="0.97"/><path class="cls-5" d="M127.23,59.37c.24-.21.13-.16.33,0"/><polygon class="cls-3" points="127.79 102.72 127.72 105.93 126.96 107.08 125.7 106.02 126.3 102.72 127.79 102.72"/><path class="cls-2" d="M127.59,107.7h-.42c-.42,0-.09-.59-.87-.73-.14,0-1,.73-1.24.73a8.3,8.3,0,0,1-1.92-.15c0-.12-.39-.88.34-.9s2.34-1.84,2.51-1.8-.12.66.67.79,1-.5,1.07-.42A16.56,16.56,0,0,1,127.59,107.7Z"/><path class="cls-3" d="M125.4,105.32a.63.63,0,0,1,.11,1,1.81,1.81,0,0,1-.76.52c-.11,0-.66.12-.84-.29A9.67,9.67,0,0,0,125.4,105.32Z"/><path class="cls-6" d="M124.9,78.37s-.22,13.89-.07,14.9.94,9,.87,9.77,2,1.22,2.39.28,1.06-10.16.35-11.32,3.61-14,3.61-14Z"/><polygon class="cls-3" points="139.26 85.99 140.77 85.08 142.09 85.01 141.78 86.5 139.16 87.41 139.26 85.99"/><path class="cls-2" d="M143,83.83l.22.35c.23.35-.45.39-.15,1.13,0,.13,1.16.45,1.28.65a8.72,8.72,0,0,1,.91,1.7c-.1.06-.54.81-.94.2s-2.81-1-2.87-1.16.62-.25.3-1-.93-.53-.92-.67A15.72,15.72,0,0,1,143,83.83Z"/><path class="cls-3" d="M142.11,87a.64.64,0,0,1,.75-.61,1.79,1.79,0,0,1,.85.37c.09.07.46.49.21.86A9.05,9.05,0,0,0,142.11,87Z"/><path class="cls-7" d="M124.9,78.37c.23,1.81,1.25,14.28,3.19,14.86s13.26-5.41,12.83-6-1.09-1.7-1.81-1.42-6.18,2.69-7.48,2.76.29-5.38.42-6.53.93-2.88,0-4S124.9,78.37,124.9,78.37Z"/><polygon class="cls-8" points="116.72 58.01 111.15 54.52 105.37 57.55 105.16 64.07 110.72 67.56 116.5 64.53 116.72 58.01"/><path class="cls-3" d="M118.81,68.25s-2.73-1.27-3.08-2.14-.64-1-.77-1c-.48-.36-.81-.74-.71-.49s0,.75,0,1a.15.15,0,0,1-.07.14l-.4.22c-.08,0-.58.33-.89.46s.73.58,1.13.62c.61.08,1.84,1.32,4,4.17C118.23,71.39,118.81,68.25,118.81,68.25Z"/><path class="cls-3" d="M114.28,64.51c-.31-.23-.75-.77-.81-.64a.49.49,0,0,0,0,.48,1.65,1.65,0,0,0,.41.48,4.53,4.53,0,0,1,.38.85"/><path class="cls-9" d="M124.93,63.44c-1.15.24-4.28,5.38-4.88,5.66s-.64-.73-1.24-.85-1.12,2.42-.73,3c.68.91,1.65,1.61,2.48,1.31s3.71-4.16,3.72-4a1.93,1.93,0,0,0,1,2.25c1,.45.26,4.72-.22,7.24,0,.16-.12.26-.13.37-.08,1.61,7.47.47,7.38,0-1-5.6-.64-9.92.63-11s3.94-.86,5.32-1.27c.93-.28,2-2,2.48-2.55.72-.93-1.37-1.91-2-1.81s-1.15,1.68-2.06,1.66-4.16.06-4.82,0-2.78,2.57-4,2.57S126.08,63.2,124.93,63.44Z"/><path class="cls-3" d="M141.79,56.9a.54.54,0,0,1,0-.45,5.91,5.91,0,0,1,.75-1.2c.37-.38.53-.66.7-.63s-.08.44-.2.64a1.24,1.24,0,0,0-.2.51c0,.15,2.31-1.27,2.56-1s-1.51.91-1.55,1,1.89-1,2.09-.66-1.75.87-1.77,1.07,2-.94,2.11-.65-1.92.89-1.95,1,1.43-.62,1.47-.38-1.61,1-1.93,1.15a8.32,8.32,0,0,1-1.48.57C142.25,57.93,142,57.27,141.79,56.9Z"/><path class="cls-3" d="M138.76,61.78c-.11.56,1.62,1.56,2.09,1.47s1.43-5.34,1.85-5.39-.53-1.83-.9-1.41S138.76,61.78,138.76,61.78Z"/><path class="cls-10" d="M237.06,72.82a33,33,0,0,0,7.86-13l-18.17,0L210.3,76.18l22.95,0A46.32,46.32,0,0,0,237.06,72.82Z"/><path class="cls-10" d="M231.18,54.43l0-14.8a35.14,35.14,0,0,0-17.38,8.69l-.05,23.43Z"/><path class="cls-10" d="M227.43,59.12l17.71,0c2.49-7.94,2-15.49.19-17.87Z"/><path class="cls-10" d="M209.62,76.85,205.48,81c5.77,5.38,17,3.47,26.9-4.07Z"/><path class="cls-10" d="M231.85,53.76l13-13c-2-1.65-7.05-2.32-13-1.3Z"/><path class="cls-10" d="M213.11,72.42s0,0,0-.06L213.15,49C202.33,59.81,198.73,73.81,205,80.49Z"/><path class="cls-8" d="M239.11,104.14a34.33,34.33,0,0,0,13-8.91L235,87.37,212.33,95.8l21.7,9.92A46.25,46.25,0,0,0,239.11,104.14Z"/><path class="cls-8" d="M241.45,84.2l6.41-14a36.7,36.7,0,0,0-20.2.75L217.53,93.11Z"/><path class="cls-8" d="M235.89,87l16.75,7.66c5.77-6.44,8.54-13.81,7.87-16.83Z"/><path class="cls-8" d="M211.39,96.14l-5.68,2.12c3.13,7.58,14.56,10.59,27.21,7.73Z"/><path class="cls-8" d="M242.38,83.86l17.9-6.67c-1.16-2.41-5.68-5.23-11.73-6.81Z"/><path class="cls-8" d="M216.61,93.45a.14.14,0,0,1,0-.06l10.11-22.11c-14.91,5.6-24.34,17.3-21.28,26.32Z"/><polygon class="cls-11" points="187.03 78.64 201.69 78.64 209.02 91.22 201.69 103.8 187.03 103.8 183.69 80.24 187.03 78.64"/><polygon class="cls-12" points="220.32 60.84 209.28 65.67 199.05 59.31 195.72 60.91 200.23 71.31 191.02 79.08 202.79 81.66 207.33 92.82 213.43 82.43 222.11 83.15 225.44 81.55 217.44 72.55 220.32 60.84"/><polygon class="cls-13" points="227.11 106.89 223.77 108.49 206.75 94.03 210.09 84.03 213.36 82.42 227.11 106.89"/><line class="cls-14" x1="204" y1="94.42" x2="164.5" y2="2.93"/><polygon class="cls-8" points="183.69 80.24 198.35 80.24 205.68 92.82 198.35 105.4 183.69 105.4 176.37 92.82 183.69 80.24"/><polygon class="cls-9" points="216.99 62.45 205.95 67.27 195.72 60.91 196.89 72.91 187.68 80.68 199.45 83.26 204 94.42 210.09 84.03 222.11 83.15 214.11 74.14 216.99 62.45"/><polygon class="cls-10" points="223.77 108.49 196.1 108.49 210.02 84.02 223.77 108.49"/><path class="cls-9" d="M12.86,26c5-1.85,8.74-.13,10.67-.27,5.6-.42,5.18-4.05,8-6.59,1.85-1.65,6.38,1.47,7.56,3.28-2.1,2.27-5.69,1.38-4.36,4,1.18,2.34-1.73,3.32,1.62,7.36.3.64-.45,1.06-1.12,1.36-1,.42-8.41,2.42-13.78-1.29-6.76-4.65-15.88-.5-17.38,1.54C5.64,31.41,8.05,27.72,12.86,26Z"/><path class="cls-15" d="M30.6,20.12V36s5.51-.38,5.83-1.87-4.69-15.19-4.69-15.19Z"/><path class="cls-16" d="M36.43,34.13c.8-1.39,1.26-6.63,1.26-6.63l-5.18,1.3a35.48,35.48,0,0,1,.89,4c.05.37.63.4.91.43C35.56,33.34,36.11,33.18,36.43,34.13Z"/><path class="cls-9" d="M31.22,16.18c5-3.07,14.48.76,18.57.7,7.4-.12,10.67-.47,14.41-3.81,2.43-2.17,8.4,1.93,9.94,4.32-2.76,3-7.49,1.81-5.73,5.3,1.55,3.07-2.28,4.37,2.12,9.67.4.85-.58,1.4-1.47,1.79-1.28.56-7.62,2.22-16.52,1.47-6.88-.57-19.42-7.75-19.11-2.75C32.74,30,30.09,17.59,31.22,16.18Z"/><path class="cls-15" d="M62.94,14.1l.44,21.31s6.6-.7,7.23-2.56-6.17-20-6.17-20Z"/><path class="cls-16" d="M70.61,32.85c1-1.82,1.66-8.72,1.66-8.72l-6.81,1.72s.64,3.49,1.17,5.2c.15.48.84.53,1.19.57C69.47,31.81,70.2,31.61,70.61,32.85Z"/><path class="cls-9" d="M64,11.11c6.06-3.7,17.43.91,22.36.83,8.91-.13,12.64-2.13,17.14-6.15,2.92-2.62,10.32,3.9,12.18,6.77-3.33,3.59-9,2.18-6.9,6.38,1.87,3.7-2.75,5.26,2.55,11.65.48,1-.7,1.68-1.76,2.15-1.54.68-9.19,2.67-19.9,1.77-8.29-.69-23.39-9.33-23-3.31C65.78,27.74,62.59,12.8,64,11.11Z"/><path class="cls-15" d="M102.1,6.9l.58,27.36s7.93-.84,8.7-3.08-7.93-25.39-7.93-25.39Z"/><path class="cls-16" d="M111.38,31.18c1.27-2.19,2-10.5,2-10.5l-8.2,2.07s.54,3.27,1,5.37A2,2,0,0,0,108,29.69C110,30,110.88,29.68,111.38,31.18Z"/><path class="cls-9" d="M103.75,4.13a.41.41,0,0,1,.22-.28C110.6,0,121.85,9,125.85,8.86c8.9-.23,8.26-3.54,20.06-6.61,4-1,17.48-1.13,19.34,1.74-3.33,3.59-3.1,8.52-1,12.72,1.87,3.7,4,5.84,9.32,12.24-.75-1.34-13.81-5.84-20.12-5.62-8.29.29-12.77,9-23.09,9.41-8.14.34-24.61-10.64-24.24-4.62C105.34,24.74,102.89,7.17,103.75,4.13Z"/><path class="cls-17" d="M189.47,34.37c.64.44,2.11,1.27,1.73,3s-7.53,3.93-8.74,3.36-1.22-.43-1.5-1.14a2.35,2.35,0,0,1,.74-2.16c.33-.12.91.23,1.64.21S189.47,34.37,189.47,34.37Z"/><polygon class="cls-18" points="194.32 70.05 195.6 71.72 195.55 73.52 193.23 73.77 192.1 70.56 194.32 70.05"/><path class="cls-2" d="M196.77,73.16a4.09,4.09,0,0,1-.76,1.11c-.38.32-1.47,1-1.6,1.06s-1.34,1.33-1.56,1.51-1.15.87-1.24.76S190.38,76.52,191,76A32.47,32.47,0,0,0,193,73c.2-.1.92.38,1.75-.09s.64-1.18.81-1.2S196.77,73.16,196.77,73.16Z"/><path class="cls-6" d="M195.08,70.51l-2.4,1.86s-7.94-7.76-7.94-9c0-1.4,3.36-9.14,3.66-9.75a7.63,7.63,0,0,0,.19-1.25l6.47-1.28-.75,5.47c0,.18-5.51,5.56-5.51,5.74Z"/><polygon class="cls-18" points="189.77 77.33 189.71 79.44 188.53 80.81 186.58 79.54 187.73 76.33 189.77 77.33"/><path class="cls-7" d="M191.35,65.85,190.27,78.6l-3.4-.93s.57-11.81.67-12.37a102.63,102.63,0,0,1,1.05-12.89c0-.22,6.47-1.28,6.47-1.28l.25,3.46A35.05,35.05,0,0,1,194.24,58l-.86,2.32a30.25,30.25,0,0,1-1.29,3l-.74,2.53"/><path class="cls-2" d="M189.71,81.29a4,4,0,0,1-1.29.39c-.5,0-1.74-.19-1.91-.19s-1.88.19-2.16.19-1.44-.05-1.44-.19-.28-1.62.59-1.64a29.06,29.06,0,0,0,3.41-1c.21.05.47.88,1.41,1s1.24-.51,1.39-.41A8.16,8.16,0,0,1,189.71,81.29Z"/><path class="cls-18" d="M190.7,34.12c-.65-1.7-1.22-4.72-1.55-5.51a3.24,3.24,0,0,0-2.25-2.05c-1-.15-3.75.9-3.84,2.09s.75,4.92,1.82,5c.75,0,1.31-.43,1.89-.4.36,0,.86.86,1.12,1.62S190.7,34.12,190.7,34.12Z"/><path class="cls-8" d="M190.33,33c.67.4,2.49,4.47,2.52,5.58,0,1.29,2.46,12.06,2.21,12.55s-6,1.93-6.47,1.28.6-3.29-.62-7.37c-.2-.65-1.68-4.46-1.32-6.59.11-.66,1-3.75,1.86-4.24"/><path class="cls-19" d="M189.13,32.27c-1.31-.24-1.73-1.06-1.67-1.24s.55-1.08-.05-1.64-1,.32-1,.32l-.08.63s-.3.53-.62.51a6.08,6.08,0,0,1-2.08-.68,2.75,2.75,0,0,1-.73-2.39,3.73,3.73,0,0,1,2.71-2,7.18,7.18,0,0,1,2-.37A2.35,2.35,0,0,1,189,26a4,4,0,0,1,1,.82,2.61,2.61,0,0,1,.6,1.14c.17.78-.17,1.48-.08,2.14a6.54,6.54,0,0,1-.34,2.05"/><path class="cls-18" d="M181.7,37.4s-2.06-3.17-3.36-5.55c-.46-.85-.9-2.18-1-2.25-.56-.24-1-.53-.81-.31a8,8,0,0,1,.35.82c.09.15-.89.56-.78.76s-.1.33,0,.48.95.68,1.15,1,3.6,7.45,3.82,7.35A10.6,10.6,0,0,0,181.7,37.4Z"/><rect class="cls-20" x="165.43" y="40.56" width="31.13" height="1.23" transform="translate(215.5 223.56) rotate(-113.53)"/><path class="cls-18" d="M181.51,44.15c-.29.31,0,.48.09.63s-.08.2,0,.35.16.12.2.27-.08.11,0,.32.16.17.2.26,0,.18.07.34.43.06.82,0A8.93,8.93,0,0,0,184.6,46c.07-.05,9-.51,9.13-.82.06-.13-1.47-1.92-1.49-2.06,0-.35-7.6,1.34-7.6,1.34A6.54,6.54,0,0,0,183,43.32c-.2-.06-.35-.15-.46-.18s.33.62.27.75"/><path class="cls-8" d="M187.79,37.3c.13-.85.36-2.94,2.24-3.37s6.54,7.93,6.54,9.41-2.91,2-3.38,2c-.66.09-1.69-2.3-1.38-2.29s.86-.32.49-1A60.85,60.85,0,0,0,187.79,37.3Z"/><path class="cls-18" d="M176.51,29.22c-.36-.16-.91-.58-.94-.45a.4.4,0,0,0,.11.41,2.31,2.31,0,0,0,.63.42,4.38,4.38,0,0,1,.53.51"/><path class="cls-18" d="M176.78,30.27c.05-.15-1.42-.77-1.57-.71s-.18.35-.05.45S176.68,30.57,176.78,30.27Z"/><path class="cls-18" d="M177,30.79a3.7,3.7,0,0,0-1.7-.72.3.3,0,0,0-.19.24C175.08,30.69,176.9,31.14,177,30.79Z"/><path class="cls-18" d="M177.08,31.27c0-.15-1.42-.69-1.58-.63s-.14.38,0,.47S177,31.64,177.08,31.27Z"/><path class="cls-18" d="M177.12,31.83c.06-.13-1.2-.67-1.34-.63s-.09.27,0,.37S177,32.14,177.12,31.83Z"/><path class="cls-21" d="M180.61,41.83a5,5,0,0,1,.18-.83,2.27,2.27,0,0,0,.3-.73.36.36,0,0,0-.13-.41c-.09-.1-.45.62-.68,1a.22.22,0,0,0,0,.18l1.12,2.58-.58.25h0l-.22,0a.18.18,0,0,1-.18,0l-.78-.71a.2.2,0,0,1-.07-.19l.23-1.12s0,0,0-.06l.46-.85"/><polygon class="cls-21" points="156.07 94.16 154.64 95.7 154.51 97.5 156.79 97.97 158.23 94.88 156.07 94.16"/><path class="cls-2" d="M153.33,97A4.12,4.12,0,0,0,154,98.2c.35.35,1.36,1.09,1.48,1.2s1.2,1.47,1.41,1.66,1,1,1.15.88,1.34-1,.73-1.58a31.39,31.39,0,0,1-1.69-3.13c-.19-.11-1,.29-1.73-.26s-.52-1.24-.69-1.27S153.33,97,153.33,97Z"/><path class="cls-17" d="M155.76,94.16l2.12,2.53s8.75-8.85,8.94-9.38,3.06-9.92,3.23-10.06a11,11,0,0,0,0-2.44l-4.44-2.59L162.26,85.7c.91.62.08-.16,0,0Z"/><polygon class="cls-21" points="169.02 98.79 169.08 100.89 170.26 102.26 172.21 100.99 171.06 97.78 169.02 98.79"/><path class="cls-8" d="M169.33,86.28,168.22,99l3.51-.34s1.45-11.73,1.45-12.3a82.62,82.62,0,0,0-2.27-14.34,44.06,44.06,0,0,0-5.2-.81l-.44,2.32a8.58,8.58,0,0,0,.56,3.57c0,.1.06.19.08.25l.73,2.57a16.08,16.08,0,0,0,.78,2.14l1.91,4.19"/><path class="cls-22" d="M168.41,55c0,.78-.22,2.45,1.37,3.16s8.28-6.59,8.53-7.91,2.55-5.57,2.36-6.31c-.06-.21-.94-1.19-1.23-1s-3.23,5.55-3.68,6.13S168.41,55,168.41,55Z"/><path class="cls-2" d="M169.08,102.75a4.08,4.08,0,0,0,1.29.38c.5,0,1.74-.19,1.91-.19s1.88.19,2.16.19,1.44,0,1.44-.19.28-1.62-.59-1.63a33.54,33.54,0,0,1-3.41-1c-.21,0-.47.88-1.41,1s-1.24-.51-1.39-.42A8.25,8.25,0,0,0,169.08,102.75Z"/><path class="cls-21" d="M168.88,55.15c-.3-1.79-1.34-4.69-1.46-5.54a3.27,3.27,0,0,1,.92-2.9c.79-.65,3.69-1.12,4.37-.14s1.83,4.63.93,5.2c-.63.4-1.35.29-1.84.61-.29.2-.05,3,.1,3.81S168.88,55.15,168.88,55.15Z"/><path class="cls-23" d="M168.62,53.87c-.64.45-2.12,4.66-2.06,5.77.07,1.29-1.45,12.22-1.15,12.69s6.16,1.42,6.54.74-.11-5,.76-9.17c.15-.67,1.08-5.77.13-6.88a9.06,9.06,0,0,0-2.32-2.1"/><path class="cls-24" d="M168.67,45.9c-1.72.55-1.11,1-1.46,1.34s-1,.58-1,1,.52,1,.33,1.37-.68.7-.56,1.17.57.72.57,1.11-.5.69,0,1.07a1.89,1.89,0,0,0,1.73.34c.35-.21.74,0,1.75-.85s.25-1.49.11-1.62-1-.65-.79-1.43,1.07-.26,1.07-.26l.38.51a2.3,2.3,0,0,1,.06-.85c.13-.29,1.15-.91,1.5-1.32s1.1-.9.53-1.35C171.47,45,168.67,45.9,168.67,45.9Z"/><path class="cls-21" d="M185.76,50.05c.45.1.26.46.3.62s.21.13.26.3-.06.21,0,.37.14,0,.24.27,0,.25,0,.36.14.15.15.35-.35.33-.74.53a9.8,9.8,0,0,1-1.82.84c-.1,0-.48.92-.81.73a5.7,5.7,0,0,1-.88-.82c-.19-.34.68-1.3.68-1.3a7.1,7.1,0,0,1,.78-2.09c.15-.18.23-.35.31-.45s.09.77.22.85"/><path class="cls-23" d="M169.81,55.48c-.67.52-2.24,1.52-1.72,3.38s10.21,2,11.51,1.31,4.56-5.62,4.65-6.09a2.94,2.94,0,0,0-1.14-1.78c-.38-.11-4.12,5.12-4.92,5.15S169.81,55.48,169.81,55.48Z"/><path class="cls-21" d="M180.76,41.85c-.13-.1.8-1.47,1-1.52s.35.21.3.37S181,42.06,180.76,41.85Z"/><path class="cls-21" d="M180.87,42.44c-.14-.13,1-1.75,1.07-1.61a.32.32,0,0,1,.3.1C182.49,41.25,181.15,42.69,180.87,42.44Z"/><path class="cls-21" d="M181.08,42.91c-.14-.11.84-1.43,1-1.46s.34.25.29.39S181.4,43.16,181.08,42.91Z"/><path class="cls-21" d="M181.36,43.42c-.12-.09.66-1.28.81-1.32s.24.18.18.34S181.66,43.61,181.36,43.42Z"/></svg>